<svg xmlns="http://www.w3.org/2000/svg" version="1.1" xmlns:xlink="http://www.w3.org/1999/xlink" width="512" height="512" x="0" y="0" viewBox="0 0 260.245 260.245" style="enable-background:new 0 0 512 512" xml:space="preserve" class="">
<g>
<path d="M218.783 146.7c-1.236-12.878-5.72-22.697-13.326-29.186-5.501-4.693-11.454-6.609-16.23-7.32-5.591-8.444-13.769-13.598-23.562-14.885 5.629-21.146 15.459-55.701 16.354-58.843 2.831-8.742 1.594-17.433-3.498-24.501C173.204 4.586 164.082.001 154.716 0c-12.251-.001-22.262 7.448-26.124 19.44-.024.075-.048.15-.07.227l-15.628 52.014-14.475-44.914C95.085 13.784 84.5 5.425 71.323 5.425c-9.09 0-17.757 4.113-23.186 11.004-5.28 6.703-7.014 15.275-4.88 24.138l17.863 74.287c-3.947 1.802-7.464 4.343-10.355 7.507-5.54 6.063-8.716 14.149-9.44 24.034-1.416 19.325 15.805 46.4 32.837 70.336.519.729.999 1.403 1.41 1.986l2.774 25.312c.834 9.182 8.646 16.217 17.89 16.217h72.49c9.346 0 17.168-7.123 17.906-16.415l2.224-22.895c.195-.277.404-.543.626-.858 13.732-19.493 31.709-48.278 29.301-73.378zm-41.736 71.748-2.37 24.354c-.21 3.133-2.812 5.443-5.95 5.443h-72.49c-3.115 0-5.705-2.275-5.945-5.381l-2.936-26.854a5.86 5.86 0 0 0-1.029-2.885c-5.529-8.053-34.472-46.233-33.032-65.868 1.178-16.073 10.226-21.171 16.433-22.774 3.161-.817 5.093-3.992 4.329-7.167L54.924 37.755c-3.014-12.516 6.772-20.331 16.398-20.331 6.758 0 13.438 3.854 15.552 12.64l17.753 55.087c1.313 4.073 4.842 6.099 8.37 6.099 3.589 0 7.177-2.096 8.43-6.266l18.587-61.864C142.527 15.319 148.58 12 154.715 12c9.871.001 19.953 8.595 15.829 20.95 0 0-13.245 46.454-18.426 66.731-.965 3.773 1.884 7.434 5.688 7.434.165 0 .333-.008.502-.022a29.068 29.068 0 0 1 2.404-.102c6.445 0 14.411 2.268 19.649 11.707 1.024 1.846 2.895 3.04 5.003 3.153 6.315.34 19.341 3.775 21.474 25.995 2.456 25.592-23.516 59.975-28.765 67.637a5.935 5.935 0 0 0-1.026 2.965z" fill="#33699e" opacity="1" data-original="#000000" class="" width="10">
</path>
</g>
</svg>