<?xml version="1.0" encoding="UTF-8" standalone="no"?>
<svg
   id="visual"
   viewBox="0 0 174.74005 174.74005"
   width="174.74005"
   height="174.74005"
   version="1.1"
   sodipodi:docname="favicon-5.svg"
   inkscape:version="1.1.1 (c3084ef, 2021-09-22)"
   xmlns:inkscape="http://www.inkscape.org/namespaces/inkscape"
   xmlns:sodipodi="http://sodipodi.sourceforge.net/DTD/sodipodi-0.dtd"
   xmlns="http://www.w3.org/2000/svg"
   xmlns:svg="http://www.w3.org/2000/svg">
  <defs
     id="defs839">
    <clipPath
       clipPathUnits="userSpaceOnUse"
       id="clipPath1879">
      <circle
         style="fill:none;stroke:#9dbed1;stroke-width:0.618213;stroke-linecap:round;stroke-linejoin:round;paint-order:markers fill stroke"
         id="circle1881"
         cx="444.71255"
         cy="498.0459"
         r="86.620026" />
    </clipPath>
    <clipPath
       clipPathUnits="userSpaceOnUse"
       id="clipPath1883">
      <circle
         style="fill:none;stroke:#9dbed1;stroke-width:0.618213;stroke-linecap:round;stroke-linejoin:round;paint-order:markers fill stroke"
         id="circle1885"
         cx="444.71255"
         cy="498.0459"
         r="86.620026" />
    </clipPath>
    <clipPath
       clipPathUnits="userSpaceOnUse"
       id="clipPath1887">
      <circle
         style="fill:none;stroke:#9dbed1;stroke-width:0.618213;stroke-linecap:round;stroke-linejoin:round;paint-order:markers fill stroke"
         id="circle1889"
         cx="444.71255"
         cy="498.0459"
         r="86.620026" />
    </clipPath>
    <clipPath
       clipPathUnits="userSpaceOnUse"
       id="clipPath1891">
      <circle
         style="fill:none;stroke:#9dbed1;stroke-width:0.618213;stroke-linecap:round;stroke-linejoin:round;paint-order:markers fill stroke"
         id="circle1893"
         cx="444.71255"
         cy="498.0459"
         r="86.620026" />
    </clipPath>
    <clipPath
       clipPathUnits="userSpaceOnUse"
       id="clipPath1895">
      <circle
         style="fill:none;stroke:#9dbed1;stroke-width:0.618213;stroke-linecap:round;stroke-linejoin:round;paint-order:markers fill stroke"
         id="circle1897"
         cx="444.71255"
         cy="498.0459"
         r="86.620026" />
    </clipPath>
    <clipPath
       clipPathUnits="userSpaceOnUse"
       id="clipPath1899">
      <circle
         style="fill:none;stroke:#9dbed1;stroke-width:0.618213;stroke-linecap:round;stroke-linejoin:round;paint-order:markers fill stroke"
         id="circle1901"
         cx="444.71255"
         cy="498.0459"
         r="86.620026" />
    </clipPath>
  </defs>
  <sodipodi:namedview
     id="namedview837"
     pagecolor="#ffffff"
     bordercolor="#666666"
     borderopacity="1.0"
     inkscape:pageshadow="2"
     inkscape:pageopacity="0.0"
     inkscape:pagecheckerboard="0"
     showgrid="false"
     inkscape:zoom="1.05"
     inkscape:cx="98.571429"
     inkscape:cy="142.85714"
     inkscape:window-width="1296"
     inkscape:window-height="852"
     inkscape:window-x="0"
     inkscape:window-y="34"
     inkscape:window-maximized="0"
     inkscape:current-layer="visual"
     fit-margin-top="1"
     fit-margin-left="1"
     fit-margin-right="0.5"
     fit-margin-bottom="0.5" />
  <rect
     x="0"
     y="0"
     width="900"
     height="600"
     fill="#001220"
     id="rect824"
     clip-path="url(#clipPath1899)"
     transform="translate(-357.09253,-410.42587)" />
  <path class="orange-path"
     d="m 0,389 21.5,1 c 21.5,1 64.5,3 107.3,12.2 42.9,9.1 85.5,25.5 128.4,28.8 42.8,3.3 85.8,-6.3 128.6,-13.2 42.9,-6.8 85.5,-10.8 128.4,-17.8 42.8,-7 85.8,-17 128.6,-16.2 42.9,0.9 85.5,12.5 128.4,10.4 C 814,392 857,376 878.5,368 l 21.5,-8 v 241 h -21.5 c -21.5,0 -64.5,0 -107.3,0 -42.9,0 -85.5,0 -128.4,0 -42.8,0 -85.8,0 -128.6,0 -42.9,0 -85.5,0 -128.4,0 -42.8,0 -85.8,0 -128.6,0 -42.9,0 -85.5,0 -128.4,0 C 86,601 43,601 21.5,601 H 0 Z"
     fill="#c26b28"
     id="path826"
     clip-path="url(#clipPath1895)"
     transform="translate(-357.09253,-410.42587)" />
  <path class="yellow-path"
     d="m 0,429 21.5,-5.3 c 21.5,-5.4 64.5,-16 107.3,-16.4 42.9,-0.3 85.5,9.7 128.4,17.5 42.8,7.9 85.8,13.5 128.6,20.7 42.9,7.2 85.5,15.8 128.4,14.3 42.8,-1.5 85.8,-13.1 128.6,-21.1 42.9,-8 85.5,-12.4 128.4,-6.2 42.8,6.2 85.8,22.8 107.3,31.2 L 900,472 v 129 h -21.5 c -21.5,0 -64.5,0 -107.3,0 -42.9,0 -85.5,0 -128.4,0 -42.8,0 -85.8,0 -128.6,0 -42.9,0 -85.5,0 -128.4,0 -42.8,0 -85.8,0 -128.6,0 -42.9,0 -85.5,0 -128.4,0 C 86,601 43,601 21.5,601 H 0 Z"
     fill="#dd973b"
     id="path828"
     clip-path="url(#clipPath1891)"
     transform="translate(-357.09253,-410.42587)" />
  <path class="turquoise-path"
     d="m 0,480 21.5,-1.7 c 21.5,-1.6 64.5,-5 107.3,-5.5 42.9,-0.5 85.5,1.9 128.4,6.9 42.8,5 85.8,12.6 128.6,12.1 42.9,-0.5 85.5,-9.1 128.4,-13.3 42.8,-4.2 85.8,-3.8 128.6,-0.3 42.9,3.5 85.5,10.1 128.4,9.1 42.8,-1 85.8,-9.6 107.3,-14 L 900,469 v 132 h -21.5 c -21.5,0 -64.5,0 -107.3,0 -42.9,0 -85.5,0 -128.4,0 -42.8,0 -85.8,0 -128.6,0 -42.9,0 -85.5,0 -128.4,0 -42.8,0 -85.8,0 -128.6,0 -42.9,0 -85.5,0 -128.4,0 C 86,601 43,601 21.5,601 H 0 Z"
     fill="#438fba"
     id="path830"
     clip-path="url(#clipPath1887)"
     transform="translate(-357.09253,-410.42587)" />
  <path class="blue-path"
     d="m 0,502 h 21.5 c 21.5,0 64.5,0 107.3,-3.2 42.9,-3.1 85.5,-9.5 128.4,-13 42.8,-3.5 85.8,-4.1 128.6,5.4 42.9,9.5 85.5,29.1 128.4,32.1 42.8,3 85.8,-10.6 128.6,-16.1 42.9,-5.5 85.5,-2.9 128.4,-6 C 814,498 857,489 878.5,484.5 L 900,480 v 121 h -21.5 c -21.5,0 -64.5,0 -107.3,0 -42.9,0 -85.5,0 -128.4,0 -42.8,0 -85.8,0 -128.6,0 -42.9,0 -85.5,0 -128.4,0 -42.8,0 -85.8,0 -128.6,0 -42.9,0 -85.5,0 -128.4,0 C 86,601 43,601 21.5,601 H 0 Z"
     fill="#33699e"
     id="path832"
     clip-path="url(#clipPath1883)"
     transform="translate(-357.09253,-410.42587)" />
  <path class="navy-path"
     d="m 0,558 21.5,-3.5 C 43,551 86,544 128.8,545.3 c 42.9,1.4 85.5,11 128.4,15.5 42.8,4.5 85.8,3.9 128.6,-2.8 42.9,-6.7 85.5,-19.3 128.4,-18.5 42.8,0.8 85.8,15.2 128.6,19.7 42.9,4.5 85.5,-0.9 128.4,-2 42.8,-1.2 85.8,1.8 107.3,3.3 L 900,562 v 39 h -21.5 c -21.5,0 -64.5,0 -107.3,0 -42.9,0 -85.5,0 -128.4,0 -42.8,0 -85.8,0 -128.6,0 -42.9,0 -85.5,0 -128.4,0 -42.8,0 -85.8,0 -128.6,0 -42.9,0 -85.5,0 -128.4,0 C 86,601 43,601 21.5,601 H 0 Z"
     fill="#001220"
     id="path834"
     clip-path="url(#clipPath1879)"
     style="fill:#213545;fill-opacity:1"
     transform="translate(-357.09253,-410.42587)" />
</svg>
