<svg
   id="visual"
   viewBox="0 0 900 203.5"
   width="900"
   height="203.5"
   version="1.1"
   xmlns:inkscape="http://www.inkscape.org/namespaces/inkscape"
   xmlns="http://www.w3.org/2000/svg">
  <defs
     id="defs2208">
    <clipPath
       clipPathUnits="userSpaceOnUse"
       id="clipPath1050">
      <path
         d="m 0,558 21.5,-3.5 C 43,551 86,544 128.8,545.3 c 42.9,1.4 85.5,11 128.4,15.5 42.8,4.5 85.8,3.9 128.6,-2.8 42.9,-6.7 85.5,-19.3 128.4,-18.5 42.8,0.8 85.8,15.2 128.6,19.7 42.9,4.5 85.5,-0.9 128.4,-2 42.8,-1.2 85.8,1.8 107.3,3.3 L 900,562 v 39 h -21.5 c -21.5,0 -64.5,0 -107.3,0 -42.9,0 -85.5,0 -128.4,0 -42.8,0 -85.8,0 -128.6,0 -42.9,0 -85.5,0 -128.4,0 -42.8,0 -85.8,0 -128.6,0 -42.9,0 -85.5,0 -128.4,0 C 86,601 43,601 21.5,601 H 0 Z"
         fill="#fafafa"
         id="path1052"
         style="display:none;fill:#ffffff;fill-opacity:1" />
      <path
         id="lpe_path-effect1066"
         style="fill:#ffffff;fill-opacity:1"
         class="powerclip"
         d="M -5,475 H 905 V 606 H -5 Z m 5,83 v 43 h 21.5 c 21.5,0 64.5,0 107.3,0 42.9,0 85.5,0 128.4,0 42.8,0 85.8,0 128.6,0 42.9,0 85.5,0 128.4,0 42.8,0 85.8,0 128.6,0 42.9,0 85.5,0 128.4,0 42.8,0 85.8,0 107.3,0 H 900 v -39 l -21.5,-1.5 C 857,559 814,556 771.2,557.2 c -42.9,1.1 -85.5,6.5 -128.4,2 C 600,554.7 557,540.3 514.2,539.5 471.3,538.7 428.7,551.3 385.8,558 343,564.7 300,565.3 257.2,560.8 214.3,556.3 171.7,546.7 128.8,545.3 86,544 43,551 21.5,554.5 Z" />
    </clipPath>
    <clipPath
       clipPathUnits="userSpaceOnUse"
       id="clipPath1054">
      <path
         d="m 0,558 21.5,-3.5 C 43,551 86,544 128.8,545.3 c 42.9,1.4 85.5,11 128.4,15.5 42.8,4.5 85.8,3.9 128.6,-2.8 42.9,-6.7 85.5,-19.3 128.4,-18.5 42.8,0.8 85.8,15.2 128.6,19.7 42.9,4.5 85.5,-0.9 128.4,-2 42.8,-1.2 85.8,1.8 107.3,3.3 L 900,562 v 39 h -21.5 c -21.5,0 -64.5,0 -107.3,0 -42.9,0 -85.5,0 -128.4,0 -42.8,0 -85.8,0 -128.6,0 -42.9,0 -85.5,0 -128.4,0 -42.8,0 -85.8,0 -128.6,0 -42.9,0 -85.5,0 -128.4,0 C 86,601 43,601 21.5,601 H 0 Z"
         fill="#fafafa"
         id="path1056"
         style="display:none;fill:#ffffff;fill-opacity:1" />
      <path
         id="lpe_path-effect1070"
         style="fill:#ffffff;fill-opacity:1"
         class="powerclip"
         d="M -5,464 H 905 V 606 H -5 Z m 5,94 v 43 h 21.5 c 21.5,0 64.5,0 107.3,0 42.9,0 85.5,0 128.4,0 42.8,0 85.8,0 128.6,0 42.9,0 85.5,0 128.4,0 42.8,0 85.8,0 128.6,0 42.9,0 85.5,0 128.4,0 42.8,0 85.8,0 107.3,0 H 900 v -39 l -21.5,-1.5 C 857,559 814,556 771.2,557.2 c -42.9,1.1 -85.5,6.5 -128.4,2 C 600,554.7 557,540.3 514.2,539.5 471.3,538.7 428.7,551.3 385.8,558 343,564.7 300,565.3 257.2,560.8 214.3,556.3 171.7,546.7 128.8,545.3 86,544 43,551 21.5,554.5 Z" />
    </clipPath>
    <clipPath
       clipPathUnits="userSpaceOnUse"
       id="clipPath1058">
      <path
         d="m 0,558 21.5,-3.5 C 43,551 86,544 128.8,545.3 c 42.9,1.4 85.5,11 128.4,15.5 42.8,4.5 85.8,3.9 128.6,-2.8 42.9,-6.7 85.5,-19.3 128.4,-18.5 42.8,0.8 85.8,15.2 128.6,19.7 42.9,4.5 85.5,-0.9 128.4,-2 42.8,-1.2 85.8,1.8 107.3,3.3 L 900,562 v 39 h -21.5 c -21.5,0 -64.5,0 -107.3,0 -42.9,0 -85.5,0 -128.4,0 -42.8,0 -85.8,0 -128.6,0 -42.9,0 -85.5,0 -128.4,0 -42.8,0 -85.8,0 -128.6,0 -42.9,0 -85.5,0 -128.4,0 C 86,601 43,601 21.5,601 H 0 Z"
         fill="#fafafa"
         id="path1060"
         style="display:none;fill:#ffffff;fill-opacity:1" />
      <path
         id="lpe_path-effect1074"
         style="fill:#ffffff;fill-opacity:1"
         class="powerclip"
         d="M -5,402.29341 H 905 V 606 H -5 Z M 0,558 v 43 h 21.5 c 21.5,0 64.5,0 107.3,0 42.9,0 85.5,0 128.4,0 42.8,0 85.8,0 128.6,0 42.9,0 85.5,0 128.4,0 42.8,0 85.8,0 128.6,0 42.9,0 85.5,0 128.4,0 42.8,0 85.8,0 107.3,0 H 900 v -39 l -21.5,-1.5 C 857,559 814,556 771.2,557.2 c -42.9,1.1 -85.5,6.5 -128.4,2 C 600,554.7 557,540.3 514.2,539.5 471.3,538.7 428.7,551.3 385.8,558 343,564.7 300,565.3 257.2,560.8 214.3,556.3 171.7,546.7 128.8,545.3 86,544 43,551 21.5,554.5 Z" />
    </clipPath>
    <clipPath
       clipPathUnits="userSpaceOnUse"
       id="clipPath1062">
      <path
         d="m 0,558 21.5,-3.5 C 43,551 86,544 128.8,545.3 c 42.9,1.4 85.5,11 128.4,15.5 42.8,4.5 85.8,3.9 128.6,-2.8 42.9,-6.7 85.5,-19.3 128.4,-18.5 42.8,0.8 85.8,15.2 128.6,19.7 42.9,4.5 85.5,-0.9 128.4,-2 42.8,-1.2 85.8,1.8 107.3,3.3 L 900,562 v 39 h -21.5 c -21.5,0 -64.5,0 -107.3,0 -42.9,0 -85.5,0 -128.4,0 -42.8,0 -85.8,0 -128.6,0 -42.9,0 -85.5,0 -128.4,0 -42.8,0 -85.8,0 -128.6,0 -42.9,0 -85.5,0 -128.4,0 C 86,601 43,601 21.5,601 H 0 Z"
         fill="#fafafa"
         id="path1064"
         style="display:none;fill:#ffffff;fill-opacity:1" />
      <path
         id="lpe_path-effect1078"
         style="fill:#ffffff;fill-opacity:1"
         class="powerclip"
         d="M -5,355 H 905 V 606 H -5 Z m 5,203 v 43 h 21.5 c 21.5,0 64.5,0 107.3,0 42.9,0 85.5,0 128.4,0 42.8,0 85.8,0 128.6,0 42.9,0 85.5,0 128.4,0 42.8,0 85.8,0 128.6,0 42.9,0 85.5,0 128.4,0 42.8,0 85.8,0 107.3,0 H 900 v -39 l -21.5,-1.5 C 857,559 814,556 771.2,557.2 c -42.9,1.1 -85.5,6.5 -128.4,2 C 600,554.7 557,540.3 514.2,539.5 471.3,538.7 428.7,551.3 385.8,558 343,564.7 300,565.3 257.2,560.8 214.3,556.3 171.7,546.7 128.8,545.3 86,544 43,551 21.5,554.5 Z" />
    </clipPath>
  </defs>
  <rect
     style="fill:none;fill-opacity:1;stroke:#9dbed1;stroke-width:0.623622;stroke-linecap:round;stroke-linejoin:round;paint-order:markers fill stroke"
     id="rect1278"
     width="1022.7875"
     height="658.63715"
     x="-56.997448"
     y="-401.16483" />
  <path
     d="m 0,389 21.5,1 c 21.5,1 64.5,3 107.3,12.2 42.9,9.1 85.5,25.5 128.4,28.8 42.8,3.3 85.8,-6.3 128.6,-13.2 42.9,-6.8 85.5,-10.8 128.4,-17.8 42.8,-7 85.8,-17 128.6,-16.2 42.9,0.9 85.5,12.5 128.4,10.4 C 814,392 857,376 878.5,368 l 21.5,-8 v 241 h -21.5 c -21.5,0 -64.5,0 -107.3,0 -42.9,0 -85.5,0 -128.4,0 -42.8,0 -85.8,0 -128.6,0 -42.9,0 -85.5,0 -128.4,0 -42.8,0 -85.8,0 -128.6,0 -42.9,0 -85.5,0 -128.4,0 C 86,601 43,601 21.5,601 H 0 Z"
     fill="#c26b28"
     id="path2195"
     clip-path="url(#clipPath1062)"
     transform="translate(0,-360)" />
  <path
     d="m 0,429 21.5,-5.3 c 21.5,-5.4 64.5,-16 107.3,-16.4 42.9,-0.3 85.5,9.7 128.4,17.5 42.8,7.9 85.8,13.5 128.6,20.7 42.9,7.2 85.5,15.8 128.4,14.3 42.8,-1.5 85.8,-13.1 128.6,-21.1 42.9,-8 85.5,-12.4 128.4,-6.2 42.8,6.2 85.8,22.8 107.3,31.2 L 900,472 v 129 h -21.5 c -21.5,0 -64.5,0 -107.3,0 -42.9,0 -85.5,0 -128.4,0 -42.8,0 -85.8,0 -128.6,0 -42.9,0 -85.5,0 -128.4,0 -42.8,0 -85.8,0 -128.6,0 -42.9,0 -85.5,0 -128.4,0 C 86,601 43,601 21.5,601 H 0 Z"
     fill="#dd973b"
     id="path2197"
     clip-path="url(#clipPath1058)"
     transform="translate(0,-360)" />
  <path
     d="m 0,480 21.5,-1.7 c 21.5,-1.6 64.5,-5 107.3,-5.5 42.9,-0.5 85.5,1.9 128.4,6.9 42.8,5 85.8,12.6 128.6,12.1 42.9,-0.5 85.5,-9.1 128.4,-13.3 42.8,-4.2 85.8,-3.8 128.6,-0.3 42.9,3.5 85.5,10.1 128.4,9.1 42.8,-1 85.8,-9.6 107.3,-14 L 900,469 v 132 h -21.5 c -21.5,0 -64.5,0 -107.3,0 -42.9,0 -85.5,0 -128.4,0 -42.8,0 -85.8,0 -128.6,0 -42.9,0 -85.5,0 -128.4,0 -42.8,0 -85.8,0 -128.6,0 -42.9,0 -85.5,0 -128.4,0 C 86,601 43,601 21.5,601 H 0 Z"
     fill="#438fba"
     id="path2199"
     clip-path="url(#clipPath1054)"
     transform="translate(0,-360)" />
  <path
     d="m 0,502 h 21.5 c 21.5,0 64.5,0 107.3,-3.2 42.9,-3.1 85.5,-9.5 128.4,-13 42.8,-3.5 85.8,-4.1 128.6,5.4 42.9,9.5 85.5,29.1 128.4,32.1 42.8,3 85.8,-10.6 128.6,-16.1 42.9,-5.5 85.5,-2.9 128.4,-6 C 814,498 857,489 878.5,484.5 L 900,480 v 121 h -21.5 c -21.5,0 -64.5,0 -107.3,0 -42.9,0 -85.5,0 -128.4,0 -42.8,0 -85.8,0 -128.6,0 -42.9,0 -85.5,0 -128.4,0 -42.8,0 -85.8,0 -128.6,0 -42.9,0 -85.5,0 -128.4,0 C 86,601 43,601 21.5,601 H 0 Z"
     fill="#33699e"
     id="path2201"
     clip-path="url(#clipPath1050)"
     transform="translate(0,-360)" />
</svg>
