<svg width="1068" height="860" viewBox="0 0 1068 860" fill="none" xmlns="http://www.w3.org/2000/svg">
<path d="M973.758 622.266V127.866C973.758 98.7281 962.175 70.7831 941.557 50.1791C920.94 29.5752 892.976 18 863.818 18H204.182C175.024 18 147.06 29.5752 126.443 50.1791C105.825 70.7831 94.2421 98.7281 94.2421 127.866V622.266M973.758 622.266H94.2421M973.758 622.266L1044.12 762.345C1048.36 770.749 1050.36 780.101 1049.95 789.502C1049.53 798.904 1046.7 808.041 1041.73 816.037C1036.77 824.032 1029.83 830.619 1021.58 835.165C1013.34 839.711 1004.06 842.064 994.646 841.999H73.3536C63.9367 842.064 54.6609 839.711 46.4154 835.165C38.17 830.619 31.2315 824.032 26.2652 816.037C21.299 808.041 18.4716 798.904 18.0541 789.502C17.6365 780.101 19.6429 770.749 23.8809 762.345L94.2421 622.266" stroke="#DD973C" stroke-width="36" stroke-linecap="round" stroke-linejoin="round"/>
<path d="M823.778 252H244.222C224.217 252 208 272.147 208 297V522C208 546.853 224.217 567 244.222 567H823.778C843.783 567 860 546.853 860 522V297C860 272.147 843.783 252 823.778 252Z" stroke="#448FBB" stroke-width="18" stroke-linecap="round" stroke-linejoin="round"/>
<path d="M823.778 64H244.222C224.217 64 208 94.2298 208 106.222V177.397C208 189.389 224.217 216 244.222 216H823.778C843.783 216 860 189.389 860 177.397V106.222C860 94.2298 843.783 64 823.778 64Z" stroke="#448FBB" stroke-width="18" stroke-linecap="round" stroke-linejoin="round"/>
<rect x="256" y="100" width="459" height="80" rx="10" stroke="black" stroke-width="8"/>
<path d="M281.023 157L274.477 130.818H283.886L286.886 146.773H287.091L290.432 130.818H299.568L303.045 146.636H303.25L306.114 130.818H315.523L308.977 157H298.818L295.136 142.955H294.864L291.182 157H281.023ZM325.682 157.409C324.011 157.409 322.534 157.136 321.25 156.591C319.977 156.034 318.977 155.193 318.25 154.068C317.523 152.943 317.159 151.511 317.159 149.773C317.159 148.341 317.403 147.119 317.892 146.108C318.381 145.085 319.062 144.25 319.938 143.602C320.812 142.955 321.83 142.46 322.989 142.119C324.159 141.778 325.42 141.557 326.773 141.455C328.239 141.341 329.415 141.205 330.301 141.045C331.199 140.875 331.847 140.642 332.244 140.347C332.642 140.04 332.841 139.636 332.841 139.136V139.068C332.841 138.386 332.58 137.864 332.057 137.5C331.534 137.136 330.864 136.955 330.045 136.955C329.148 136.955 328.415 137.153 327.847 137.551C327.29 137.937 326.955 138.534 326.841 139.341H318.182C318.295 137.75 318.801 136.284 319.699 134.943C320.608 133.591 321.932 132.511 323.67 131.705C325.409 130.886 327.58 130.477 330.182 130.477C332.057 130.477 333.739 130.699 335.227 131.142C336.716 131.574 337.983 132.182 339.028 132.966C340.074 133.739 340.869 134.648 341.415 135.693C341.972 136.727 342.25 137.852 342.25 139.068V157H333.455V153.318H333.25C332.727 154.295 332.091 155.085 331.341 155.688C330.602 156.29 329.756 156.727 328.801 157C327.858 157.273 326.818 157.409 325.682 157.409ZM328.75 151.477C329.466 151.477 330.136 151.33 330.761 151.034C331.398 150.739 331.915 150.312 332.312 149.756C332.71 149.199 332.909 148.523 332.909 147.727V145.545C332.659 145.648 332.392 145.744 332.108 145.835C331.835 145.926 331.54 146.011 331.222 146.091C330.915 146.17 330.585 146.244 330.233 146.312C329.892 146.381 329.534 146.443 329.159 146.5C328.432 146.614 327.835 146.801 327.369 147.062C326.915 147.312 326.574 147.625 326.347 148C326.131 148.364 326.023 148.773 326.023 149.227C326.023 149.955 326.278 150.511 326.79 150.898C327.301 151.284 327.955 151.477 328.75 151.477ZM362.359 130.818V137.636H345.109V130.818H362.359ZM348.45 124.545H357.859V148.58C357.859 148.943 357.922 149.25 358.047 149.5C358.172 149.739 358.365 149.92 358.626 150.045C358.888 150.159 359.223 150.216 359.632 150.216C359.916 150.216 360.246 150.182 360.621 150.114C361.007 150.045 361.291 149.989 361.473 149.943L362.837 156.557C362.416 156.682 361.814 156.835 361.03 157.017C360.257 157.199 359.337 157.318 358.268 157.375C356.109 157.489 354.297 157.267 352.831 156.71C351.365 156.142 350.263 155.25 349.524 154.034C348.786 152.818 348.428 151.295 348.45 149.466V124.545ZM378.463 157.477C375.668 157.477 373.259 156.943 371.236 155.875C369.224 154.795 367.673 153.25 366.582 151.239C365.503 149.216 364.963 146.795 364.963 143.977C364.963 141.273 365.509 138.909 366.599 136.886C367.69 134.864 369.23 133.29 371.219 132.165C373.207 131.04 375.554 130.477 378.259 130.477C380.236 130.477 382.026 130.784 383.628 131.398C385.23 132.011 386.599 132.903 387.736 134.074C388.872 135.233 389.747 136.642 390.361 138.301C390.974 139.96 391.281 141.83 391.281 143.909V146.091H367.895V140.909H382.622C382.611 140.159 382.418 139.5 382.043 138.932C381.679 138.352 381.185 137.903 380.56 137.585C379.946 137.256 379.247 137.091 378.463 137.091C377.702 137.091 377.003 137.256 376.366 137.585C375.73 137.903 375.219 138.347 374.832 138.915C374.457 139.483 374.259 140.148 374.236 140.909V146.5C374.236 147.341 374.412 148.091 374.764 148.75C375.116 149.409 375.622 149.926 376.281 150.301C376.94 150.676 377.736 150.864 378.668 150.864C379.315 150.864 379.906 150.773 380.44 150.591C380.986 150.409 381.452 150.148 381.838 149.807C382.224 149.455 382.509 149.034 382.69 148.545H391.281C390.986 150.364 390.287 151.943 389.185 153.284C388.082 154.614 386.622 155.648 384.804 156.386C382.997 157.114 380.884 157.477 378.463 157.477ZM395.121 157V130.818H404.257V135.795H404.53C405.007 133.955 405.763 132.608 406.797 131.756C407.842 130.903 409.064 130.477 410.462 130.477C410.871 130.477 411.274 130.511 411.672 130.58C412.081 130.636 412.473 130.722 412.848 130.835V138.864C412.382 138.705 411.808 138.585 411.126 138.506C410.445 138.426 409.859 138.386 409.371 138.386C408.45 138.386 407.621 138.597 406.882 139.017C406.155 139.426 405.581 140.006 405.161 140.756C404.74 141.494 404.53 142.364 404.53 143.364V157H395.121ZM439.865 139.341H431.206C431.161 138.807 430.973 138.347 430.643 137.96C430.314 137.574 429.888 137.278 429.365 137.074C428.854 136.858 428.286 136.75 427.661 136.75C426.854 136.75 426.161 136.898 425.581 137.193C425.001 137.489 424.717 137.909 424.729 138.455C424.717 138.841 424.882 139.199 425.223 139.528C425.575 139.858 426.251 140.114 427.251 140.295L432.57 141.25C435.251 141.739 437.246 142.562 438.553 143.722C439.871 144.869 440.536 146.409 440.547 148.341C440.536 150.205 439.979 151.824 438.876 153.199C437.786 154.562 436.291 155.619 434.393 156.369C432.507 157.108 430.354 157.477 427.933 157.477C423.933 157.477 420.803 156.659 418.541 155.023C416.291 153.386 415.036 151.227 414.774 148.545H424.115C424.24 149.375 424.649 150.017 425.342 150.472C426.047 150.915 426.933 151.136 428.001 151.136C428.865 151.136 429.575 150.989 430.132 150.693C430.7 150.398 430.99 149.977 431.001 149.432C430.99 148.932 430.74 148.534 430.251 148.239C429.774 147.943 429.024 147.705 428.001 147.523L423.365 146.705C420.695 146.239 418.695 145.352 417.365 144.045C416.036 142.739 415.376 141.057 415.388 139C415.376 137.182 415.854 135.642 416.82 134.381C417.797 133.108 419.189 132.142 420.996 131.483C422.814 130.812 424.967 130.477 427.456 130.477C431.24 130.477 434.223 131.261 436.405 132.83C438.598 134.398 439.751 136.568 439.865 139.341ZM453.561 122.091V157H444.152V122.091H453.561ZM458.355 157V130.818H467.764V157H458.355ZM463.06 128.091C461.787 128.091 460.696 127.67 459.787 126.83C458.878 125.989 458.423 124.977 458.423 123.795C458.423 122.614 458.878 121.602 459.787 120.761C460.696 119.92 461.787 119.5 463.06 119.5C464.344 119.5 465.435 119.92 466.332 120.761C467.241 121.602 467.696 122.614 467.696 123.795C467.696 124.977 467.241 125.989 466.332 126.83C465.435 127.67 464.344 128.091 463.06 128.091ZM482.036 157.341C480.172 157.341 478.456 156.852 476.888 155.875C475.331 154.898 474.081 153.415 473.138 151.426C472.206 149.437 471.74 146.932 471.74 143.909C471.74 140.75 472.229 138.182 473.206 136.205C474.195 134.227 475.467 132.778 477.024 131.858C478.592 130.938 480.24 130.477 481.967 130.477C483.263 130.477 484.399 130.705 485.376 131.159C486.354 131.602 487.172 132.199 487.831 132.949C488.49 133.687 488.99 134.5 489.331 135.386H489.467V122.091H498.876V157H489.536V152.705H489.331C488.967 153.591 488.445 154.386 487.763 155.091C487.092 155.784 486.274 156.335 485.308 156.744C484.354 157.142 483.263 157.341 482.036 157.341ZM485.513 150.114C486.376 150.114 487.115 149.864 487.729 149.364C488.354 148.852 488.831 148.136 489.161 147.216C489.501 146.284 489.672 145.182 489.672 143.909C489.672 142.614 489.501 141.506 489.161 140.585C488.831 139.653 488.354 138.943 487.729 138.455C487.115 137.955 486.376 137.705 485.513 137.705C484.649 137.705 483.911 137.955 483.297 138.455C482.695 138.943 482.229 139.653 481.899 140.585C481.581 141.506 481.422 142.614 481.422 143.909C481.422 145.205 481.581 146.318 481.899 147.25C482.229 148.17 482.695 148.881 483.297 149.381C483.911 149.869 484.649 150.114 485.513 150.114ZM516.041 157.477C513.246 157.477 510.837 156.943 508.814 155.875C506.803 154.795 505.251 153.25 504.161 151.239C503.081 149.216 502.541 146.795 502.541 143.977C502.541 141.273 503.087 138.909 504.178 136.886C505.268 134.864 506.808 133.29 508.797 132.165C510.786 131.04 513.132 130.477 515.837 130.477C517.814 130.477 519.604 130.784 521.206 131.398C522.808 132.011 524.178 132.903 525.314 134.074C526.45 135.233 527.325 136.642 527.939 138.301C528.553 139.96 528.859 141.83 528.859 143.909V146.091H505.473V140.909H520.2C520.189 140.159 519.996 139.5 519.621 138.932C519.257 138.352 518.763 137.903 518.138 137.585C517.524 137.256 516.825 137.091 516.041 137.091C515.28 137.091 514.581 137.256 513.945 137.585C513.308 137.903 512.797 138.347 512.411 138.915C512.036 139.483 511.837 140.148 511.814 140.909V146.5C511.814 147.341 511.99 148.091 512.342 148.75C512.695 149.409 513.2 149.926 513.859 150.301C514.518 150.676 515.314 150.864 516.246 150.864C516.893 150.864 517.484 150.773 518.018 150.591C518.564 150.409 519.03 150.148 519.416 149.807C519.803 149.455 520.087 149.034 520.268 148.545H528.859C528.564 150.364 527.865 151.943 526.763 153.284C525.661 154.614 524.2 155.648 522.382 156.386C520.575 157.114 518.462 157.477 516.041 157.477ZM556.631 139.341H547.972C547.926 138.807 547.739 138.347 547.409 137.96C547.08 137.574 546.653 137.278 546.131 137.074C545.619 136.858 545.051 136.75 544.426 136.75C543.619 136.75 542.926 136.898 542.347 137.193C541.767 137.489 541.483 137.909 541.494 138.455C541.483 138.841 541.648 139.199 541.989 139.528C542.341 139.858 543.017 140.114 544.017 140.295L549.335 141.25C552.017 141.739 554.011 142.562 555.318 143.722C556.636 144.869 557.301 146.409 557.312 148.341C557.301 150.205 556.744 151.824 555.642 153.199C554.551 154.562 553.057 155.619 551.159 156.369C549.273 157.108 547.119 157.477 544.699 157.477C540.699 157.477 537.568 156.659 535.307 155.023C533.057 153.386 531.801 151.227 531.54 148.545H540.881C541.006 149.375 541.415 150.017 542.108 150.472C542.813 150.915 543.699 151.136 544.767 151.136C545.631 151.136 546.341 150.989 546.898 150.693C547.466 150.398 547.756 149.977 547.767 149.432C547.756 148.932 547.506 148.534 547.017 148.239C546.54 147.943 545.79 147.705 544.767 147.523L540.131 146.705C537.46 146.239 535.46 145.352 534.131 144.045C532.801 142.739 532.142 141.057 532.153 139C532.142 137.182 532.619 135.642 533.585 134.381C534.563 133.108 535.955 132.142 537.761 131.483C539.58 130.812 541.733 130.477 544.222 130.477C548.006 130.477 550.989 131.261 553.17 132.83C555.364 134.398 556.517 136.568 556.631 139.341Z" fill="black"/>
<path d="M344.006 386.591C342.631 386.591 341.376 386.256 340.239 385.585C339.103 384.903 338.194 383.994 337.512 382.858C336.842 381.722 336.506 380.466 336.506 379.091C336.506 377.705 336.842 376.449 337.512 375.324C338.194 374.187 339.103 373.284 340.239 372.614C341.376 371.932 342.631 371.591 344.006 371.591C345.393 371.591 346.648 371.932 347.773 372.614C348.91 373.284 349.813 374.187 350.484 375.324C351.165 376.449 351.506 377.705 351.506 379.091C351.506 380.466 351.165 381.722 350.484 382.858C349.813 383.994 348.91 384.903 347.773 385.585C346.648 386.256 345.393 386.591 344.006 386.591ZM387.023 393L380.477 366.818H389.886L392.886 382.773H393.091L396.432 366.818H405.568L409.045 382.636H409.25L412.114 366.818H421.523L414.977 393H404.818L401.136 378.955H400.864L397.182 393H387.023ZM424.386 393V366.818H433.523V371.795H433.795C434.273 369.955 435.028 368.608 436.062 367.756C437.108 366.903 438.33 366.477 439.727 366.477C440.136 366.477 440.54 366.511 440.938 366.58C441.347 366.636 441.739 366.722 442.114 366.835V374.864C441.648 374.705 441.074 374.585 440.392 374.506C439.71 374.426 439.125 374.386 438.636 374.386C437.716 374.386 436.886 374.597 436.148 375.017C435.42 375.426 434.847 376.006 434.426 376.756C434.006 377.494 433.795 378.364 433.795 379.364V393H424.386ZM445.199 393V366.818H454.608V393H445.199ZM449.903 364.091C448.631 364.091 447.54 363.67 446.631 362.83C445.722 361.989 445.267 360.977 445.267 359.795C445.267 358.614 445.722 357.602 446.631 356.761C447.54 355.92 448.631 355.5 449.903 355.5C451.188 355.5 452.278 355.92 453.176 356.761C454.085 357.602 454.54 358.614 454.54 359.795C454.54 360.977 454.085 361.989 453.176 362.83C452.278 363.67 451.188 364.091 449.903 364.091ZM475.016 366.818V373.636H457.766V366.818H475.016ZM461.107 360.545H470.516V384.58C470.516 384.943 470.578 385.25 470.703 385.5C470.828 385.739 471.021 385.92 471.283 386.045C471.544 386.159 471.879 386.216 472.288 386.216C472.572 386.216 472.902 386.182 473.277 386.114C473.663 386.045 473.947 385.989 474.129 385.943L475.493 392.557C475.072 392.682 474.47 392.835 473.686 393.017C472.913 393.199 471.993 393.318 470.925 393.375C468.766 393.489 466.953 393.267 465.487 392.71C464.021 392.142 462.919 391.25 462.18 390.034C461.442 388.818 461.084 387.295 461.107 385.466V360.545ZM491.119 393.477C488.324 393.477 485.915 392.943 483.892 391.875C481.881 390.795 480.33 389.25 479.239 387.239C478.159 385.216 477.619 382.795 477.619 379.977C477.619 377.273 478.165 374.909 479.256 372.886C480.347 370.864 481.886 369.29 483.875 368.165C485.864 367.04 488.21 366.477 490.915 366.477C492.892 366.477 494.682 366.784 496.284 367.398C497.886 368.011 499.256 368.903 500.392 370.074C501.528 371.233 502.403 372.642 503.017 374.301C503.631 375.96 503.938 377.83 503.938 379.909V382.091H480.551V376.909H495.278C495.267 376.159 495.074 375.5 494.699 374.932C494.335 374.352 493.841 373.903 493.216 373.585C492.602 373.256 491.903 373.091 491.119 373.091C490.358 373.091 489.659 373.256 489.023 373.585C488.386 373.903 487.875 374.347 487.489 374.915C487.114 375.483 486.915 376.148 486.892 376.909V382.5C486.892 383.341 487.068 384.091 487.42 384.75C487.773 385.409 488.278 385.926 488.938 386.301C489.597 386.676 490.392 386.864 491.324 386.864C491.972 386.864 492.563 386.773 493.097 386.591C493.642 386.409 494.108 386.148 494.494 385.807C494.881 385.455 495.165 385.034 495.347 384.545H503.938C503.642 386.364 502.943 387.943 501.841 389.284C500.739 390.614 499.278 391.648 497.46 392.386C495.653 393.114 493.54 393.477 491.119 393.477ZM532.953 366.818V373.636H515.703V366.818H532.953ZM519.044 360.545H528.453V384.58C528.453 384.943 528.516 385.25 528.641 385.5C528.766 385.739 528.959 385.92 529.22 386.045C529.482 386.159 529.817 386.216 530.226 386.216C530.51 386.216 530.839 386.182 531.214 386.114C531.601 386.045 531.885 385.989 532.067 385.943L533.43 392.557C533.01 392.682 532.408 392.835 531.624 393.017C530.851 393.199 529.93 393.318 528.862 393.375C526.703 393.489 524.891 393.267 523.425 392.71C521.959 392.142 520.857 391.25 520.118 390.034C519.379 388.818 519.021 387.295 519.044 385.466V360.545ZM544.088 393.409C542.418 393.409 540.94 393.136 539.656 392.591C538.384 392.034 537.384 391.193 536.656 390.068C535.929 388.943 535.565 387.511 535.565 385.773C535.565 384.341 535.81 383.119 536.298 382.108C536.787 381.085 537.469 380.25 538.344 379.602C539.219 378.955 540.236 378.46 541.395 378.119C542.565 377.778 543.827 377.557 545.179 377.455C546.645 377.341 547.821 377.205 548.707 377.045C549.605 376.875 550.253 376.642 550.651 376.347C551.048 376.04 551.247 375.636 551.247 375.136V375.068C551.247 374.386 550.986 373.864 550.463 373.5C549.94 373.136 549.27 372.955 548.452 372.955C547.554 372.955 546.821 373.153 546.253 373.551C545.696 373.937 545.361 374.534 545.247 375.341H536.588C536.702 373.75 537.207 372.284 538.105 370.943C539.014 369.591 540.338 368.511 542.077 367.705C543.815 366.886 545.986 366.477 548.588 366.477C550.463 366.477 552.145 366.699 553.634 367.142C555.122 367.574 556.389 368.182 557.435 368.966C558.48 369.739 559.276 370.648 559.821 371.693C560.378 372.727 560.656 373.852 560.656 375.068V393H551.861V389.318H551.656C551.134 390.295 550.497 391.085 549.747 391.688C549.009 392.29 548.162 392.727 547.207 393C546.264 393.273 545.224 393.409 544.088 393.409ZM547.156 387.477C547.872 387.477 548.543 387.33 549.168 387.034C549.804 386.739 550.321 386.312 550.719 385.756C551.116 385.199 551.315 384.523 551.315 383.727V381.545C551.065 381.648 550.798 381.744 550.514 381.835C550.241 381.926 549.946 382.011 549.628 382.091C549.321 382.17 548.991 382.244 548.639 382.312C548.298 382.381 547.94 382.443 547.565 382.5C546.838 382.614 546.241 382.801 545.776 383.062C545.321 383.312 544.98 383.625 544.753 384C544.537 384.364 544.429 384.773 544.429 385.227C544.429 385.955 544.685 386.511 545.196 386.898C545.707 387.284 546.361 387.477 547.156 387.477ZM574.561 358.091V393H565.152V358.091H574.561ZM587.81 386.795L587.878 375.614H589.105L595.446 366.818H606.014L595.378 380.523H592.719L587.81 386.795ZM579.355 393V358.091H588.764V393H579.355ZM595.514 393L589.514 382.636L595.651 375.955L606.287 393H595.514Z" fill="black"/>
<path d="M275.619 294.909V285.364H313.545V294.909H300.42V329H288.744V294.909H275.619ZM329.195 329.597C325.644 329.597 322.604 328.893 320.076 327.487C317.548 326.067 315.609 324.092 314.259 321.564C312.91 319.021 312.235 316.074 312.235 312.722C312.235 309.369 312.91 306.429 314.259 303.901C315.609 301.358 317.548 299.384 320.076 297.977C322.604 296.557 325.644 295.847 329.195 295.847C332.746 295.847 335.786 296.557 338.315 297.977C340.843 299.384 342.782 301.358 344.131 303.901C345.481 306.429 346.156 309.369 346.156 312.722C346.156 316.074 345.481 319.021 344.131 321.564C342.782 324.092 340.843 326.067 338.315 327.487C335.786 328.893 332.746 329.597 329.195 329.597ZM329.281 320.903C330.275 320.903 331.134 320.57 331.859 319.902C332.583 319.234 333.144 318.283 333.542 317.047C333.94 315.811 334.138 314.341 334.138 312.636C334.138 310.918 333.94 309.447 333.542 308.226C333.144 306.99 332.583 306.038 331.859 305.371C331.134 304.703 330.275 304.369 329.281 304.369C328.229 304.369 327.327 304.703 326.575 305.371C325.822 306.038 325.246 306.99 324.849 308.226C324.451 309.447 324.252 310.918 324.252 312.636C324.252 314.341 324.451 315.811 324.849 317.047C325.246 318.283 325.822 319.234 326.575 319.902C327.327 320.57 328.229 320.903 329.281 320.903ZM374.728 329.426C372.398 329.426 370.254 328.815 368.293 327.594C366.347 326.372 364.785 324.518 363.606 322.033C362.441 319.547 361.859 316.415 361.859 312.636C361.859 308.687 362.469 305.477 363.691 303.006C364.927 300.534 366.518 298.723 368.464 297.572C370.424 296.422 372.484 295.847 374.643 295.847C376.262 295.847 377.683 296.131 378.904 296.699C380.126 297.253 381.148 297.999 381.972 298.936C382.796 299.859 383.421 300.875 383.847 301.983H384.018V285.364H395.779V329H384.103V323.631H383.847C383.393 324.739 382.739 325.733 381.887 326.614C381.049 327.48 380.026 328.169 378.819 328.68C377.626 329.178 376.262 329.426 374.728 329.426ZM379.075 320.392C380.154 320.392 381.077 320.08 381.844 319.455C382.626 318.815 383.222 317.92 383.634 316.77C384.06 315.605 384.273 314.227 384.273 312.636C384.273 311.017 384.06 309.632 383.634 308.482C383.222 307.317 382.626 306.429 381.844 305.818C381.077 305.193 380.154 304.881 379.075 304.881C377.995 304.881 377.072 305.193 376.305 305.818C375.552 306.429 374.969 307.317 374.558 308.482C374.16 309.632 373.961 311.017 373.961 312.636C373.961 314.256 374.16 315.648 374.558 316.812C374.969 317.963 375.552 318.851 376.305 319.476C377.072 320.087 377.995 320.392 379.075 320.392ZM417.32 329.597C413.769 329.597 410.729 328.893 408.201 327.487C405.673 326.067 403.734 324.092 402.384 321.564C401.035 319.021 400.36 316.074 400.36 312.722C400.36 309.369 401.035 306.429 402.384 303.901C403.734 301.358 405.673 299.384 408.201 297.977C410.729 296.557 413.769 295.847 417.32 295.847C420.871 295.847 423.911 296.557 426.44 297.977C428.968 299.384 430.907 301.358 432.256 303.901C433.606 306.429 434.281 309.369 434.281 312.722C434.281 316.074 433.606 319.021 432.256 321.564C430.907 324.092 428.968 326.067 426.44 327.487C423.911 328.893 420.871 329.597 417.32 329.597ZM417.406 320.903C418.4 320.903 419.259 320.57 419.984 319.902C420.708 319.234 421.269 318.283 421.667 317.047C422.065 315.811 422.263 314.341 422.263 312.636C422.263 310.918 422.065 309.447 421.667 308.226C421.269 306.99 420.708 306.038 419.984 305.371C419.259 304.703 418.4 304.369 417.406 304.369C416.354 304.369 415.452 304.703 414.7 305.371C413.947 306.038 413.371 306.99 412.974 308.226C412.576 309.447 412.377 310.918 412.377 312.636C412.377 314.341 412.576 315.811 412.974 317.047C413.371 318.283 413.947 319.234 414.7 319.902C415.452 320.57 416.354 320.903 417.406 320.903Z" fill="black"/>
<path d="M344.006 451.591C342.631 451.591 341.376 451.256 340.239 450.585C339.103 449.903 338.194 448.994 337.512 447.858C336.842 446.722 336.506 445.466 336.506 444.091C336.506 442.705 336.842 441.449 337.512 440.324C338.194 439.187 339.103 438.284 340.239 437.614C341.376 436.932 342.631 436.591 344.006 436.591C345.393 436.591 346.648 436.932 347.773 437.614C348.91 438.284 349.813 439.187 350.484 440.324C351.165 441.449 351.506 442.705 351.506 444.091C351.506 445.466 351.165 446.722 350.484 447.858C349.813 448.994 348.91 449.903 347.773 450.585C346.648 451.256 345.393 451.591 344.006 451.591ZM382.386 467.818V431.818H391.727V436.386H391.932C392.273 435.5 392.773 434.687 393.432 433.949C394.091 433.199 394.909 432.602 395.886 432.159C396.864 431.705 398 431.477 399.295 431.477C401.023 431.477 402.665 431.938 404.222 432.858C405.79 433.778 407.063 435.227 408.04 437.205C409.028 439.182 409.523 441.75 409.523 444.909C409.523 447.932 409.051 450.437 408.108 452.426C407.176 454.415 405.926 455.898 404.358 456.875C402.801 457.852 401.091 458.341 399.227 458.341C398 458.341 396.903 458.142 395.938 457.744C394.983 457.335 394.165 456.784 393.483 456.091C392.813 455.386 392.295 454.591 391.932 453.705H391.795V467.818H382.386ZM391.591 444.909C391.591 446.182 391.756 447.284 392.085 448.216C392.426 449.136 392.903 449.852 393.517 450.364C394.142 450.864 394.886 451.114 395.75 451.114C396.614 451.114 397.347 450.869 397.949 450.381C398.563 449.881 399.028 449.17 399.347 448.25C399.676 447.318 399.841 446.205 399.841 444.909C399.841 443.614 399.676 442.506 399.347 441.585C399.028 440.653 398.563 439.943 397.949 439.455C397.347 438.955 396.614 438.705 395.75 438.705C394.886 438.705 394.142 438.955 393.517 439.455C392.903 439.943 392.426 440.653 392.085 441.585C391.756 442.506 391.591 443.614 391.591 444.909ZM413.464 458V431.818H422.601V436.795H422.874C423.351 434.955 424.107 433.608 425.141 432.756C426.186 431.903 427.408 431.477 428.805 431.477C429.214 431.477 429.618 431.511 430.016 431.58C430.425 431.636 430.817 431.722 431.192 431.835V439.864C430.726 439.705 430.152 439.585 429.47 439.506C428.788 439.426 428.203 439.386 427.714 439.386C426.794 439.386 425.964 439.597 425.226 440.017C424.499 440.426 423.925 441.006 423.504 441.756C423.084 442.494 422.874 443.364 422.874 444.364V458H413.464ZM440.354 458.409C438.683 458.409 437.206 458.136 435.922 457.591C434.649 457.034 433.649 456.193 432.922 455.068C432.195 453.943 431.831 452.511 431.831 450.773C431.831 449.341 432.075 448.119 432.564 447.108C433.053 446.085 433.734 445.25 434.609 444.602C435.484 443.955 436.501 443.46 437.661 443.119C438.831 442.778 440.092 442.557 441.445 442.455C442.911 442.341 444.087 442.205 444.973 442.045C445.871 441.875 446.518 441.642 446.916 441.347C447.314 441.04 447.513 440.636 447.513 440.136V440.068C447.513 439.386 447.251 438.864 446.729 438.5C446.206 438.136 445.536 437.955 444.717 437.955C443.82 437.955 443.087 438.153 442.518 438.551C441.962 438.937 441.626 439.534 441.513 440.341H432.854C432.967 438.75 433.473 437.284 434.371 435.943C435.28 434.591 436.604 433.511 438.342 432.705C440.081 431.886 442.251 431.477 444.854 431.477C446.729 431.477 448.411 431.699 449.899 432.142C451.388 432.574 452.655 433.182 453.7 433.966C454.746 434.739 455.541 435.648 456.087 436.693C456.643 437.727 456.922 438.852 456.922 440.068V458H448.126V454.318H447.922C447.399 455.295 446.763 456.085 446.013 456.688C445.274 457.29 444.428 457.727 443.473 458C442.53 458.273 441.49 458.409 440.354 458.409ZM443.422 452.477C444.138 452.477 444.808 452.33 445.433 452.034C446.07 451.739 446.587 451.312 446.984 450.756C447.382 450.199 447.581 449.523 447.581 448.727V446.545C447.331 446.648 447.064 446.744 446.78 446.835C446.507 446.926 446.212 447.011 445.893 447.091C445.587 447.17 445.257 447.244 444.905 447.312C444.564 447.381 444.206 447.443 443.831 447.5C443.104 447.614 442.507 447.801 442.041 448.062C441.587 448.312 441.246 448.625 441.018 449C440.803 449.364 440.695 449.773 440.695 450.227C440.695 450.955 440.95 451.511 441.462 451.898C441.973 452.284 442.626 452.477 443.422 452.477ZM474.031 458.477C471.19 458.477 468.759 457.915 466.736 456.79C464.713 455.653 463.162 454.074 462.082 452.051C461.003 450.017 460.463 447.659 460.463 444.977C460.463 442.295 461.003 439.943 462.082 437.92C463.162 435.886 464.713 434.307 466.736 433.182C468.759 432.045 471.19 431.477 474.031 431.477C476.599 431.477 478.821 431.943 480.696 432.875C482.582 433.795 484.043 435.102 485.077 436.795C486.111 438.477 486.634 440.455 486.645 442.727H477.918C477.793 441.352 477.395 440.307 476.724 439.591C476.065 438.864 475.213 438.5 474.168 438.5C473.349 438.5 472.634 438.739 472.02 439.216C471.406 439.682 470.929 440.392 470.588 441.347C470.247 442.29 470.077 443.477 470.077 444.909C470.077 446.341 470.247 447.534 470.588 448.489C470.929 449.432 471.406 450.142 472.02 450.619C472.634 451.085 473.349 451.318 474.168 451.318C474.861 451.318 475.474 451.159 476.009 450.841C476.543 450.511 476.974 450.034 477.304 449.409C477.645 448.773 477.849 448 477.918 447.091H486.645C486.611 449.398 486.082 451.409 485.06 453.125C484.037 454.83 482.588 456.148 480.713 457.08C478.849 458.011 476.622 458.477 474.031 458.477ZM506.141 431.818V438.636H488.891V431.818H506.141ZM492.232 425.545H501.641V449.58C501.641 449.943 501.703 450.25 501.828 450.5C501.953 450.739 502.146 450.92 502.408 451.045C502.669 451.159 503.004 451.216 503.413 451.216C503.697 451.216 504.027 451.182 504.402 451.114C504.788 451.045 505.072 450.989 505.254 450.943L506.618 457.557C506.197 457.682 505.595 457.835 504.811 458.017C504.038 458.199 503.118 458.318 502.05 458.375C499.891 458.489 498.078 458.267 496.612 457.71C495.146 457.142 494.044 456.25 493.305 455.034C492.567 453.818 492.209 452.295 492.232 450.466V425.545ZM509.98 458V431.818H519.389V458H509.98ZM514.685 429.091C513.412 429.091 512.321 428.67 511.412 427.83C510.503 426.989 510.048 425.977 510.048 424.795C510.048 423.614 510.503 422.602 511.412 421.761C512.321 420.92 513.412 420.5 514.685 420.5C515.969 420.5 517.06 420.92 517.957 421.761C518.866 422.602 519.321 423.614 519.321 424.795C519.321 425.977 518.866 426.989 517.957 427.83C517.06 428.67 515.969 429.091 514.685 429.091ZM536.797 458.477C533.956 458.477 531.524 457.915 529.501 456.79C527.479 455.653 525.928 454.074 524.848 452.051C523.768 450.017 523.229 447.659 523.229 444.977C523.229 442.295 523.768 439.943 524.848 437.92C525.928 435.886 527.479 434.307 529.501 433.182C531.524 432.045 533.956 431.477 536.797 431.477C539.365 431.477 541.587 431.943 543.462 432.875C545.348 433.795 546.808 435.102 547.842 436.795C548.876 438.477 549.399 440.455 549.411 442.727H540.683C540.558 441.352 540.161 440.307 539.49 439.591C538.831 438.864 537.979 438.5 536.933 438.5C536.115 438.5 535.399 438.739 534.786 439.216C534.172 439.682 533.695 440.392 533.354 441.347C533.013 442.29 532.842 443.477 532.842 444.909C532.842 446.341 533.013 447.534 533.354 448.489C533.695 449.432 534.172 450.142 534.786 450.619C535.399 451.085 536.115 451.318 536.933 451.318C537.626 451.318 538.24 451.159 538.774 450.841C539.308 450.511 539.74 450.034 540.07 449.409C540.411 448.773 540.615 448 540.683 447.091H549.411C549.376 449.398 548.848 451.409 547.825 453.125C546.803 454.83 545.354 456.148 543.479 457.08C541.615 458.011 539.388 458.477 536.797 458.477ZM565.838 458.477C563.043 458.477 560.634 457.943 558.611 456.875C556.599 455.795 555.048 454.25 553.957 452.239C552.878 450.216 552.338 447.795 552.338 444.977C552.338 442.273 552.884 439.909 553.974 437.886C555.065 435.864 556.605 434.29 558.594 433.165C560.582 432.04 562.929 431.477 565.634 431.477C567.611 431.477 569.401 431.784 571.003 432.398C572.605 433.011 573.974 433.903 575.111 435.074C576.247 436.233 577.122 437.642 577.736 439.301C578.349 440.96 578.656 442.83 578.656 444.909V447.091H555.27V441.909H569.997C569.986 441.159 569.793 440.5 569.418 439.932C569.054 439.352 568.56 438.903 567.935 438.585C567.321 438.256 566.622 438.091 565.838 438.091C565.077 438.091 564.378 438.256 563.741 438.585C563.105 438.903 562.594 439.347 562.207 439.915C561.832 440.483 561.634 441.148 561.611 441.909V447.5C561.611 448.341 561.787 449.091 562.139 449.75C562.491 450.409 562.997 450.926 563.656 451.301C564.315 451.676 565.111 451.864 566.043 451.864C566.69 451.864 567.281 451.773 567.815 451.591C568.361 451.409 568.827 451.148 569.213 450.807C569.599 450.455 569.884 450.034 570.065 449.545H578.656C578.361 451.364 577.662 452.943 576.56 454.284C575.457 455.614 573.997 456.648 572.179 457.386C570.372 458.114 568.259 458.477 565.838 458.477ZM607.672 431.818V438.636H590.422V431.818H607.672ZM593.763 425.545H603.172V449.58C603.172 449.943 603.234 450.25 603.359 450.5C603.484 450.739 603.678 450.92 603.939 451.045C604.2 451.159 604.536 451.216 604.945 451.216C605.229 451.216 605.558 451.182 605.933 451.114C606.32 451.045 606.604 450.989 606.786 450.943L608.149 457.557C607.729 457.682 607.126 457.835 606.342 458.017C605.57 458.199 604.649 458.318 603.581 458.375C601.422 458.489 599.609 458.267 598.143 457.71C596.678 457.142 595.575 456.25 594.837 455.034C594.098 453.818 593.74 452.295 593.763 450.466V425.545ZM618.807 458.409C617.136 458.409 615.659 458.136 614.375 457.591C613.102 457.034 612.102 456.193 611.375 455.068C610.648 453.943 610.284 452.511 610.284 450.773C610.284 449.341 610.528 448.119 611.017 447.108C611.506 446.085 612.188 445.25 613.062 444.602C613.938 443.955 614.955 443.46 616.114 443.119C617.284 442.778 618.545 442.557 619.898 442.455C621.364 442.341 622.54 442.205 623.426 442.045C624.324 441.875 624.972 441.642 625.369 441.347C625.767 441.04 625.966 440.636 625.966 440.136V440.068C625.966 439.386 625.705 438.864 625.182 438.5C624.659 438.136 623.989 437.955 623.17 437.955C622.273 437.955 621.54 438.153 620.972 438.551C620.415 438.937 620.08 439.534 619.966 440.341H611.307C611.42 438.75 611.926 437.284 612.824 435.943C613.733 434.591 615.057 433.511 616.795 432.705C618.534 431.886 620.705 431.477 623.307 431.477C625.182 431.477 626.864 431.699 628.352 432.142C629.841 432.574 631.108 433.182 632.153 433.966C633.199 434.739 633.994 435.648 634.54 436.693C635.097 437.727 635.375 438.852 635.375 440.068V458H626.58V454.318H626.375C625.852 455.295 625.216 456.085 624.466 456.688C623.727 457.29 622.881 457.727 621.926 458C620.983 458.273 619.943 458.409 618.807 458.409ZM621.875 452.477C622.591 452.477 623.261 452.33 623.886 452.034C624.523 451.739 625.04 451.312 625.438 450.756C625.835 450.199 626.034 449.523 626.034 448.727V446.545C625.784 446.648 625.517 446.744 625.233 446.835C624.96 446.926 624.665 447.011 624.347 447.091C624.04 447.17 623.71 447.244 623.358 447.312C623.017 447.381 622.659 447.443 622.284 447.5C621.557 447.614 620.96 447.801 620.494 448.062C620.04 448.312 619.699 448.625 619.472 449C619.256 449.364 619.148 449.773 619.148 450.227C619.148 450.955 619.403 451.511 619.915 451.898C620.426 452.284 621.08 452.477 621.875 452.477ZM649.28 423.091V458H639.871V423.091H649.28ZM662.528 451.795L662.597 440.614H663.824L670.165 431.818H680.733L670.097 445.523H667.438L662.528 451.795ZM654.074 458V423.091H663.483V458H654.074ZM670.233 458L664.233 447.636L670.369 440.955L681.006 458H670.233Z" fill="black"/>
<path d="M786 176.667C806.25 176.667 822.667 160.25 822.667 140C822.667 119.75 806.25 103.333 786 103.333C765.75 103.333 749.333 119.75 749.333 140C749.333 160.25 765.75 176.667 786 176.667Z" stroke="black" stroke-width="8" stroke-linecap="round" stroke-linejoin="round"/>
<path d="M771.333 140H800.667" stroke="black" stroke-width="8" stroke-linecap="round" stroke-linejoin="round"/>
<path d="M786 125.333V154.667" stroke="black" stroke-width="8" stroke-linecap="round" stroke-linejoin="round"/>
</svg>
