<svg width="1152" height="1067" viewBox="0 0 1152 1067" fill="none" xmlns="http://www.w3.org/2000/svg">
<path d="M973.758 829.266V334.866C973.758 305.728 962.175 277.783 941.557 257.179C920.94 236.575 892.976 225 863.818 225H204.182C175.024 225 147.06 236.575 126.443 257.179C105.825 277.783 94.2421 305.728 94.2421 334.866V829.266M973.758 829.266H94.2421M973.758 829.266L1044.12 969.345C1048.36 977.749 1050.36 987.101 1049.95 996.502C1049.53 1005.9 1046.7 1015.04 1041.73 1023.04C1036.77 1031.03 1029.83 1037.62 1021.58 1042.17C1013.34 1046.71 1004.06 1049.06 994.646 1049H73.3536C63.9367 1049.06 54.6609 1046.71 46.4154 1042.17C38.17 1037.62 31.2315 1031.03 26.2652 1023.04C21.299 1015.04 18.4716 1005.9 18.0541 996.502C17.6365 987.101 19.6429 977.749 23.8809 969.345L94.2421 829.266" stroke="#DD973C" stroke-width="36" stroke-linecap="round" stroke-linejoin="round"/>
<path d="M823.778 459H244.222C224.217 459 208 479.147 208 504V729C208 753.853 224.217 774 244.222 774H823.778C843.783 774 860 753.853 860 729V504C860 479.147 843.783 459 823.778 459Z" stroke="#448FBB" stroke-width="18" stroke-linecap="round" stroke-linejoin="round"/>
<path d="M823.778 271H244.222C224.217 271 208 301.23 208 313.222V384.397C208 396.389 224.217 423 244.222 423H823.778C843.783 423 860 396.389 860 384.397V313.222C860 301.23 843.783 271 823.778 271Z" stroke="#448FBB" stroke-width="18" stroke-linecap="round" stroke-linejoin="round"/>
<rect x="256" y="307" width="459" height="80" rx="10" stroke="black" stroke-width="8"/>
<path d="M281.023 364L274.477 337.818H283.886L286.886 353.773H287.091L290.432 337.818H299.568L303.045 353.636H303.25L306.114 337.818H315.523L308.977 364H298.818L295.136 349.955H294.864L291.182 364H281.023ZM325.682 364.409C324.011 364.409 322.534 364.136 321.25 363.591C319.977 363.034 318.977 362.193 318.25 361.068C317.523 359.943 317.159 358.511 317.159 356.773C317.159 355.341 317.403 354.119 317.892 353.108C318.381 352.085 319.062 351.25 319.938 350.602C320.812 349.955 321.83 349.46 322.989 349.119C324.159 348.778 325.42 348.557 326.773 348.455C328.239 348.341 329.415 348.205 330.301 348.045C331.199 347.875 331.847 347.642 332.244 347.347C332.642 347.04 332.841 346.636 332.841 346.136V346.068C332.841 345.386 332.58 344.864 332.057 344.5C331.534 344.136 330.864 343.955 330.045 343.955C329.148 343.955 328.415 344.153 327.847 344.551C327.29 344.937 326.955 345.534 326.841 346.341H318.182C318.295 344.75 318.801 343.284 319.699 341.943C320.608 340.591 321.932 339.511 323.67 338.705C325.409 337.886 327.58 337.477 330.182 337.477C332.057 337.477 333.739 337.699 335.227 338.142C336.716 338.574 337.983 339.182 339.028 339.966C340.074 340.739 340.869 341.648 341.415 342.693C341.972 343.727 342.25 344.852 342.25 346.068V364H333.455V360.318H333.25C332.727 361.295 332.091 362.085 331.341 362.688C330.602 363.29 329.756 363.727 328.801 364C327.858 364.273 326.818 364.409 325.682 364.409ZM328.75 358.477C329.466 358.477 330.136 358.33 330.761 358.034C331.398 357.739 331.915 357.312 332.312 356.756C332.71 356.199 332.909 355.523 332.909 354.727V352.545C332.659 352.648 332.392 352.744 332.108 352.835C331.835 352.926 331.54 353.011 331.222 353.091C330.915 353.17 330.585 353.244 330.233 353.312C329.892 353.381 329.534 353.443 329.159 353.5C328.432 353.614 327.835 353.801 327.369 354.062C326.915 354.312 326.574 354.625 326.347 355C326.131 355.364 326.023 355.773 326.023 356.227C326.023 356.955 326.278 357.511 326.79 357.898C327.301 358.284 327.955 358.477 328.75 358.477ZM362.359 337.818V344.636H345.109V337.818H362.359ZM348.45 331.545H357.859V355.58C357.859 355.943 357.922 356.25 358.047 356.5C358.172 356.739 358.365 356.92 358.626 357.045C358.888 357.159 359.223 357.216 359.632 357.216C359.916 357.216 360.246 357.182 360.621 357.114C361.007 357.045 361.291 356.989 361.473 356.943L362.837 363.557C362.416 363.682 361.814 363.835 361.03 364.017C360.257 364.199 359.337 364.318 358.268 364.375C356.109 364.489 354.297 364.267 352.831 363.71C351.365 363.142 350.263 362.25 349.524 361.034C348.786 359.818 348.428 358.295 348.45 356.466V331.545ZM378.463 364.477C375.668 364.477 373.259 363.943 371.236 362.875C369.224 361.795 367.673 360.25 366.582 358.239C365.503 356.216 364.963 353.795 364.963 350.977C364.963 348.273 365.509 345.909 366.599 343.886C367.69 341.864 369.23 340.29 371.219 339.165C373.207 338.04 375.554 337.477 378.259 337.477C380.236 337.477 382.026 337.784 383.628 338.398C385.23 339.011 386.599 339.903 387.736 341.074C388.872 342.233 389.747 343.642 390.361 345.301C390.974 346.96 391.281 348.83 391.281 350.909V353.091H367.895V347.909H382.622C382.611 347.159 382.418 346.5 382.043 345.932C381.679 345.352 381.185 344.903 380.56 344.585C379.946 344.256 379.247 344.091 378.463 344.091C377.702 344.091 377.003 344.256 376.366 344.585C375.73 344.903 375.219 345.347 374.832 345.915C374.457 346.483 374.259 347.148 374.236 347.909V353.5C374.236 354.341 374.412 355.091 374.764 355.75C375.116 356.409 375.622 356.926 376.281 357.301C376.94 357.676 377.736 357.864 378.668 357.864C379.315 357.864 379.906 357.773 380.44 357.591C380.986 357.409 381.452 357.148 381.838 356.807C382.224 356.455 382.509 356.034 382.69 355.545H391.281C390.986 357.364 390.287 358.943 389.185 360.284C388.082 361.614 386.622 362.648 384.804 363.386C382.997 364.114 380.884 364.477 378.463 364.477ZM395.121 364V337.818H404.257V342.795H404.53C405.007 340.955 405.763 339.608 406.797 338.756C407.842 337.903 409.064 337.477 410.462 337.477C410.871 337.477 411.274 337.511 411.672 337.58C412.081 337.636 412.473 337.722 412.848 337.835V345.864C412.382 345.705 411.808 345.585 411.126 345.506C410.445 345.426 409.859 345.386 409.371 345.386C408.45 345.386 407.621 345.597 406.882 346.017C406.155 346.426 405.581 347.006 405.161 347.756C404.74 348.494 404.53 349.364 404.53 350.364V364H395.121ZM439.865 346.341H431.206C431.161 345.807 430.973 345.347 430.643 344.96C430.314 344.574 429.888 344.278 429.365 344.074C428.854 343.858 428.286 343.75 427.661 343.75C426.854 343.75 426.161 343.898 425.581 344.193C425.001 344.489 424.717 344.909 424.729 345.455C424.717 345.841 424.882 346.199 425.223 346.528C425.575 346.858 426.251 347.114 427.251 347.295L432.57 348.25C435.251 348.739 437.246 349.562 438.553 350.722C439.871 351.869 440.536 353.409 440.547 355.341C440.536 357.205 439.979 358.824 438.876 360.199C437.786 361.562 436.291 362.619 434.393 363.369C432.507 364.108 430.354 364.477 427.933 364.477C423.933 364.477 420.803 363.659 418.541 362.023C416.291 360.386 415.036 358.227 414.774 355.545H424.115C424.24 356.375 424.649 357.017 425.342 357.472C426.047 357.915 426.933 358.136 428.001 358.136C428.865 358.136 429.575 357.989 430.132 357.693C430.7 357.398 430.99 356.977 431.001 356.432C430.99 355.932 430.74 355.534 430.251 355.239C429.774 354.943 429.024 354.705 428.001 354.523L423.365 353.705C420.695 353.239 418.695 352.352 417.365 351.045C416.036 349.739 415.376 348.057 415.388 346C415.376 344.182 415.854 342.642 416.82 341.381C417.797 340.108 419.189 339.142 420.996 338.483C422.814 337.812 424.967 337.477 427.456 337.477C431.24 337.477 434.223 338.261 436.405 339.83C438.598 341.398 439.751 343.568 439.865 346.341ZM453.561 329.091V364H444.152V329.091H453.561ZM458.355 364V337.818H467.764V364H458.355ZM463.06 335.091C461.787 335.091 460.696 334.67 459.787 333.83C458.878 332.989 458.423 331.977 458.423 330.795C458.423 329.614 458.878 328.602 459.787 327.761C460.696 326.92 461.787 326.5 463.06 326.5C464.344 326.5 465.435 326.92 466.332 327.761C467.241 328.602 467.696 329.614 467.696 330.795C467.696 331.977 467.241 332.989 466.332 333.83C465.435 334.67 464.344 335.091 463.06 335.091ZM482.036 364.341C480.172 364.341 478.456 363.852 476.888 362.875C475.331 361.898 474.081 360.415 473.138 358.426C472.206 356.437 471.74 353.932 471.74 350.909C471.74 347.75 472.229 345.182 473.206 343.205C474.195 341.227 475.467 339.778 477.024 338.858C478.592 337.938 480.24 337.477 481.967 337.477C483.263 337.477 484.399 337.705 485.376 338.159C486.354 338.602 487.172 339.199 487.831 339.949C488.49 340.687 488.99 341.5 489.331 342.386H489.467V329.091H498.876V364H489.536V359.705H489.331C488.967 360.591 488.445 361.386 487.763 362.091C487.092 362.784 486.274 363.335 485.308 363.744C484.354 364.142 483.263 364.341 482.036 364.341ZM485.513 357.114C486.376 357.114 487.115 356.864 487.729 356.364C488.354 355.852 488.831 355.136 489.161 354.216C489.501 353.284 489.672 352.182 489.672 350.909C489.672 349.614 489.501 348.506 489.161 347.585C488.831 346.653 488.354 345.943 487.729 345.455C487.115 344.955 486.376 344.705 485.513 344.705C484.649 344.705 483.911 344.955 483.297 345.455C482.695 345.943 482.229 346.653 481.899 347.585C481.581 348.506 481.422 349.614 481.422 350.909C481.422 352.205 481.581 353.318 481.899 354.25C482.229 355.17 482.695 355.881 483.297 356.381C483.911 356.869 484.649 357.114 485.513 357.114ZM516.041 364.477C513.246 364.477 510.837 363.943 508.814 362.875C506.803 361.795 505.251 360.25 504.161 358.239C503.081 356.216 502.541 353.795 502.541 350.977C502.541 348.273 503.087 345.909 504.178 343.886C505.268 341.864 506.808 340.29 508.797 339.165C510.786 338.04 513.132 337.477 515.837 337.477C517.814 337.477 519.604 337.784 521.206 338.398C522.808 339.011 524.178 339.903 525.314 341.074C526.45 342.233 527.325 343.642 527.939 345.301C528.553 346.96 528.859 348.83 528.859 350.909V353.091H505.473V347.909H520.2C520.189 347.159 519.996 346.5 519.621 345.932C519.257 345.352 518.763 344.903 518.138 344.585C517.524 344.256 516.825 344.091 516.041 344.091C515.28 344.091 514.581 344.256 513.945 344.585C513.308 344.903 512.797 345.347 512.411 345.915C512.036 346.483 511.837 347.148 511.814 347.909V353.5C511.814 354.341 511.99 355.091 512.342 355.75C512.695 356.409 513.2 356.926 513.859 357.301C514.518 357.676 515.314 357.864 516.246 357.864C516.893 357.864 517.484 357.773 518.018 357.591C518.564 357.409 519.03 357.148 519.416 356.807C519.803 356.455 520.087 356.034 520.268 355.545H528.859C528.564 357.364 527.865 358.943 526.763 360.284C525.661 361.614 524.2 362.648 522.382 363.386C520.575 364.114 518.462 364.477 516.041 364.477ZM556.631 346.341H547.972C547.926 345.807 547.739 345.347 547.409 344.96C547.08 344.574 546.653 344.278 546.131 344.074C545.619 343.858 545.051 343.75 544.426 343.75C543.619 343.75 542.926 343.898 542.347 344.193C541.767 344.489 541.483 344.909 541.494 345.455C541.483 345.841 541.648 346.199 541.989 346.528C542.341 346.858 543.017 347.114 544.017 347.295L549.335 348.25C552.017 348.739 554.011 349.562 555.318 350.722C556.636 351.869 557.301 353.409 557.312 355.341C557.301 357.205 556.744 358.824 555.642 360.199C554.551 361.562 553.057 362.619 551.159 363.369C549.273 364.108 547.119 364.477 544.699 364.477C540.699 364.477 537.568 363.659 535.307 362.023C533.057 360.386 531.801 358.227 531.54 355.545H540.881C541.006 356.375 541.415 357.017 542.108 357.472C542.813 357.915 543.699 358.136 544.767 358.136C545.631 358.136 546.341 357.989 546.898 357.693C547.466 357.398 547.756 356.977 547.767 356.432C547.756 355.932 547.506 355.534 547.017 355.239C546.54 354.943 545.79 354.705 544.767 354.523L540.131 353.705C537.46 353.239 535.46 352.352 534.131 351.045C532.801 349.739 532.142 348.057 532.153 346C532.142 344.182 532.619 342.642 533.585 341.381C534.563 340.108 535.955 339.142 537.761 338.483C539.58 337.812 541.733 337.477 544.222 337.477C548.006 337.477 550.989 338.261 553.17 339.83C555.364 341.398 556.517 343.568 556.631 346.341Z" fill="black"/>
<path d="M344.006 593.591C342.631 593.591 341.376 593.256 340.239 592.585C339.103 591.903 338.194 590.994 337.512 589.858C336.842 588.722 336.506 587.466 336.506 586.091C336.506 584.705 336.842 583.449 337.512 582.324C338.194 581.187 339.103 580.284 340.239 579.614C341.376 578.932 342.631 578.591 344.006 578.591C345.393 578.591 346.648 578.932 347.773 579.614C348.91 580.284 349.813 581.187 350.484 582.324C351.165 583.449 351.506 584.705 351.506 586.091C351.506 587.466 351.165 588.722 350.484 589.858C349.813 590.994 348.91 591.903 347.773 592.585C346.648 593.256 345.393 593.591 344.006 593.591ZM387.023 600L380.477 573.818H389.886L392.886 589.773H393.091L396.432 573.818H405.568L409.045 589.636H409.25L412.114 573.818H421.523L414.977 600H404.818L401.136 585.955H400.864L397.182 600H387.023ZM424.386 600V573.818H433.523V578.795H433.795C434.273 576.955 435.028 575.608 436.062 574.756C437.108 573.903 438.33 573.477 439.727 573.477C440.136 573.477 440.54 573.511 440.938 573.58C441.347 573.636 441.739 573.722 442.114 573.835V581.864C441.648 581.705 441.074 581.585 440.392 581.506C439.71 581.426 439.125 581.386 438.636 581.386C437.716 581.386 436.886 581.597 436.148 582.017C435.42 582.426 434.847 583.006 434.426 583.756C434.006 584.494 433.795 585.364 433.795 586.364V600H424.386ZM445.199 600V573.818H454.608V600H445.199ZM449.903 571.091C448.631 571.091 447.54 570.67 446.631 569.83C445.722 568.989 445.267 567.977 445.267 566.795C445.267 565.614 445.722 564.602 446.631 563.761C447.54 562.92 448.631 562.5 449.903 562.5C451.188 562.5 452.278 562.92 453.176 563.761C454.085 564.602 454.54 565.614 454.54 566.795C454.54 567.977 454.085 568.989 453.176 569.83C452.278 570.67 451.188 571.091 449.903 571.091ZM475.016 573.818V580.636H457.766V573.818H475.016ZM461.107 567.545H470.516V591.58C470.516 591.943 470.578 592.25 470.703 592.5C470.828 592.739 471.021 592.92 471.283 593.045C471.544 593.159 471.879 593.216 472.288 593.216C472.572 593.216 472.902 593.182 473.277 593.114C473.663 593.045 473.947 592.989 474.129 592.943L475.493 599.557C475.072 599.682 474.47 599.835 473.686 600.017C472.913 600.199 471.993 600.318 470.925 600.375C468.766 600.489 466.953 600.267 465.487 599.71C464.021 599.142 462.919 598.25 462.18 597.034C461.442 595.818 461.084 594.295 461.107 592.466V567.545ZM491.119 600.477C488.324 600.477 485.915 599.943 483.892 598.875C481.881 597.795 480.33 596.25 479.239 594.239C478.159 592.216 477.619 589.795 477.619 586.977C477.619 584.273 478.165 581.909 479.256 579.886C480.347 577.864 481.886 576.29 483.875 575.165C485.864 574.04 488.21 573.477 490.915 573.477C492.892 573.477 494.682 573.784 496.284 574.398C497.886 575.011 499.256 575.903 500.392 577.074C501.528 578.233 502.403 579.642 503.017 581.301C503.631 582.96 503.938 584.83 503.938 586.909V589.091H480.551V583.909H495.278C495.267 583.159 495.074 582.5 494.699 581.932C494.335 581.352 493.841 580.903 493.216 580.585C492.602 580.256 491.903 580.091 491.119 580.091C490.358 580.091 489.659 580.256 489.023 580.585C488.386 580.903 487.875 581.347 487.489 581.915C487.114 582.483 486.915 583.148 486.892 583.909V589.5C486.892 590.341 487.068 591.091 487.42 591.75C487.773 592.409 488.278 592.926 488.938 593.301C489.597 593.676 490.392 593.864 491.324 593.864C491.972 593.864 492.563 593.773 493.097 593.591C493.642 593.409 494.108 593.148 494.494 592.807C494.881 592.455 495.165 592.034 495.347 591.545H503.938C503.642 593.364 502.943 594.943 501.841 596.284C500.739 597.614 499.278 598.648 497.46 599.386C495.653 600.114 493.54 600.477 491.119 600.477ZM532.953 573.818V580.636H515.703V573.818H532.953ZM519.044 567.545H528.453V591.58C528.453 591.943 528.516 592.25 528.641 592.5C528.766 592.739 528.959 592.92 529.22 593.045C529.482 593.159 529.817 593.216 530.226 593.216C530.51 593.216 530.839 593.182 531.214 593.114C531.601 593.045 531.885 592.989 532.067 592.943L533.43 599.557C533.01 599.682 532.408 599.835 531.624 600.017C530.851 600.199 529.93 600.318 528.862 600.375C526.703 600.489 524.891 600.267 523.425 599.71C521.959 599.142 520.857 598.25 520.118 597.034C519.379 595.818 519.021 594.295 519.044 592.466V567.545ZM544.088 600.409C542.418 600.409 540.94 600.136 539.656 599.591C538.384 599.034 537.384 598.193 536.656 597.068C535.929 595.943 535.565 594.511 535.565 592.773C535.565 591.341 535.81 590.119 536.298 589.108C536.787 588.085 537.469 587.25 538.344 586.602C539.219 585.955 540.236 585.46 541.395 585.119C542.565 584.778 543.827 584.557 545.179 584.455C546.645 584.341 547.821 584.205 548.707 584.045C549.605 583.875 550.253 583.642 550.651 583.347C551.048 583.04 551.247 582.636 551.247 582.136V582.068C551.247 581.386 550.986 580.864 550.463 580.5C549.94 580.136 549.27 579.955 548.452 579.955C547.554 579.955 546.821 580.153 546.253 580.551C545.696 580.937 545.361 581.534 545.247 582.341H536.588C536.702 580.75 537.207 579.284 538.105 577.943C539.014 576.591 540.338 575.511 542.077 574.705C543.815 573.886 545.986 573.477 548.588 573.477C550.463 573.477 552.145 573.699 553.634 574.142C555.122 574.574 556.389 575.182 557.435 575.966C558.48 576.739 559.276 577.648 559.821 578.693C560.378 579.727 560.656 580.852 560.656 582.068V600H551.861V596.318H551.656C551.134 597.295 550.497 598.085 549.747 598.688C549.009 599.29 548.162 599.727 547.207 600C546.264 600.273 545.224 600.409 544.088 600.409ZM547.156 594.477C547.872 594.477 548.543 594.33 549.168 594.034C549.804 593.739 550.321 593.312 550.719 592.756C551.116 592.199 551.315 591.523 551.315 590.727V588.545C551.065 588.648 550.798 588.744 550.514 588.835C550.241 588.926 549.946 589.011 549.628 589.091C549.321 589.17 548.991 589.244 548.639 589.312C548.298 589.381 547.94 589.443 547.565 589.5C546.838 589.614 546.241 589.801 545.776 590.062C545.321 590.312 544.98 590.625 544.753 591C544.537 591.364 544.429 591.773 544.429 592.227C544.429 592.955 544.685 593.511 545.196 593.898C545.707 594.284 546.361 594.477 547.156 594.477ZM574.561 565.091V600H565.152V565.091H574.561ZM587.81 593.795L587.878 582.614H589.105L595.446 573.818H606.014L595.378 587.523H592.719L587.81 593.795ZM579.355 600V565.091H588.764V600H579.355ZM595.514 600L589.514 589.636L595.651 582.955L606.287 600H595.514Z" fill="black"/>
<path d="M275.619 501.909V492.364H313.545V501.909H300.42V536H288.744V501.909H275.619ZM329.195 536.597C325.644 536.597 322.604 535.893 320.076 534.487C317.548 533.067 315.609 531.092 314.259 528.564C312.91 526.021 312.235 523.074 312.235 519.722C312.235 516.369 312.91 513.429 314.259 510.901C315.609 508.358 317.548 506.384 320.076 504.977C322.604 503.557 325.644 502.847 329.195 502.847C332.746 502.847 335.786 503.557 338.315 504.977C340.843 506.384 342.782 508.358 344.131 510.901C345.481 513.429 346.156 516.369 346.156 519.722C346.156 523.074 345.481 526.021 344.131 528.564C342.782 531.092 340.843 533.067 338.315 534.487C335.786 535.893 332.746 536.597 329.195 536.597ZM329.281 527.903C330.275 527.903 331.134 527.57 331.859 526.902C332.583 526.234 333.144 525.283 333.542 524.047C333.94 522.811 334.138 521.341 334.138 519.636C334.138 517.918 333.94 516.447 333.542 515.226C333.144 513.99 332.583 513.038 331.859 512.371C331.134 511.703 330.275 511.369 329.281 511.369C328.229 511.369 327.327 511.703 326.575 512.371C325.822 513.038 325.246 513.99 324.849 515.226C324.451 516.447 324.252 517.918 324.252 519.636C324.252 521.341 324.451 522.811 324.849 524.047C325.246 525.283 325.822 526.234 326.575 526.902C327.327 527.57 328.229 527.903 329.281 527.903ZM374.728 536.426C372.398 536.426 370.254 535.815 368.293 534.594C366.347 533.372 364.785 531.518 363.606 529.033C362.441 526.547 361.859 523.415 361.859 519.636C361.859 515.687 362.469 512.477 363.691 510.006C364.927 507.534 366.518 505.723 368.464 504.572C370.424 503.422 372.484 502.847 374.643 502.847C376.262 502.847 377.683 503.131 378.904 503.699C380.126 504.253 381.148 504.999 381.972 505.936C382.796 506.859 383.421 507.875 383.847 508.983H384.018V492.364H395.779V536H384.103V530.631H383.847C383.393 531.739 382.739 532.733 381.887 533.614C381.049 534.48 380.026 535.169 378.819 535.68C377.626 536.178 376.262 536.426 374.728 536.426ZM379.075 527.392C380.154 527.392 381.077 527.08 381.844 526.455C382.626 525.815 383.222 524.92 383.634 523.77C384.06 522.605 384.273 521.227 384.273 519.636C384.273 518.017 384.06 516.632 383.634 515.482C383.222 514.317 382.626 513.429 381.844 512.818C381.077 512.193 380.154 511.881 379.075 511.881C377.995 511.881 377.072 512.193 376.305 512.818C375.552 513.429 374.969 514.317 374.558 515.482C374.16 516.632 373.961 518.017 373.961 519.636C373.961 521.256 374.16 522.648 374.558 523.812C374.969 524.963 375.552 525.851 376.305 526.476C377.072 527.087 377.995 527.392 379.075 527.392ZM417.32 536.597C413.769 536.597 410.729 535.893 408.201 534.487C405.673 533.067 403.734 531.092 402.384 528.564C401.035 526.021 400.36 523.074 400.36 519.722C400.36 516.369 401.035 513.429 402.384 510.901C403.734 508.358 405.673 506.384 408.201 504.977C410.729 503.557 413.769 502.847 417.32 502.847C420.871 502.847 423.911 503.557 426.44 504.977C428.968 506.384 430.907 508.358 432.256 510.901C433.606 513.429 434.281 516.369 434.281 519.722C434.281 523.074 433.606 526.021 432.256 528.564C430.907 531.092 428.968 533.067 426.44 534.487C423.911 535.893 420.871 536.597 417.32 536.597ZM417.406 527.903C418.4 527.903 419.259 527.57 419.984 526.902C420.708 526.234 421.269 525.283 421.667 524.047C422.065 522.811 422.263 521.341 422.263 519.636C422.263 517.918 422.065 516.447 421.667 515.226C421.269 513.99 420.708 513.038 419.984 512.371C419.259 511.703 418.4 511.369 417.406 511.369C416.354 511.369 415.452 511.703 414.7 512.371C413.947 513.038 413.371 513.99 412.974 515.226C412.576 516.447 412.377 517.918 412.377 519.636C412.377 521.341 412.576 522.811 412.974 524.047C413.371 525.283 413.947 526.234 414.7 526.902C415.452 527.57 416.354 527.903 417.406 527.903Z" fill="black"/>
<path d="M344.006 658.591C342.631 658.591 341.376 658.256 340.239 657.585C339.103 656.903 338.194 655.994 337.512 654.858C336.842 653.722 336.506 652.466 336.506 651.091C336.506 649.705 336.842 648.449 337.512 647.324C338.194 646.187 339.103 645.284 340.239 644.614C341.376 643.932 342.631 643.591 344.006 643.591C345.393 643.591 346.648 643.932 347.773 644.614C348.91 645.284 349.813 646.187 350.484 647.324C351.165 648.449 351.506 649.705 351.506 651.091C351.506 652.466 351.165 653.722 350.484 654.858C349.813 655.994 348.91 656.903 347.773 657.585C346.648 658.256 345.393 658.591 344.006 658.591ZM382.386 674.818V638.818H391.727V643.386H391.932C392.273 642.5 392.773 641.687 393.432 640.949C394.091 640.199 394.909 639.602 395.886 639.159C396.864 638.705 398 638.477 399.295 638.477C401.023 638.477 402.665 638.938 404.222 639.858C405.79 640.778 407.063 642.227 408.04 644.205C409.028 646.182 409.523 648.75 409.523 651.909C409.523 654.932 409.051 657.437 408.108 659.426C407.176 661.415 405.926 662.898 404.358 663.875C402.801 664.852 401.091 665.341 399.227 665.341C398 665.341 396.903 665.142 395.938 664.744C394.983 664.335 394.165 663.784 393.483 663.091C392.813 662.386 392.295 661.591 391.932 660.705H391.795V674.818H382.386ZM391.591 651.909C391.591 653.182 391.756 654.284 392.085 655.216C392.426 656.136 392.903 656.852 393.517 657.364C394.142 657.864 394.886 658.114 395.75 658.114C396.614 658.114 397.347 657.869 397.949 657.381C398.563 656.881 399.028 656.17 399.347 655.25C399.676 654.318 399.841 653.205 399.841 651.909C399.841 650.614 399.676 649.506 399.347 648.585C399.028 647.653 398.563 646.943 397.949 646.455C397.347 645.955 396.614 645.705 395.75 645.705C394.886 645.705 394.142 645.955 393.517 646.455C392.903 646.943 392.426 647.653 392.085 648.585C391.756 649.506 391.591 650.614 391.591 651.909ZM413.464 665V638.818H422.601V643.795H422.874C423.351 641.955 424.107 640.608 425.141 639.756C426.186 638.903 427.408 638.477 428.805 638.477C429.214 638.477 429.618 638.511 430.016 638.58C430.425 638.636 430.817 638.722 431.192 638.835V646.864C430.726 646.705 430.152 646.585 429.47 646.506C428.788 646.426 428.203 646.386 427.714 646.386C426.794 646.386 425.964 646.597 425.226 647.017C424.499 647.426 423.925 648.006 423.504 648.756C423.084 649.494 422.874 650.364 422.874 651.364V665H413.464ZM440.354 665.409C438.683 665.409 437.206 665.136 435.922 664.591C434.649 664.034 433.649 663.193 432.922 662.068C432.195 660.943 431.831 659.511 431.831 657.773C431.831 656.341 432.075 655.119 432.564 654.108C433.053 653.085 433.734 652.25 434.609 651.602C435.484 650.955 436.501 650.46 437.661 650.119C438.831 649.778 440.092 649.557 441.445 649.455C442.911 649.341 444.087 649.205 444.973 649.045C445.871 648.875 446.518 648.642 446.916 648.347C447.314 648.04 447.513 647.636 447.513 647.136V647.068C447.513 646.386 447.251 645.864 446.729 645.5C446.206 645.136 445.536 644.955 444.717 644.955C443.82 644.955 443.087 645.153 442.518 645.551C441.962 645.937 441.626 646.534 441.513 647.341H432.854C432.967 645.75 433.473 644.284 434.371 642.943C435.28 641.591 436.604 640.511 438.342 639.705C440.081 638.886 442.251 638.477 444.854 638.477C446.729 638.477 448.411 638.699 449.899 639.142C451.388 639.574 452.655 640.182 453.7 640.966C454.746 641.739 455.541 642.648 456.087 643.693C456.643 644.727 456.922 645.852 456.922 647.068V665H448.126V661.318H447.922C447.399 662.295 446.763 663.085 446.013 663.688C445.274 664.29 444.428 664.727 443.473 665C442.53 665.273 441.49 665.409 440.354 665.409ZM443.422 659.477C444.138 659.477 444.808 659.33 445.433 659.034C446.07 658.739 446.587 658.312 446.984 657.756C447.382 657.199 447.581 656.523 447.581 655.727V653.545C447.331 653.648 447.064 653.744 446.78 653.835C446.507 653.926 446.212 654.011 445.893 654.091C445.587 654.17 445.257 654.244 444.905 654.312C444.564 654.381 444.206 654.443 443.831 654.5C443.104 654.614 442.507 654.801 442.041 655.062C441.587 655.312 441.246 655.625 441.018 656C440.803 656.364 440.695 656.773 440.695 657.227C440.695 657.955 440.95 658.511 441.462 658.898C441.973 659.284 442.626 659.477 443.422 659.477ZM474.031 665.477C471.19 665.477 468.759 664.915 466.736 663.79C464.713 662.653 463.162 661.074 462.082 659.051C461.003 657.017 460.463 654.659 460.463 651.977C460.463 649.295 461.003 646.943 462.082 644.92C463.162 642.886 464.713 641.307 466.736 640.182C468.759 639.045 471.19 638.477 474.031 638.477C476.599 638.477 478.821 638.943 480.696 639.875C482.582 640.795 484.043 642.102 485.077 643.795C486.111 645.477 486.634 647.455 486.645 649.727H477.918C477.793 648.352 477.395 647.307 476.724 646.591C476.065 645.864 475.213 645.5 474.168 645.5C473.349 645.5 472.634 645.739 472.02 646.216C471.406 646.682 470.929 647.392 470.588 648.347C470.247 649.29 470.077 650.477 470.077 651.909C470.077 653.341 470.247 654.534 470.588 655.489C470.929 656.432 471.406 657.142 472.02 657.619C472.634 658.085 473.349 658.318 474.168 658.318C474.861 658.318 475.474 658.159 476.009 657.841C476.543 657.511 476.974 657.034 477.304 656.409C477.645 655.773 477.849 655 477.918 654.091H486.645C486.611 656.398 486.082 658.409 485.06 660.125C484.037 661.83 482.588 663.148 480.713 664.08C478.849 665.011 476.622 665.477 474.031 665.477ZM506.141 638.818V645.636H488.891V638.818H506.141ZM492.232 632.545H501.641V656.58C501.641 656.943 501.703 657.25 501.828 657.5C501.953 657.739 502.146 657.92 502.408 658.045C502.669 658.159 503.004 658.216 503.413 658.216C503.697 658.216 504.027 658.182 504.402 658.114C504.788 658.045 505.072 657.989 505.254 657.943L506.618 664.557C506.197 664.682 505.595 664.835 504.811 665.017C504.038 665.199 503.118 665.318 502.05 665.375C499.891 665.489 498.078 665.267 496.612 664.71C495.146 664.142 494.044 663.25 493.305 662.034C492.567 660.818 492.209 659.295 492.232 657.466V632.545ZM509.98 665V638.818H519.389V665H509.98ZM514.685 636.091C513.412 636.091 512.321 635.67 511.412 634.83C510.503 633.989 510.048 632.977 510.048 631.795C510.048 630.614 510.503 629.602 511.412 628.761C512.321 627.92 513.412 627.5 514.685 627.5C515.969 627.5 517.06 627.92 517.957 628.761C518.866 629.602 519.321 630.614 519.321 631.795C519.321 632.977 518.866 633.989 517.957 634.83C517.06 635.67 515.969 636.091 514.685 636.091ZM536.797 665.477C533.956 665.477 531.524 664.915 529.501 663.79C527.479 662.653 525.928 661.074 524.848 659.051C523.768 657.017 523.229 654.659 523.229 651.977C523.229 649.295 523.768 646.943 524.848 644.92C525.928 642.886 527.479 641.307 529.501 640.182C531.524 639.045 533.956 638.477 536.797 638.477C539.365 638.477 541.587 638.943 543.462 639.875C545.348 640.795 546.808 642.102 547.842 643.795C548.876 645.477 549.399 647.455 549.411 649.727H540.683C540.558 648.352 540.161 647.307 539.49 646.591C538.831 645.864 537.979 645.5 536.933 645.5C536.115 645.5 535.399 645.739 534.786 646.216C534.172 646.682 533.695 647.392 533.354 648.347C533.013 649.29 532.842 650.477 532.842 651.909C532.842 653.341 533.013 654.534 533.354 655.489C533.695 656.432 534.172 657.142 534.786 657.619C535.399 658.085 536.115 658.318 536.933 658.318C537.626 658.318 538.24 658.159 538.774 657.841C539.308 657.511 539.74 657.034 540.07 656.409C540.411 655.773 540.615 655 540.683 654.091H549.411C549.376 656.398 548.848 658.409 547.825 660.125C546.803 661.83 545.354 663.148 543.479 664.08C541.615 665.011 539.388 665.477 536.797 665.477ZM565.838 665.477C563.043 665.477 560.634 664.943 558.611 663.875C556.599 662.795 555.048 661.25 553.957 659.239C552.878 657.216 552.338 654.795 552.338 651.977C552.338 649.273 552.884 646.909 553.974 644.886C555.065 642.864 556.605 641.29 558.594 640.165C560.582 639.04 562.929 638.477 565.634 638.477C567.611 638.477 569.401 638.784 571.003 639.398C572.605 640.011 573.974 640.903 575.111 642.074C576.247 643.233 577.122 644.642 577.736 646.301C578.349 647.96 578.656 649.83 578.656 651.909V654.091H555.27V648.909H569.997C569.986 648.159 569.793 647.5 569.418 646.932C569.054 646.352 568.56 645.903 567.935 645.585C567.321 645.256 566.622 645.091 565.838 645.091C565.077 645.091 564.378 645.256 563.741 645.585C563.105 645.903 562.594 646.347 562.207 646.915C561.832 647.483 561.634 648.148 561.611 648.909V654.5C561.611 655.341 561.787 656.091 562.139 656.75C562.491 657.409 562.997 657.926 563.656 658.301C564.315 658.676 565.111 658.864 566.043 658.864C566.69 658.864 567.281 658.773 567.815 658.591C568.361 658.409 568.827 658.148 569.213 657.807C569.599 657.455 569.884 657.034 570.065 656.545H578.656C578.361 658.364 577.662 659.943 576.56 661.284C575.457 662.614 573.997 663.648 572.179 664.386C570.372 665.114 568.259 665.477 565.838 665.477ZM607.672 638.818V645.636H590.422V638.818H607.672ZM593.763 632.545H603.172V656.58C603.172 656.943 603.234 657.25 603.359 657.5C603.484 657.739 603.678 657.92 603.939 658.045C604.2 658.159 604.536 658.216 604.945 658.216C605.229 658.216 605.558 658.182 605.933 658.114C606.32 658.045 606.604 657.989 606.786 657.943L608.149 664.557C607.729 664.682 607.126 664.835 606.342 665.017C605.57 665.199 604.649 665.318 603.581 665.375C601.422 665.489 599.609 665.267 598.143 664.71C596.678 664.142 595.575 663.25 594.837 662.034C594.098 660.818 593.74 659.295 593.763 657.466V632.545ZM618.807 665.409C617.136 665.409 615.659 665.136 614.375 664.591C613.102 664.034 612.102 663.193 611.375 662.068C610.648 660.943 610.284 659.511 610.284 657.773C610.284 656.341 610.528 655.119 611.017 654.108C611.506 653.085 612.188 652.25 613.062 651.602C613.938 650.955 614.955 650.46 616.114 650.119C617.284 649.778 618.545 649.557 619.898 649.455C621.364 649.341 622.54 649.205 623.426 649.045C624.324 648.875 624.972 648.642 625.369 648.347C625.767 648.04 625.966 647.636 625.966 647.136V647.068C625.966 646.386 625.705 645.864 625.182 645.5C624.659 645.136 623.989 644.955 623.17 644.955C622.273 644.955 621.54 645.153 620.972 645.551C620.415 645.937 620.08 646.534 619.966 647.341H611.307C611.42 645.75 611.926 644.284 612.824 642.943C613.733 641.591 615.057 640.511 616.795 639.705C618.534 638.886 620.705 638.477 623.307 638.477C625.182 638.477 626.864 638.699 628.352 639.142C629.841 639.574 631.108 640.182 632.153 640.966C633.199 641.739 633.994 642.648 634.54 643.693C635.097 644.727 635.375 645.852 635.375 647.068V665H626.58V661.318H626.375C625.852 662.295 625.216 663.085 624.466 663.688C623.727 664.29 622.881 664.727 621.926 665C620.983 665.273 619.943 665.409 618.807 665.409ZM621.875 659.477C622.591 659.477 623.261 659.33 623.886 659.034C624.523 658.739 625.04 658.312 625.438 657.756C625.835 657.199 626.034 656.523 626.034 655.727V653.545C625.784 653.648 625.517 653.744 625.233 653.835C624.96 653.926 624.665 654.011 624.347 654.091C624.04 654.17 623.71 654.244 623.358 654.312C623.017 654.381 622.659 654.443 622.284 654.5C621.557 654.614 620.96 654.801 620.494 655.062C620.04 655.312 619.699 655.625 619.472 656C619.256 656.364 619.148 656.773 619.148 657.227C619.148 657.955 619.403 658.511 619.915 658.898C620.426 659.284 621.08 659.477 621.875 659.477ZM649.28 630.091V665H639.871V630.091H649.28ZM662.528 658.795L662.597 647.614H663.824L670.165 638.818H680.733L670.097 652.523H667.438L662.528 658.795ZM654.074 665V630.091H663.483V665H654.074ZM670.233 665L664.233 654.636L670.369 647.955L681.006 665H670.233Z" fill="black"/>
<path d="M786 383.667C806.25 383.667 822.667 367.25 822.667 347C822.667 326.75 806.25 310.333 786 310.333C765.75 310.333 749.333 326.75 749.333 347C749.333 367.25 765.75 383.667 786 383.667Z" stroke="black" stroke-width="8" stroke-linecap="round" stroke-linejoin="round"/>
<path d="M771.333 347H800.667" stroke="black" stroke-width="8" stroke-linecap="round" stroke-linejoin="round"/>
<path d="M786 332.333V361.667" stroke="black" stroke-width="8" stroke-linecap="round" stroke-linejoin="round"/>
<path d="M645.624 85.96V33.4H652.104V40.96H653.4L652.104 42.472C652.104 39.448 653.088 37.072 655.056 35.344C657.072 33.568 659.712 32.68 662.976 32.68C666.96 32.68 670.128 34 672.48 36.64C674.88 39.232 676.08 42.808 676.08 47.368V58.96C676.08 61.984 675.528 64.6 674.424 66.808C673.368 69.016 671.856 70.72 669.888 71.92C667.968 73.12 665.664 73.72 662.976 73.72C659.76 73.72 657.144 72.832 655.128 71.056C653.112 69.28 652.104 66.904 652.104 63.928L653.4 65.44H651.96L652.104 74.44V85.96H645.624ZM660.816 68.104C663.552 68.104 665.688 67.288 667.224 65.656C668.808 64.024 669.6 61.672 669.6 58.6V47.8C669.6 44.728 668.808 42.376 667.224 40.744C665.688 39.112 663.552 38.296 660.816 38.296C658.176 38.296 656.064 39.136 654.48 40.816C652.896 42.496 652.104 44.824 652.104 47.8V58.6C652.104 61.576 652.896 63.904 654.48 65.584C656.064 67.264 658.176 68.104 660.816 68.104ZM703.772 73.576C700.604 73.576 697.868 72.976 695.564 71.776C693.26 70.576 691.46 68.848 690.164 66.592C688.916 64.288 688.292 61.576 688.292 58.456V47.944C688.292 44.776 688.916 42.064 690.164 39.808C691.46 37.552 693.26 35.824 695.564 34.624C697.868 33.424 700.604 32.824 703.772 32.824C706.94 32.824 709.676 33.424 711.98 34.624C714.284 35.824 716.06 37.552 717.308 39.808C718.604 42.064 719.252 44.752 719.252 47.872V58.456C719.252 61.576 718.604 64.288 717.308 66.592C716.06 68.848 714.284 70.576 711.98 71.776C709.676 72.976 706.94 73.576 703.772 73.576ZM703.772 67.816C706.604 67.816 708.812 67.024 710.396 65.44C711.98 63.856 712.772 61.528 712.772 58.456V47.944C712.772 44.872 711.98 42.544 710.396 40.96C708.812 39.376 706.604 38.584 703.772 38.584C700.988 38.584 698.78 39.376 697.148 40.96C695.564 42.544 694.772 44.872 694.772 47.944V58.456C694.772 61.528 695.564 63.856 697.148 65.44C698.78 67.024 700.988 67.816 703.772 67.816ZM745.72 73.576C743.032 73.576 740.68 73.168 738.664 72.352C736.696 71.488 735.112 70.288 733.912 68.752C732.76 67.216 732.064 65.392 731.824 63.28H738.304C738.592 64.672 739.36 65.776 740.608 66.592C741.904 67.408 743.608 67.816 745.72 67.816H748.744C751.288 67.816 753.184 67.312 754.432 66.304C755.68 65.248 756.304 63.856 756.304 62.128C756.304 60.448 755.728 59.128 754.576 58.168C753.472 57.16 751.816 56.488 749.608 56.152L744.28 55.288C740.392 54.616 737.488 53.416 735.568 51.688C733.696 49.912 732.76 47.344 732.76 43.984C732.76 40.432 733.888 37.696 736.144 35.776C738.4 33.808 741.784 32.824 746.296 32.824H749.032C752.824 32.824 755.872 33.712 758.176 35.488C760.48 37.264 761.872 39.664 762.352 42.688H755.872C755.584 41.44 754.864 40.456 753.712 39.736C752.56 38.968 751 38.584 749.032 38.584H746.296C743.848 38.584 742.048 39.04 740.896 39.952C739.792 40.864 739.24 42.232 739.24 44.056C739.24 45.688 739.72 46.888 740.68 47.656C741.64 48.424 743.152 48.976 745.216 49.312L750.544 50.176C754.816 50.848 757.912 52.096 759.832 53.92C761.8 55.744 762.784 58.384 762.784 61.84C762.784 65.488 761.608 68.368 759.256 70.48C756.952 72.544 753.448 73.576 748.744 73.576H745.72ZM794.436 73C791.028 73 788.364 72.088 786.444 70.264C784.572 68.44 783.636 65.872 783.636 62.56V39.304H772.476V33.4H783.636V22.24H790.116V33.4H805.956V39.304H790.116V62.56C790.116 65.584 791.556 67.096 794.436 67.096H805.236V73H794.436ZM818.168 73V20.44H826.808L842.864 65.44C842.768 64.24 842.648 62.776 842.504 61.048C842.408 59.272 842.312 57.424 842.216 55.504C842.168 53.536 842.144 51.688 842.144 49.96V20.44H848.408V73H839.768L823.784 28C823.88 29.152 823.976 30.616 824.072 32.392C824.168 34.12 824.24 35.968 824.288 37.936C824.384 39.856 824.432 41.704 824.432 43.48V73H818.168ZM876.459 73.72C873.339 73.72 870.603 73.096 868.251 71.848C865.947 70.6 864.147 68.848 862.851 66.592C861.603 64.288 860.979 61.624 860.979 58.6V47.8C860.979 44.728 861.603 42.064 862.851 39.808C864.147 37.552 865.947 35.8 868.251 34.552C870.603 33.304 873.339 32.68 876.459 32.68C879.579 32.68 882.291 33.304 884.595 34.552C886.947 35.8 888.747 37.552 889.995 39.808C891.291 42.064 891.939 44.728 891.939 47.8V54.784H867.315V58.6C867.315 61.72 868.107 64.12 869.691 65.8C871.275 67.432 873.531 68.248 876.459 68.248C878.955 68.248 880.971 67.816 882.507 66.952C884.043 66.04 884.979 64.696 885.315 62.92H891.795C891.363 66.232 889.731 68.872 886.899 70.84C884.115 72.76 880.635 73.72 876.459 73.72ZM885.603 50.464V47.8C885.603 44.68 884.811 42.28 883.227 40.6C881.691 38.92 879.435 38.08 876.459 38.08C873.531 38.08 871.275 38.92 869.691 40.6C868.107 42.28 867.315 44.68 867.315 47.8V49.888H886.107L885.603 50.464ZM906.887 73L900.551 33.4H906.311L910.271 61.48C910.415 62.536 910.559 63.688 910.703 64.936C910.895 66.136 911.039 67.144 911.135 67.96C911.231 67.144 911.375 66.136 911.567 64.936C911.807 63.688 911.999 62.536 912.143 61.48L916.535 33.4H922.727L927.119 61.48C927.263 62.536 927.431 63.688 927.623 64.936C927.863 66.136 928.031 67.144 928.127 67.96C928.223 67.144 928.367 66.136 928.559 64.936C928.799 63.688 928.991 62.536 929.135 61.48L933.239 33.4H938.711L932.087 73H924.959L920.711 45.64C920.519 44.296 920.303 42.952 920.063 41.608C919.823 40.264 919.655 39.208 919.559 38.44C919.463 39.208 919.319 40.264 919.127 41.608C918.935 42.952 918.719 44.296 918.479 45.64L914.015 73H906.887ZM948.763 73V67.096H959.491V26.344H948.763V20.44H976.843V26.344H966.115V67.096H976.843V73H948.763ZM1010.3 73C1006.89 73 1004.22 72.088 1002.3 70.264C1000.43 68.44 999.495 65.872 999.495 62.56V39.304H988.335V33.4H999.495V22.24H1005.98V33.4H1021.82V39.304H1005.98V62.56C1005.98 65.584 1007.42 67.096 1010.3 67.096H1021.1V73H1010.3ZM1049.15 73.72C1046.03 73.72 1043.29 73.096 1040.94 71.848C1038.63 70.6 1036.83 68.848 1035.54 66.592C1034.29 64.288 1033.67 61.624 1033.67 58.6V47.8C1033.67 44.728 1034.29 42.064 1035.54 39.808C1036.83 37.552 1038.63 35.8 1040.94 34.552C1043.29 33.304 1046.03 32.68 1049.15 32.68C1052.27 32.68 1054.98 33.304 1057.28 34.552C1059.63 35.8 1061.43 37.552 1062.68 39.808C1063.98 42.064 1064.63 44.728 1064.63 47.8V54.784H1040V58.6C1040 61.72 1040.79 64.12 1042.38 65.8C1043.96 67.432 1046.22 68.248 1049.15 68.248C1051.64 68.248 1053.66 67.816 1055.19 66.952C1056.73 66.04 1057.67 64.696 1058 62.92H1064.48C1064.05 66.232 1062.42 68.872 1059.59 70.84C1056.8 72.76 1053.32 73.72 1049.15 73.72ZM1058.29 50.464V47.8C1058.29 44.68 1057.5 42.28 1055.91 40.6C1054.38 38.92 1052.12 38.08 1049.15 38.08C1046.22 38.08 1043.96 38.92 1042.38 40.6C1040.79 42.28 1040 44.68 1040 47.8V49.888H1058.79L1058.29 50.464ZM1075.47 73V33.4H1081.16V38.152H1082.45L1081.45 39.88C1081.45 37.672 1082.02 35.92 1083.17 34.624C1084.37 33.328 1085.98 32.68 1088 32.68C1090.21 32.68 1091.91 33.496 1093.11 35.128C1094.31 36.76 1094.91 39.064 1094.91 42.04L1092.97 38.152H1095.99L1094.62 39.88C1094.62 37.672 1095.22 35.92 1096.42 34.624C1097.67 33.328 1099.3 32.68 1101.32 32.68C1103.81 32.68 1105.73 33.616 1107.08 35.488C1108.47 37.36 1109.17 39.832 1109.17 42.904V73H1103.19V42.832C1103.19 41.2 1102.83 39.928 1102.11 39.016C1101.44 38.104 1100.43 37.648 1099.09 37.648C1097.79 37.648 1096.76 38.104 1095.99 39.016C1095.27 39.88 1094.91 41.128 1094.91 42.76V73H1089.73V42.832C1089.73 41.152 1089.34 39.88 1088.57 39.016C1087.85 38.104 1086.82 37.648 1085.48 37.648C1084.13 37.648 1083.13 38.104 1082.45 39.016C1081.78 39.88 1081.45 41.128 1081.45 42.76V73H1075.47Z" fill="black"/>
<path d="M786 347L910 97" stroke="#444444" stroke-width="12"/>
<rect x="615" y="6" width="531" height="92" stroke="#444444" stroke-width="12"/>
</svg>
