<svg width="3170" height="1253" viewBox="0 0 3170 1253" fill="none" xmlns="http://www.w3.org/2000/svg">
<path d="M973.758 850.266V355.866C973.758 326.728 962.175 298.783 941.557 278.179C920.94 257.575 892.976 246 863.818 246H204.182C175.024 246 147.06 257.575 126.443 278.179C105.825 298.783 94.2421 326.728 94.2421 355.866V850.266M973.758 850.266H94.2421M973.758 850.266L1044.12 990.345C1048.36 998.749 1050.36 1008.1 1049.95 1017.5C1049.53 1026.9 1046.7 1036.04 1041.73 1044.04C1036.77 1052.03 1029.83 1058.62 1021.58 1063.17C1013.34 1067.71 1004.06 1070.06 994.646 1070H73.3536C63.9367 1070.06 54.6609 1067.71 46.4154 1063.17C38.17 1058.62 31.2315 1052.03 26.2652 1044.04C21.299 1036.04 18.4716 1026.9 18.0541 1017.5C17.6365 1008.1 19.6429 998.749 23.8809 990.345L94.2421 850.266" stroke="#DD973C" stroke-width="36" stroke-linecap="round" stroke-linejoin="round"/>
<path d="M823.778 480H244.222C224.217 480 208 500.147 208 525V750C208 774.853 224.217 795 244.222 795H823.778C843.783 795 860 774.853 860 750V525C860 500.147 843.783 480 823.778 480Z" stroke="#448FBB" stroke-width="18" stroke-linecap="round" stroke-linejoin="round"/>
<path d="M823.778 292H244.222C224.217 292 208 322.23 208 334.222V405.397C208 417.389 224.217 444 244.222 444H823.778C843.783 444 860 417.389 860 405.397V334.222C860 322.23 843.783 292 823.778 292Z" stroke="#448FBB" stroke-width="18" stroke-linecap="round" stroke-linejoin="round"/>
<rect x="256" y="328" width="459" height="80" rx="10" stroke="black" stroke-width="8"/>
<path d="M281.023 385L274.477 358.818H283.886L286.886 374.773H287.091L290.432 358.818H299.568L303.045 374.636H303.25L306.114 358.818H315.523L308.977 385H298.818L295.136 370.955H294.864L291.182 385H281.023ZM325.682 385.409C324.011 385.409 322.534 385.136 321.25 384.591C319.977 384.034 318.977 383.193 318.25 382.068C317.523 380.943 317.159 379.511 317.159 377.773C317.159 376.341 317.403 375.119 317.892 374.108C318.381 373.085 319.062 372.25 319.938 371.602C320.812 370.955 321.83 370.46 322.989 370.119C324.159 369.778 325.42 369.557 326.773 369.455C328.239 369.341 329.415 369.205 330.301 369.045C331.199 368.875 331.847 368.642 332.244 368.347C332.642 368.04 332.841 367.636 332.841 367.136V367.068C332.841 366.386 332.58 365.864 332.057 365.5C331.534 365.136 330.864 364.955 330.045 364.955C329.148 364.955 328.415 365.153 327.847 365.551C327.29 365.937 326.955 366.534 326.841 367.341H318.182C318.295 365.75 318.801 364.284 319.699 362.943C320.608 361.591 321.932 360.511 323.67 359.705C325.409 358.886 327.58 358.477 330.182 358.477C332.057 358.477 333.739 358.699 335.227 359.142C336.716 359.574 337.983 360.182 339.028 360.966C340.074 361.739 340.869 362.648 341.415 363.693C341.972 364.727 342.25 365.852 342.25 367.068V385H333.455V381.318H333.25C332.727 382.295 332.091 383.085 331.341 383.688C330.602 384.29 329.756 384.727 328.801 385C327.858 385.273 326.818 385.409 325.682 385.409ZM328.75 379.477C329.466 379.477 330.136 379.33 330.761 379.034C331.398 378.739 331.915 378.312 332.312 377.756C332.71 377.199 332.909 376.523 332.909 375.727V373.545C332.659 373.648 332.392 373.744 332.108 373.835C331.835 373.926 331.54 374.011 331.222 374.091C330.915 374.17 330.585 374.244 330.233 374.312C329.892 374.381 329.534 374.443 329.159 374.5C328.432 374.614 327.835 374.801 327.369 375.062C326.915 375.312 326.574 375.625 326.347 376C326.131 376.364 326.023 376.773 326.023 377.227C326.023 377.955 326.278 378.511 326.79 378.898C327.301 379.284 327.955 379.477 328.75 379.477ZM362.359 358.818V365.636H345.109V358.818H362.359ZM348.45 352.545H357.859V376.58C357.859 376.943 357.922 377.25 358.047 377.5C358.172 377.739 358.365 377.92 358.626 378.045C358.888 378.159 359.223 378.216 359.632 378.216C359.916 378.216 360.246 378.182 360.621 378.114C361.007 378.045 361.291 377.989 361.473 377.943L362.837 384.557C362.416 384.682 361.814 384.835 361.03 385.017C360.257 385.199 359.337 385.318 358.268 385.375C356.109 385.489 354.297 385.267 352.831 384.71C351.365 384.142 350.263 383.25 349.524 382.034C348.786 380.818 348.428 379.295 348.45 377.466V352.545ZM378.463 385.477C375.668 385.477 373.259 384.943 371.236 383.875C369.224 382.795 367.673 381.25 366.582 379.239C365.503 377.216 364.963 374.795 364.963 371.977C364.963 369.273 365.509 366.909 366.599 364.886C367.69 362.864 369.23 361.29 371.219 360.165C373.207 359.04 375.554 358.477 378.259 358.477C380.236 358.477 382.026 358.784 383.628 359.398C385.23 360.011 386.599 360.903 387.736 362.074C388.872 363.233 389.747 364.642 390.361 366.301C390.974 367.96 391.281 369.83 391.281 371.909V374.091H367.895V368.909H382.622C382.611 368.159 382.418 367.5 382.043 366.932C381.679 366.352 381.185 365.903 380.56 365.585C379.946 365.256 379.247 365.091 378.463 365.091C377.702 365.091 377.003 365.256 376.366 365.585C375.73 365.903 375.219 366.347 374.832 366.915C374.457 367.483 374.259 368.148 374.236 368.909V374.5C374.236 375.341 374.412 376.091 374.764 376.75C375.116 377.409 375.622 377.926 376.281 378.301C376.94 378.676 377.736 378.864 378.668 378.864C379.315 378.864 379.906 378.773 380.44 378.591C380.986 378.409 381.452 378.148 381.838 377.807C382.224 377.455 382.509 377.034 382.69 376.545H391.281C390.986 378.364 390.287 379.943 389.185 381.284C388.082 382.614 386.622 383.648 384.804 384.386C382.997 385.114 380.884 385.477 378.463 385.477ZM395.121 385V358.818H404.257V363.795H404.53C405.007 361.955 405.763 360.608 406.797 359.756C407.842 358.903 409.064 358.477 410.462 358.477C410.871 358.477 411.274 358.511 411.672 358.58C412.081 358.636 412.473 358.722 412.848 358.835V366.864C412.382 366.705 411.808 366.585 411.126 366.506C410.445 366.426 409.859 366.386 409.371 366.386C408.45 366.386 407.621 366.597 406.882 367.017C406.155 367.426 405.581 368.006 405.161 368.756C404.74 369.494 404.53 370.364 404.53 371.364V385H395.121ZM439.865 367.341H431.206C431.161 366.807 430.973 366.347 430.643 365.96C430.314 365.574 429.888 365.278 429.365 365.074C428.854 364.858 428.286 364.75 427.661 364.75C426.854 364.75 426.161 364.898 425.581 365.193C425.001 365.489 424.717 365.909 424.729 366.455C424.717 366.841 424.882 367.199 425.223 367.528C425.575 367.858 426.251 368.114 427.251 368.295L432.57 369.25C435.251 369.739 437.246 370.562 438.553 371.722C439.871 372.869 440.536 374.409 440.547 376.341C440.536 378.205 439.979 379.824 438.876 381.199C437.786 382.562 436.291 383.619 434.393 384.369C432.507 385.108 430.354 385.477 427.933 385.477C423.933 385.477 420.803 384.659 418.541 383.023C416.291 381.386 415.036 379.227 414.774 376.545H424.115C424.24 377.375 424.649 378.017 425.342 378.472C426.047 378.915 426.933 379.136 428.001 379.136C428.865 379.136 429.575 378.989 430.132 378.693C430.7 378.398 430.99 377.977 431.001 377.432C430.99 376.932 430.74 376.534 430.251 376.239C429.774 375.943 429.024 375.705 428.001 375.523L423.365 374.705C420.695 374.239 418.695 373.352 417.365 372.045C416.036 370.739 415.376 369.057 415.388 367C415.376 365.182 415.854 363.642 416.82 362.381C417.797 361.108 419.189 360.142 420.996 359.483C422.814 358.812 424.967 358.477 427.456 358.477C431.24 358.477 434.223 359.261 436.405 360.83C438.598 362.398 439.751 364.568 439.865 367.341ZM453.561 350.091V385H444.152V350.091H453.561ZM458.355 385V358.818H467.764V385H458.355ZM463.06 356.091C461.787 356.091 460.696 355.67 459.787 354.83C458.878 353.989 458.423 352.977 458.423 351.795C458.423 350.614 458.878 349.602 459.787 348.761C460.696 347.92 461.787 347.5 463.06 347.5C464.344 347.5 465.435 347.92 466.332 348.761C467.241 349.602 467.696 350.614 467.696 351.795C467.696 352.977 467.241 353.989 466.332 354.83C465.435 355.67 464.344 356.091 463.06 356.091ZM482.036 385.341C480.172 385.341 478.456 384.852 476.888 383.875C475.331 382.898 474.081 381.415 473.138 379.426C472.206 377.437 471.74 374.932 471.74 371.909C471.74 368.75 472.229 366.182 473.206 364.205C474.195 362.227 475.467 360.778 477.024 359.858C478.592 358.938 480.24 358.477 481.967 358.477C483.263 358.477 484.399 358.705 485.376 359.159C486.354 359.602 487.172 360.199 487.831 360.949C488.49 361.687 488.99 362.5 489.331 363.386H489.467V350.091H498.876V385H489.536V380.705H489.331C488.967 381.591 488.445 382.386 487.763 383.091C487.092 383.784 486.274 384.335 485.308 384.744C484.354 385.142 483.263 385.341 482.036 385.341ZM485.513 378.114C486.376 378.114 487.115 377.864 487.729 377.364C488.354 376.852 488.831 376.136 489.161 375.216C489.501 374.284 489.672 373.182 489.672 371.909C489.672 370.614 489.501 369.506 489.161 368.585C488.831 367.653 488.354 366.943 487.729 366.455C487.115 365.955 486.376 365.705 485.513 365.705C484.649 365.705 483.911 365.955 483.297 366.455C482.695 366.943 482.229 367.653 481.899 368.585C481.581 369.506 481.422 370.614 481.422 371.909C481.422 373.205 481.581 374.318 481.899 375.25C482.229 376.17 482.695 376.881 483.297 377.381C483.911 377.869 484.649 378.114 485.513 378.114ZM516.041 385.477C513.246 385.477 510.837 384.943 508.814 383.875C506.803 382.795 505.251 381.25 504.161 379.239C503.081 377.216 502.541 374.795 502.541 371.977C502.541 369.273 503.087 366.909 504.178 364.886C505.268 362.864 506.808 361.29 508.797 360.165C510.786 359.04 513.132 358.477 515.837 358.477C517.814 358.477 519.604 358.784 521.206 359.398C522.808 360.011 524.178 360.903 525.314 362.074C526.45 363.233 527.325 364.642 527.939 366.301C528.553 367.96 528.859 369.83 528.859 371.909V374.091H505.473V368.909H520.2C520.189 368.159 519.996 367.5 519.621 366.932C519.257 366.352 518.763 365.903 518.138 365.585C517.524 365.256 516.825 365.091 516.041 365.091C515.28 365.091 514.581 365.256 513.945 365.585C513.308 365.903 512.797 366.347 512.411 366.915C512.036 367.483 511.837 368.148 511.814 368.909V374.5C511.814 375.341 511.99 376.091 512.342 376.75C512.695 377.409 513.2 377.926 513.859 378.301C514.518 378.676 515.314 378.864 516.246 378.864C516.893 378.864 517.484 378.773 518.018 378.591C518.564 378.409 519.03 378.148 519.416 377.807C519.803 377.455 520.087 377.034 520.268 376.545H528.859C528.564 378.364 527.865 379.943 526.763 381.284C525.661 382.614 524.2 383.648 522.382 384.386C520.575 385.114 518.462 385.477 516.041 385.477ZM556.631 367.341H547.972C547.926 366.807 547.739 366.347 547.409 365.96C547.08 365.574 546.653 365.278 546.131 365.074C545.619 364.858 545.051 364.75 544.426 364.75C543.619 364.75 542.926 364.898 542.347 365.193C541.767 365.489 541.483 365.909 541.494 366.455C541.483 366.841 541.648 367.199 541.989 367.528C542.341 367.858 543.017 368.114 544.017 368.295L549.335 369.25C552.017 369.739 554.011 370.562 555.318 371.722C556.636 372.869 557.301 374.409 557.312 376.341C557.301 378.205 556.744 379.824 555.642 381.199C554.551 382.562 553.057 383.619 551.159 384.369C549.273 385.108 547.119 385.477 544.699 385.477C540.699 385.477 537.568 384.659 535.307 383.023C533.057 381.386 531.801 379.227 531.54 376.545H540.881C541.006 377.375 541.415 378.017 542.108 378.472C542.813 378.915 543.699 379.136 544.767 379.136C545.631 379.136 546.341 378.989 546.898 378.693C547.466 378.398 547.756 377.977 547.767 377.432C547.756 376.932 547.506 376.534 547.017 376.239C546.54 375.943 545.79 375.705 544.767 375.523L540.131 374.705C537.46 374.239 535.46 373.352 534.131 372.045C532.801 370.739 532.142 369.057 532.153 367C532.142 365.182 532.619 363.642 533.585 362.381C534.563 361.108 535.955 360.142 537.761 359.483C539.58 358.812 541.733 358.477 544.222 358.477C548.006 358.477 550.989 359.261 553.17 360.83C555.364 362.398 556.517 364.568 556.631 367.341Z" fill="black"/>
<path d="M344.006 614.591C342.631 614.591 341.376 614.256 340.239 613.585C339.103 612.903 338.194 611.994 337.512 610.858C336.842 609.722 336.506 608.466 336.506 607.091C336.506 605.705 336.842 604.449 337.512 603.324C338.194 602.187 339.103 601.284 340.239 600.614C341.376 599.932 342.631 599.591 344.006 599.591C345.393 599.591 346.648 599.932 347.773 600.614C348.91 601.284 349.813 602.187 350.484 603.324C351.165 604.449 351.506 605.705 351.506 607.091C351.506 608.466 351.165 609.722 350.484 610.858C349.813 611.994 348.91 612.903 347.773 613.585C346.648 614.256 345.393 614.591 344.006 614.591ZM387.023 621L380.477 594.818H389.886L392.886 610.773H393.091L396.432 594.818H405.568L409.045 610.636H409.25L412.114 594.818H421.523L414.977 621H404.818L401.136 606.955H400.864L397.182 621H387.023ZM424.386 621V594.818H433.523V599.795H433.795C434.273 597.955 435.028 596.608 436.062 595.756C437.108 594.903 438.33 594.477 439.727 594.477C440.136 594.477 440.54 594.511 440.938 594.58C441.347 594.636 441.739 594.722 442.114 594.835V602.864C441.648 602.705 441.074 602.585 440.392 602.506C439.71 602.426 439.125 602.386 438.636 602.386C437.716 602.386 436.886 602.597 436.148 603.017C435.42 603.426 434.847 604.006 434.426 604.756C434.006 605.494 433.795 606.364 433.795 607.364V621H424.386ZM445.199 621V594.818H454.608V621H445.199ZM449.903 592.091C448.631 592.091 447.54 591.67 446.631 590.83C445.722 589.989 445.267 588.977 445.267 587.795C445.267 586.614 445.722 585.602 446.631 584.761C447.54 583.92 448.631 583.5 449.903 583.5C451.188 583.5 452.278 583.92 453.176 584.761C454.085 585.602 454.54 586.614 454.54 587.795C454.54 588.977 454.085 589.989 453.176 590.83C452.278 591.67 451.188 592.091 449.903 592.091ZM475.016 594.818V601.636H457.766V594.818H475.016ZM461.107 588.545H470.516V612.58C470.516 612.943 470.578 613.25 470.703 613.5C470.828 613.739 471.021 613.92 471.283 614.045C471.544 614.159 471.879 614.216 472.288 614.216C472.572 614.216 472.902 614.182 473.277 614.114C473.663 614.045 473.947 613.989 474.129 613.943L475.493 620.557C475.072 620.682 474.47 620.835 473.686 621.017C472.913 621.199 471.993 621.318 470.925 621.375C468.766 621.489 466.953 621.267 465.487 620.71C464.021 620.142 462.919 619.25 462.18 618.034C461.442 616.818 461.084 615.295 461.107 613.466V588.545ZM491.119 621.477C488.324 621.477 485.915 620.943 483.892 619.875C481.881 618.795 480.33 617.25 479.239 615.239C478.159 613.216 477.619 610.795 477.619 607.977C477.619 605.273 478.165 602.909 479.256 600.886C480.347 598.864 481.886 597.29 483.875 596.165C485.864 595.04 488.21 594.477 490.915 594.477C492.892 594.477 494.682 594.784 496.284 595.398C497.886 596.011 499.256 596.903 500.392 598.074C501.528 599.233 502.403 600.642 503.017 602.301C503.631 603.96 503.938 605.83 503.938 607.909V610.091H480.551V604.909H495.278C495.267 604.159 495.074 603.5 494.699 602.932C494.335 602.352 493.841 601.903 493.216 601.585C492.602 601.256 491.903 601.091 491.119 601.091C490.358 601.091 489.659 601.256 489.023 601.585C488.386 601.903 487.875 602.347 487.489 602.915C487.114 603.483 486.915 604.148 486.892 604.909V610.5C486.892 611.341 487.068 612.091 487.42 612.75C487.773 613.409 488.278 613.926 488.938 614.301C489.597 614.676 490.392 614.864 491.324 614.864C491.972 614.864 492.563 614.773 493.097 614.591C493.642 614.409 494.108 614.148 494.494 613.807C494.881 613.455 495.165 613.034 495.347 612.545H503.938C503.642 614.364 502.943 615.943 501.841 617.284C500.739 618.614 499.278 619.648 497.46 620.386C495.653 621.114 493.54 621.477 491.119 621.477ZM532.953 594.818V601.636H515.703V594.818H532.953ZM519.044 588.545H528.453V612.58C528.453 612.943 528.516 613.25 528.641 613.5C528.766 613.739 528.959 613.92 529.22 614.045C529.482 614.159 529.817 614.216 530.226 614.216C530.51 614.216 530.839 614.182 531.214 614.114C531.601 614.045 531.885 613.989 532.067 613.943L533.43 620.557C533.01 620.682 532.408 620.835 531.624 621.017C530.851 621.199 529.93 621.318 528.862 621.375C526.703 621.489 524.891 621.267 523.425 620.71C521.959 620.142 520.857 619.25 520.118 618.034C519.379 616.818 519.021 615.295 519.044 613.466V588.545ZM544.088 621.409C542.418 621.409 540.94 621.136 539.656 620.591C538.384 620.034 537.384 619.193 536.656 618.068C535.929 616.943 535.565 615.511 535.565 613.773C535.565 612.341 535.81 611.119 536.298 610.108C536.787 609.085 537.469 608.25 538.344 607.602C539.219 606.955 540.236 606.46 541.395 606.119C542.565 605.778 543.827 605.557 545.179 605.455C546.645 605.341 547.821 605.205 548.707 605.045C549.605 604.875 550.253 604.642 550.651 604.347C551.048 604.04 551.247 603.636 551.247 603.136V603.068C551.247 602.386 550.986 601.864 550.463 601.5C549.94 601.136 549.27 600.955 548.452 600.955C547.554 600.955 546.821 601.153 546.253 601.551C545.696 601.937 545.361 602.534 545.247 603.341H536.588C536.702 601.75 537.207 600.284 538.105 598.943C539.014 597.591 540.338 596.511 542.077 595.705C543.815 594.886 545.986 594.477 548.588 594.477C550.463 594.477 552.145 594.699 553.634 595.142C555.122 595.574 556.389 596.182 557.435 596.966C558.48 597.739 559.276 598.648 559.821 599.693C560.378 600.727 560.656 601.852 560.656 603.068V621H551.861V617.318H551.656C551.134 618.295 550.497 619.085 549.747 619.688C549.009 620.29 548.162 620.727 547.207 621C546.264 621.273 545.224 621.409 544.088 621.409ZM547.156 615.477C547.872 615.477 548.543 615.33 549.168 615.034C549.804 614.739 550.321 614.312 550.719 613.756C551.116 613.199 551.315 612.523 551.315 611.727V609.545C551.065 609.648 550.798 609.744 550.514 609.835C550.241 609.926 549.946 610.011 549.628 610.091C549.321 610.17 548.991 610.244 548.639 610.312C548.298 610.381 547.94 610.443 547.565 610.5C546.838 610.614 546.241 610.801 545.776 611.062C545.321 611.312 544.98 611.625 544.753 612C544.537 612.364 544.429 612.773 544.429 613.227C544.429 613.955 544.685 614.511 545.196 614.898C545.707 615.284 546.361 615.477 547.156 615.477ZM574.561 586.091V621H565.152V586.091H574.561ZM587.81 614.795L587.878 603.614H589.105L595.446 594.818H606.014L595.378 608.523H592.719L587.81 614.795ZM579.355 621V586.091H588.764V621H579.355ZM595.514 621L589.514 610.636L595.651 603.955L606.287 621H595.514Z" fill="black"/>
<path d="M275.619 522.909V513.364H313.545V522.909H300.42V557H288.744V522.909H275.619ZM329.195 557.597C325.644 557.597 322.604 556.893 320.076 555.487C317.548 554.067 315.609 552.092 314.259 549.564C312.91 547.021 312.235 544.074 312.235 540.722C312.235 537.369 312.91 534.429 314.259 531.901C315.609 529.358 317.548 527.384 320.076 525.977C322.604 524.557 325.644 523.847 329.195 523.847C332.746 523.847 335.786 524.557 338.315 525.977C340.843 527.384 342.782 529.358 344.131 531.901C345.481 534.429 346.156 537.369 346.156 540.722C346.156 544.074 345.481 547.021 344.131 549.564C342.782 552.092 340.843 554.067 338.315 555.487C335.786 556.893 332.746 557.597 329.195 557.597ZM329.281 548.903C330.275 548.903 331.134 548.57 331.859 547.902C332.583 547.234 333.144 546.283 333.542 545.047C333.94 543.811 334.138 542.341 334.138 540.636C334.138 538.918 333.94 537.447 333.542 536.226C333.144 534.99 332.583 534.038 331.859 533.371C331.134 532.703 330.275 532.369 329.281 532.369C328.229 532.369 327.327 532.703 326.575 533.371C325.822 534.038 325.246 534.99 324.849 536.226C324.451 537.447 324.252 538.918 324.252 540.636C324.252 542.341 324.451 543.811 324.849 545.047C325.246 546.283 325.822 547.234 326.575 547.902C327.327 548.57 328.229 548.903 329.281 548.903ZM374.728 557.426C372.398 557.426 370.254 556.815 368.293 555.594C366.347 554.372 364.785 552.518 363.606 550.033C362.441 547.547 361.859 544.415 361.859 540.636C361.859 536.687 362.469 533.477 363.691 531.006C364.927 528.534 366.518 526.723 368.464 525.572C370.424 524.422 372.484 523.847 374.643 523.847C376.262 523.847 377.683 524.131 378.904 524.699C380.126 525.253 381.148 525.999 381.972 526.936C382.796 527.859 383.421 528.875 383.847 529.983H384.018V513.364H395.779V557H384.103V551.631H383.847C383.393 552.739 382.739 553.733 381.887 554.614C381.049 555.48 380.026 556.169 378.819 556.68C377.626 557.178 376.262 557.426 374.728 557.426ZM379.075 548.392C380.154 548.392 381.077 548.08 381.844 547.455C382.626 546.815 383.222 545.92 383.634 544.77C384.06 543.605 384.273 542.227 384.273 540.636C384.273 539.017 384.06 537.632 383.634 536.482C383.222 535.317 382.626 534.429 381.844 533.818C381.077 533.193 380.154 532.881 379.075 532.881C377.995 532.881 377.072 533.193 376.305 533.818C375.552 534.429 374.969 535.317 374.558 536.482C374.16 537.632 373.961 539.017 373.961 540.636C373.961 542.256 374.16 543.648 374.558 544.812C374.969 545.963 375.552 546.851 376.305 547.476C377.072 548.087 377.995 548.392 379.075 548.392ZM417.32 557.597C413.769 557.597 410.729 556.893 408.201 555.487C405.673 554.067 403.734 552.092 402.384 549.564C401.035 547.021 400.36 544.074 400.36 540.722C400.36 537.369 401.035 534.429 402.384 531.901C403.734 529.358 405.673 527.384 408.201 525.977C410.729 524.557 413.769 523.847 417.32 523.847C420.871 523.847 423.911 524.557 426.44 525.977C428.968 527.384 430.907 529.358 432.256 531.901C433.606 534.429 434.281 537.369 434.281 540.722C434.281 544.074 433.606 547.021 432.256 549.564C430.907 552.092 428.968 554.067 426.44 555.487C423.911 556.893 420.871 557.597 417.32 557.597ZM417.406 548.903C418.4 548.903 419.259 548.57 419.984 547.902C420.708 547.234 421.269 546.283 421.667 545.047C422.065 543.811 422.263 542.341 422.263 540.636C422.263 538.918 422.065 537.447 421.667 536.226C421.269 534.99 420.708 534.038 419.984 533.371C419.259 532.703 418.4 532.369 417.406 532.369C416.354 532.369 415.452 532.703 414.7 533.371C413.947 534.038 413.371 534.99 412.974 536.226C412.576 537.447 412.377 538.918 412.377 540.636C412.377 542.341 412.576 543.811 412.974 545.047C413.371 546.283 413.947 547.234 414.7 547.902C415.452 548.57 416.354 548.903 417.406 548.903Z" fill="black"/>
<path d="M344.006 679.591C342.631 679.591 341.376 679.256 340.239 678.585C339.103 677.903 338.194 676.994 337.512 675.858C336.842 674.722 336.506 673.466 336.506 672.091C336.506 670.705 336.842 669.449 337.512 668.324C338.194 667.187 339.103 666.284 340.239 665.614C341.376 664.932 342.631 664.591 344.006 664.591C345.393 664.591 346.648 664.932 347.773 665.614C348.91 666.284 349.813 667.187 350.484 668.324C351.165 669.449 351.506 670.705 351.506 672.091C351.506 673.466 351.165 674.722 350.484 675.858C349.813 676.994 348.91 677.903 347.773 678.585C346.648 679.256 345.393 679.591 344.006 679.591ZM382.386 695.818V659.818H391.727V664.386H391.932C392.273 663.5 392.773 662.687 393.432 661.949C394.091 661.199 394.909 660.602 395.886 660.159C396.864 659.705 398 659.477 399.295 659.477C401.023 659.477 402.665 659.938 404.222 660.858C405.79 661.778 407.063 663.227 408.04 665.205C409.028 667.182 409.523 669.75 409.523 672.909C409.523 675.932 409.051 678.437 408.108 680.426C407.176 682.415 405.926 683.898 404.358 684.875C402.801 685.852 401.091 686.341 399.227 686.341C398 686.341 396.903 686.142 395.938 685.744C394.983 685.335 394.165 684.784 393.483 684.091C392.813 683.386 392.295 682.591 391.932 681.705H391.795V695.818H382.386ZM391.591 672.909C391.591 674.182 391.756 675.284 392.085 676.216C392.426 677.136 392.903 677.852 393.517 678.364C394.142 678.864 394.886 679.114 395.75 679.114C396.614 679.114 397.347 678.869 397.949 678.381C398.563 677.881 399.028 677.17 399.347 676.25C399.676 675.318 399.841 674.205 399.841 672.909C399.841 671.614 399.676 670.506 399.347 669.585C399.028 668.653 398.563 667.943 397.949 667.455C397.347 666.955 396.614 666.705 395.75 666.705C394.886 666.705 394.142 666.955 393.517 667.455C392.903 667.943 392.426 668.653 392.085 669.585C391.756 670.506 391.591 671.614 391.591 672.909ZM413.464 686V659.818H422.601V664.795H422.874C423.351 662.955 424.107 661.608 425.141 660.756C426.186 659.903 427.408 659.477 428.805 659.477C429.214 659.477 429.618 659.511 430.016 659.58C430.425 659.636 430.817 659.722 431.192 659.835V667.864C430.726 667.705 430.152 667.585 429.47 667.506C428.788 667.426 428.203 667.386 427.714 667.386C426.794 667.386 425.964 667.597 425.226 668.017C424.499 668.426 423.925 669.006 423.504 669.756C423.084 670.494 422.874 671.364 422.874 672.364V686H413.464ZM440.354 686.409C438.683 686.409 437.206 686.136 435.922 685.591C434.649 685.034 433.649 684.193 432.922 683.068C432.195 681.943 431.831 680.511 431.831 678.773C431.831 677.341 432.075 676.119 432.564 675.108C433.053 674.085 433.734 673.25 434.609 672.602C435.484 671.955 436.501 671.46 437.661 671.119C438.831 670.778 440.092 670.557 441.445 670.455C442.911 670.341 444.087 670.205 444.973 670.045C445.871 669.875 446.518 669.642 446.916 669.347C447.314 669.04 447.513 668.636 447.513 668.136V668.068C447.513 667.386 447.251 666.864 446.729 666.5C446.206 666.136 445.536 665.955 444.717 665.955C443.82 665.955 443.087 666.153 442.518 666.551C441.962 666.937 441.626 667.534 441.513 668.341H432.854C432.967 666.75 433.473 665.284 434.371 663.943C435.28 662.591 436.604 661.511 438.342 660.705C440.081 659.886 442.251 659.477 444.854 659.477C446.729 659.477 448.411 659.699 449.899 660.142C451.388 660.574 452.655 661.182 453.7 661.966C454.746 662.739 455.541 663.648 456.087 664.693C456.643 665.727 456.922 666.852 456.922 668.068V686H448.126V682.318H447.922C447.399 683.295 446.763 684.085 446.013 684.688C445.274 685.29 444.428 685.727 443.473 686C442.53 686.273 441.49 686.409 440.354 686.409ZM443.422 680.477C444.138 680.477 444.808 680.33 445.433 680.034C446.07 679.739 446.587 679.312 446.984 678.756C447.382 678.199 447.581 677.523 447.581 676.727V674.545C447.331 674.648 447.064 674.744 446.78 674.835C446.507 674.926 446.212 675.011 445.893 675.091C445.587 675.17 445.257 675.244 444.905 675.312C444.564 675.381 444.206 675.443 443.831 675.5C443.104 675.614 442.507 675.801 442.041 676.062C441.587 676.312 441.246 676.625 441.018 677C440.803 677.364 440.695 677.773 440.695 678.227C440.695 678.955 440.95 679.511 441.462 679.898C441.973 680.284 442.626 680.477 443.422 680.477ZM474.031 686.477C471.19 686.477 468.759 685.915 466.736 684.79C464.713 683.653 463.162 682.074 462.082 680.051C461.003 678.017 460.463 675.659 460.463 672.977C460.463 670.295 461.003 667.943 462.082 665.92C463.162 663.886 464.713 662.307 466.736 661.182C468.759 660.045 471.19 659.477 474.031 659.477C476.599 659.477 478.821 659.943 480.696 660.875C482.582 661.795 484.043 663.102 485.077 664.795C486.111 666.477 486.634 668.455 486.645 670.727H477.918C477.793 669.352 477.395 668.307 476.724 667.591C476.065 666.864 475.213 666.5 474.168 666.5C473.349 666.5 472.634 666.739 472.02 667.216C471.406 667.682 470.929 668.392 470.588 669.347C470.247 670.29 470.077 671.477 470.077 672.909C470.077 674.341 470.247 675.534 470.588 676.489C470.929 677.432 471.406 678.142 472.02 678.619C472.634 679.085 473.349 679.318 474.168 679.318C474.861 679.318 475.474 679.159 476.009 678.841C476.543 678.511 476.974 678.034 477.304 677.409C477.645 676.773 477.849 676 477.918 675.091H486.645C486.611 677.398 486.082 679.409 485.06 681.125C484.037 682.83 482.588 684.148 480.713 685.08C478.849 686.011 476.622 686.477 474.031 686.477ZM506.141 659.818V666.636H488.891V659.818H506.141ZM492.232 653.545H501.641V677.58C501.641 677.943 501.703 678.25 501.828 678.5C501.953 678.739 502.146 678.92 502.408 679.045C502.669 679.159 503.004 679.216 503.413 679.216C503.697 679.216 504.027 679.182 504.402 679.114C504.788 679.045 505.072 678.989 505.254 678.943L506.618 685.557C506.197 685.682 505.595 685.835 504.811 686.017C504.038 686.199 503.118 686.318 502.05 686.375C499.891 686.489 498.078 686.267 496.612 685.71C495.146 685.142 494.044 684.25 493.305 683.034C492.567 681.818 492.209 680.295 492.232 678.466V653.545ZM509.98 686V659.818H519.389V686H509.98ZM514.685 657.091C513.412 657.091 512.321 656.67 511.412 655.83C510.503 654.989 510.048 653.977 510.048 652.795C510.048 651.614 510.503 650.602 511.412 649.761C512.321 648.92 513.412 648.5 514.685 648.5C515.969 648.5 517.06 648.92 517.957 649.761C518.866 650.602 519.321 651.614 519.321 652.795C519.321 653.977 518.866 654.989 517.957 655.83C517.06 656.67 515.969 657.091 514.685 657.091ZM536.797 686.477C533.956 686.477 531.524 685.915 529.501 684.79C527.479 683.653 525.928 682.074 524.848 680.051C523.768 678.017 523.229 675.659 523.229 672.977C523.229 670.295 523.768 667.943 524.848 665.92C525.928 663.886 527.479 662.307 529.501 661.182C531.524 660.045 533.956 659.477 536.797 659.477C539.365 659.477 541.587 659.943 543.462 660.875C545.348 661.795 546.808 663.102 547.842 664.795C548.876 666.477 549.399 668.455 549.411 670.727H540.683C540.558 669.352 540.161 668.307 539.49 667.591C538.831 666.864 537.979 666.5 536.933 666.5C536.115 666.5 535.399 666.739 534.786 667.216C534.172 667.682 533.695 668.392 533.354 669.347C533.013 670.29 532.842 671.477 532.842 672.909C532.842 674.341 533.013 675.534 533.354 676.489C533.695 677.432 534.172 678.142 534.786 678.619C535.399 679.085 536.115 679.318 536.933 679.318C537.626 679.318 538.24 679.159 538.774 678.841C539.308 678.511 539.74 678.034 540.07 677.409C540.411 676.773 540.615 676 540.683 675.091H549.411C549.376 677.398 548.848 679.409 547.825 681.125C546.803 682.83 545.354 684.148 543.479 685.08C541.615 686.011 539.388 686.477 536.797 686.477ZM565.838 686.477C563.043 686.477 560.634 685.943 558.611 684.875C556.599 683.795 555.048 682.25 553.957 680.239C552.878 678.216 552.338 675.795 552.338 672.977C552.338 670.273 552.884 667.909 553.974 665.886C555.065 663.864 556.605 662.29 558.594 661.165C560.582 660.04 562.929 659.477 565.634 659.477C567.611 659.477 569.401 659.784 571.003 660.398C572.605 661.011 573.974 661.903 575.111 663.074C576.247 664.233 577.122 665.642 577.736 667.301C578.349 668.96 578.656 670.83 578.656 672.909V675.091H555.27V669.909H569.997C569.986 669.159 569.793 668.5 569.418 667.932C569.054 667.352 568.56 666.903 567.935 666.585C567.321 666.256 566.622 666.091 565.838 666.091C565.077 666.091 564.378 666.256 563.741 666.585C563.105 666.903 562.594 667.347 562.207 667.915C561.832 668.483 561.634 669.148 561.611 669.909V675.5C561.611 676.341 561.787 677.091 562.139 677.75C562.491 678.409 562.997 678.926 563.656 679.301C564.315 679.676 565.111 679.864 566.043 679.864C566.69 679.864 567.281 679.773 567.815 679.591C568.361 679.409 568.827 679.148 569.213 678.807C569.599 678.455 569.884 678.034 570.065 677.545H578.656C578.361 679.364 577.662 680.943 576.56 682.284C575.457 683.614 573.997 684.648 572.179 685.386C570.372 686.114 568.259 686.477 565.838 686.477ZM607.672 659.818V666.636H590.422V659.818H607.672ZM593.763 653.545H603.172V677.58C603.172 677.943 603.234 678.25 603.359 678.5C603.484 678.739 603.678 678.92 603.939 679.045C604.2 679.159 604.536 679.216 604.945 679.216C605.229 679.216 605.558 679.182 605.933 679.114C606.32 679.045 606.604 678.989 606.786 678.943L608.149 685.557C607.729 685.682 607.126 685.835 606.342 686.017C605.57 686.199 604.649 686.318 603.581 686.375C601.422 686.489 599.609 686.267 598.143 685.71C596.678 685.142 595.575 684.25 594.837 683.034C594.098 681.818 593.74 680.295 593.763 678.466V653.545ZM618.807 686.409C617.136 686.409 615.659 686.136 614.375 685.591C613.102 685.034 612.102 684.193 611.375 683.068C610.648 681.943 610.284 680.511 610.284 678.773C610.284 677.341 610.528 676.119 611.017 675.108C611.506 674.085 612.188 673.25 613.062 672.602C613.938 671.955 614.955 671.46 616.114 671.119C617.284 670.778 618.545 670.557 619.898 670.455C621.364 670.341 622.54 670.205 623.426 670.045C624.324 669.875 624.972 669.642 625.369 669.347C625.767 669.04 625.966 668.636 625.966 668.136V668.068C625.966 667.386 625.705 666.864 625.182 666.5C624.659 666.136 623.989 665.955 623.17 665.955C622.273 665.955 621.54 666.153 620.972 666.551C620.415 666.937 620.08 667.534 619.966 668.341H611.307C611.42 666.75 611.926 665.284 612.824 663.943C613.733 662.591 615.057 661.511 616.795 660.705C618.534 659.886 620.705 659.477 623.307 659.477C625.182 659.477 626.864 659.699 628.352 660.142C629.841 660.574 631.108 661.182 632.153 661.966C633.199 662.739 633.994 663.648 634.54 664.693C635.097 665.727 635.375 666.852 635.375 668.068V686H626.58V682.318H626.375C625.852 683.295 625.216 684.085 624.466 684.688C623.727 685.29 622.881 685.727 621.926 686C620.983 686.273 619.943 686.409 618.807 686.409ZM621.875 680.477C622.591 680.477 623.261 680.33 623.886 680.034C624.523 679.739 625.04 679.312 625.438 678.756C625.835 678.199 626.034 677.523 626.034 676.727V674.545C625.784 674.648 625.517 674.744 625.233 674.835C624.96 674.926 624.665 675.011 624.347 675.091C624.04 675.17 623.71 675.244 623.358 675.312C623.017 675.381 622.659 675.443 622.284 675.5C621.557 675.614 620.96 675.801 620.494 676.062C620.04 676.312 619.699 676.625 619.472 677C619.256 677.364 619.148 677.773 619.148 678.227C619.148 678.955 619.403 679.511 619.915 679.898C620.426 680.284 621.08 680.477 621.875 680.477ZM649.28 651.091V686H639.871V651.091H649.28ZM662.528 679.795L662.597 668.614H663.824L670.165 659.818H680.733L670.097 673.523H667.438L662.528 679.795ZM654.074 686V651.091H663.483V686H654.074ZM670.233 686L664.233 675.636L670.369 668.955L681.006 686H670.233Z" fill="black"/>
<path d="M786 404.667C806.25 404.667 822.667 388.25 822.667 368C822.667 347.75 806.25 331.333 786 331.333C765.75 331.333 749.333 347.75 749.333 368C749.333 388.25 765.75 404.667 786 404.667Z" stroke="black" stroke-width="8" stroke-linecap="round" stroke-linejoin="round"/>
<path d="M771.333 368H800.667" stroke="black" stroke-width="8" stroke-linecap="round" stroke-linejoin="round"/>
<path d="M786 353.333V382.667" stroke="black" stroke-width="8" stroke-linecap="round" stroke-linejoin="round"/>
<path d="M645.624 106.96V54.4H652.104V61.96H653.4L652.104 63.472C652.104 60.448 653.088 58.072 655.056 56.344C657.072 54.568 659.712 53.68 662.976 53.68C666.96 53.68 670.128 55 672.48 57.64C674.88 60.232 676.08 63.808 676.08 68.368V79.96C676.08 82.984 675.528 85.6 674.424 87.808C673.368 90.016 671.856 91.72 669.888 92.92C667.968 94.12 665.664 94.72 662.976 94.72C659.76 94.72 657.144 93.832 655.128 92.056C653.112 90.28 652.104 87.904 652.104 84.928L653.4 86.44H651.96L652.104 95.44V106.96H645.624ZM660.816 89.104C663.552 89.104 665.688 88.288 667.224 86.656C668.808 85.024 669.6 82.672 669.6 79.6V68.8C669.6 65.728 668.808 63.376 667.224 61.744C665.688 60.112 663.552 59.296 660.816 59.296C658.176 59.296 656.064 60.136 654.48 61.816C652.896 63.496 652.104 65.824 652.104 68.8V79.6C652.104 82.576 652.896 84.904 654.48 86.584C656.064 88.264 658.176 89.104 660.816 89.104ZM703.772 94.576C700.604 94.576 697.868 93.976 695.564 92.776C693.26 91.576 691.46 89.848 690.164 87.592C688.916 85.288 688.292 82.576 688.292 79.456V68.944C688.292 65.776 688.916 63.064 690.164 60.808C691.46 58.552 693.26 56.824 695.564 55.624C697.868 54.424 700.604 53.824 703.772 53.824C706.94 53.824 709.676 54.424 711.98 55.624C714.284 56.824 716.06 58.552 717.308 60.808C718.604 63.064 719.252 65.752 719.252 68.872V79.456C719.252 82.576 718.604 85.288 717.308 87.592C716.06 89.848 714.284 91.576 711.98 92.776C709.676 93.976 706.94 94.576 703.772 94.576ZM703.772 88.816C706.604 88.816 708.812 88.024 710.396 86.44C711.98 84.856 712.772 82.528 712.772 79.456V68.944C712.772 65.872 711.98 63.544 710.396 61.96C708.812 60.376 706.604 59.584 703.772 59.584C700.988 59.584 698.78 60.376 697.148 61.96C695.564 63.544 694.772 65.872 694.772 68.944V79.456C694.772 82.528 695.564 84.856 697.148 86.44C698.78 88.024 700.988 88.816 703.772 88.816ZM745.72 94.576C743.032 94.576 740.68 94.168 738.664 93.352C736.696 92.488 735.112 91.288 733.912 89.752C732.76 88.216 732.064 86.392 731.824 84.28H738.304C738.592 85.672 739.36 86.776 740.608 87.592C741.904 88.408 743.608 88.816 745.72 88.816H748.744C751.288 88.816 753.184 88.312 754.432 87.304C755.68 86.248 756.304 84.856 756.304 83.128C756.304 81.448 755.728 80.128 754.576 79.168C753.472 78.16 751.816 77.488 749.608 77.152L744.28 76.288C740.392 75.616 737.488 74.416 735.568 72.688C733.696 70.912 732.76 68.344 732.76 64.984C732.76 61.432 733.888 58.696 736.144 56.776C738.4 54.808 741.784 53.824 746.296 53.824H749.032C752.824 53.824 755.872 54.712 758.176 56.488C760.48 58.264 761.872 60.664 762.352 63.688H755.872C755.584 62.44 754.864 61.456 753.712 60.736C752.56 59.968 751 59.584 749.032 59.584H746.296C743.848 59.584 742.048 60.04 740.896 60.952C739.792 61.864 739.24 63.232 739.24 65.056C739.24 66.688 739.72 67.888 740.68 68.656C741.64 69.424 743.152 69.976 745.216 70.312L750.544 71.176C754.816 71.848 757.912 73.096 759.832 74.92C761.8 76.744 762.784 79.384 762.784 82.84C762.784 86.488 761.608 89.368 759.256 91.48C756.952 93.544 753.448 94.576 748.744 94.576H745.72ZM794.436 94C791.028 94 788.364 93.088 786.444 91.264C784.572 89.44 783.636 86.872 783.636 83.56V60.304H772.476V54.4H783.636V43.24H790.116V54.4H805.956V60.304H790.116V83.56C790.116 86.584 791.556 88.096 794.436 88.096H805.236V94H794.436ZM818.168 94V41.44H826.808L842.864 86.44C842.768 85.24 842.648 83.776 842.504 82.048C842.408 80.272 842.312 78.424 842.216 76.504C842.168 74.536 842.144 72.688 842.144 70.96V41.44H848.408V94H839.768L823.784 49C823.88 50.152 823.976 51.616 824.072 53.392C824.168 55.12 824.24 56.968 824.288 58.936C824.384 60.856 824.432 62.704 824.432 64.48V94H818.168ZM876.459 94.72C873.339 94.72 870.603 94.096 868.251 92.848C865.947 91.6 864.147 89.848 862.851 87.592C861.603 85.288 860.979 82.624 860.979 79.6V68.8C860.979 65.728 861.603 63.064 862.851 60.808C864.147 58.552 865.947 56.8 868.251 55.552C870.603 54.304 873.339 53.68 876.459 53.68C879.579 53.68 882.291 54.304 884.595 55.552C886.947 56.8 888.747 58.552 889.995 60.808C891.291 63.064 891.939 65.728 891.939 68.8V75.784H867.315V79.6C867.315 82.72 868.107 85.12 869.691 86.8C871.275 88.432 873.531 89.248 876.459 89.248C878.955 89.248 880.971 88.816 882.507 87.952C884.043 87.04 884.979 85.696 885.315 83.92H891.795C891.363 87.232 889.731 89.872 886.899 91.84C884.115 93.76 880.635 94.72 876.459 94.72ZM885.603 71.464V68.8C885.603 65.68 884.811 63.28 883.227 61.6C881.691 59.92 879.435 59.08 876.459 59.08C873.531 59.08 871.275 59.92 869.691 61.6C868.107 63.28 867.315 65.68 867.315 68.8V70.888H886.107L885.603 71.464ZM906.887 94L900.551 54.4H906.311L910.271 82.48C910.415 83.536 910.559 84.688 910.703 85.936C910.895 87.136 911.039 88.144 911.135 88.96C911.231 88.144 911.375 87.136 911.567 85.936C911.807 84.688 911.999 83.536 912.143 82.48L916.535 54.4H922.727L927.119 82.48C927.263 83.536 927.431 84.688 927.623 85.936C927.863 87.136 928.031 88.144 928.127 88.96C928.223 88.144 928.367 87.136 928.559 85.936C928.799 84.688 928.991 83.536 929.135 82.48L933.239 54.4H938.711L932.087 94H924.959L920.711 66.64C920.519 65.296 920.303 63.952 920.063 62.608C919.823 61.264 919.655 60.208 919.559 59.44C919.463 60.208 919.319 61.264 919.127 62.608C918.935 63.952 918.719 65.296 918.479 66.64L914.015 94H906.887ZM948.763 94V88.096H959.491V47.344H948.763V41.44H976.843V47.344H966.115V88.096H976.843V94H948.763ZM1010.3 94C1006.89 94 1004.22 93.088 1002.3 91.264C1000.43 89.44 999.495 86.872 999.495 83.56V60.304H988.335V54.4H999.495V43.24H1005.98V54.4H1021.82V60.304H1005.98V83.56C1005.98 86.584 1007.42 88.096 1010.3 88.096H1021.1V94H1010.3ZM1049.15 94.72C1046.03 94.72 1043.29 94.096 1040.94 92.848C1038.63 91.6 1036.83 89.848 1035.54 87.592C1034.29 85.288 1033.67 82.624 1033.67 79.6V68.8C1033.67 65.728 1034.29 63.064 1035.54 60.808C1036.83 58.552 1038.63 56.8 1040.94 55.552C1043.29 54.304 1046.03 53.68 1049.15 53.68C1052.27 53.68 1054.98 54.304 1057.28 55.552C1059.63 56.8 1061.43 58.552 1062.68 60.808C1063.98 63.064 1064.63 65.728 1064.63 68.8V75.784H1040V79.6C1040 82.72 1040.79 85.12 1042.38 86.8C1043.96 88.432 1046.22 89.248 1049.15 89.248C1051.64 89.248 1053.66 88.816 1055.19 87.952C1056.73 87.04 1057.67 85.696 1058 83.92H1064.48C1064.05 87.232 1062.42 89.872 1059.59 91.84C1056.8 93.76 1053.32 94.72 1049.15 94.72ZM1058.29 71.464V68.8C1058.29 65.68 1057.5 63.28 1055.91 61.6C1054.38 59.92 1052.12 59.08 1049.15 59.08C1046.22 59.08 1043.96 59.92 1042.38 61.6C1040.79 63.28 1040 65.68 1040 68.8V70.888H1058.79L1058.29 71.464ZM1075.47 94V54.4H1081.16V59.152H1082.45L1081.45 60.88C1081.45 58.672 1082.02 56.92 1083.17 55.624C1084.37 54.328 1085.98 53.68 1088 53.68C1090.21 53.68 1091.91 54.496 1093.11 56.128C1094.31 57.76 1094.91 60.064 1094.91 63.04L1092.97 59.152H1095.99L1094.62 60.88C1094.62 58.672 1095.22 56.92 1096.42 55.624C1097.67 54.328 1099.3 53.68 1101.32 53.68C1103.81 53.68 1105.73 54.616 1107.08 56.488C1108.47 58.36 1109.17 60.832 1109.17 63.904V94H1103.19V63.832C1103.19 62.2 1102.83 60.928 1102.11 60.016C1101.44 59.104 1100.43 58.648 1099.09 58.648C1097.79 58.648 1096.76 59.104 1095.99 60.016C1095.27 60.88 1094.91 62.128 1094.91 63.76V94H1089.73V63.832C1089.73 62.152 1089.34 60.88 1088.57 60.016C1087.85 59.104 1086.82 58.648 1085.48 58.648C1084.13 58.648 1083.13 59.104 1082.45 60.016C1081.78 60.88 1081.45 62.128 1081.45 63.76V94H1075.47Z" fill="black"/>
<path d="M786 368L910 118" stroke="#444444" stroke-width="12"/>
<rect x="615" y="27" width="531" height="92" stroke="#444444" stroke-width="12"/>
<rect x="615" y="27" width="531" height="92" stroke="#444444" stroke-width="12"/>
<path d="M645.624 106.96V54.4H652.104V61.96H653.4L652.104 63.472C652.104 60.448 653.088 58.072 655.056 56.344C657.072 54.568 659.712 53.68 662.976 53.68C666.96 53.68 670.128 55 672.48 57.64C674.88 60.232 676.08 63.808 676.08 68.368V79.96C676.08 82.984 675.528 85.6 674.424 87.808C673.368 90.016 671.856 91.72 669.888 92.92C667.968 94.12 665.664 94.72 662.976 94.72C659.76 94.72 657.144 93.832 655.128 92.056C653.112 90.28 652.104 87.904 652.104 84.928L653.4 86.44H651.96L652.104 95.44V106.96H645.624ZM660.816 89.104C663.552 89.104 665.688 88.288 667.224 86.656C668.808 85.024 669.6 82.672 669.6 79.6V68.8C669.6 65.728 668.808 63.376 667.224 61.744C665.688 60.112 663.552 59.296 660.816 59.296C658.176 59.296 656.064 60.136 654.48 61.816C652.896 63.496 652.104 65.824 652.104 68.8V79.6C652.104 82.576 652.896 84.904 654.48 86.584C656.064 88.264 658.176 89.104 660.816 89.104ZM703.772 94.576C700.604 94.576 697.868 93.976 695.564 92.776C693.26 91.576 691.46 89.848 690.164 87.592C688.916 85.288 688.292 82.576 688.292 79.456V68.944C688.292 65.776 688.916 63.064 690.164 60.808C691.46 58.552 693.26 56.824 695.564 55.624C697.868 54.424 700.604 53.824 703.772 53.824C706.94 53.824 709.676 54.424 711.98 55.624C714.284 56.824 716.06 58.552 717.308 60.808C718.604 63.064 719.252 65.752 719.252 68.872V79.456C719.252 82.576 718.604 85.288 717.308 87.592C716.06 89.848 714.284 91.576 711.98 92.776C709.676 93.976 706.94 94.576 703.772 94.576ZM703.772 88.816C706.604 88.816 708.812 88.024 710.396 86.44C711.98 84.856 712.772 82.528 712.772 79.456V68.944C712.772 65.872 711.98 63.544 710.396 61.96C708.812 60.376 706.604 59.584 703.772 59.584C700.988 59.584 698.78 60.376 697.148 61.96C695.564 63.544 694.772 65.872 694.772 68.944V79.456C694.772 82.528 695.564 84.856 697.148 86.44C698.78 88.024 700.988 88.816 703.772 88.816ZM745.72 94.576C743.032 94.576 740.68 94.168 738.664 93.352C736.696 92.488 735.112 91.288 733.912 89.752C732.76 88.216 732.064 86.392 731.824 84.28H738.304C738.592 85.672 739.36 86.776 740.608 87.592C741.904 88.408 743.608 88.816 745.72 88.816H748.744C751.288 88.816 753.184 88.312 754.432 87.304C755.68 86.248 756.304 84.856 756.304 83.128C756.304 81.448 755.728 80.128 754.576 79.168C753.472 78.16 751.816 77.488 749.608 77.152L744.28 76.288C740.392 75.616 737.488 74.416 735.568 72.688C733.696 70.912 732.76 68.344 732.76 64.984C732.76 61.432 733.888 58.696 736.144 56.776C738.4 54.808 741.784 53.824 746.296 53.824H749.032C752.824 53.824 755.872 54.712 758.176 56.488C760.48 58.264 761.872 60.664 762.352 63.688H755.872C755.584 62.44 754.864 61.456 753.712 60.736C752.56 59.968 751 59.584 749.032 59.584H746.296C743.848 59.584 742.048 60.04 740.896 60.952C739.792 61.864 739.24 63.232 739.24 65.056C739.24 66.688 739.72 67.888 740.68 68.656C741.64 69.424 743.152 69.976 745.216 70.312L750.544 71.176C754.816 71.848 757.912 73.096 759.832 74.92C761.8 76.744 762.784 79.384 762.784 82.84C762.784 86.488 761.608 89.368 759.256 91.48C756.952 93.544 753.448 94.576 748.744 94.576H745.72ZM794.436 94C791.028 94 788.364 93.088 786.444 91.264C784.572 89.44 783.636 86.872 783.636 83.56V60.304H772.476V54.4H783.636V43.24H790.116V54.4H805.956V60.304H790.116V83.56C790.116 86.584 791.556 88.096 794.436 88.096H805.236V94H794.436ZM818.168 94V41.44H826.808L842.864 86.44C842.768 85.24 842.648 83.776 842.504 82.048C842.408 80.272 842.312 78.424 842.216 76.504C842.168 74.536 842.144 72.688 842.144 70.96V41.44H848.408V94H839.768L823.784 49C823.88 50.152 823.976 51.616 824.072 53.392C824.168 55.12 824.24 56.968 824.288 58.936C824.384 60.856 824.432 62.704 824.432 64.48V94H818.168ZM876.459 94.72C873.339 94.72 870.603 94.096 868.251 92.848C865.947 91.6 864.147 89.848 862.851 87.592C861.603 85.288 860.979 82.624 860.979 79.6V68.8C860.979 65.728 861.603 63.064 862.851 60.808C864.147 58.552 865.947 56.8 868.251 55.552C870.603 54.304 873.339 53.68 876.459 53.68C879.579 53.68 882.291 54.304 884.595 55.552C886.947 56.8 888.747 58.552 889.995 60.808C891.291 63.064 891.939 65.728 891.939 68.8V75.784H867.315V79.6C867.315 82.72 868.107 85.12 869.691 86.8C871.275 88.432 873.531 89.248 876.459 89.248C878.955 89.248 880.971 88.816 882.507 87.952C884.043 87.04 884.979 85.696 885.315 83.92H891.795C891.363 87.232 889.731 89.872 886.899 91.84C884.115 93.76 880.635 94.72 876.459 94.72ZM885.603 71.464V68.8C885.603 65.68 884.811 63.28 883.227 61.6C881.691 59.92 879.435 59.08 876.459 59.08C873.531 59.08 871.275 59.92 869.691 61.6C868.107 63.28 867.315 65.68 867.315 68.8V70.888H886.107L885.603 71.464ZM906.887 94L900.551 54.4H906.311L910.271 82.48C910.415 83.536 910.559 84.688 910.703 85.936C910.895 87.136 911.039 88.144 911.135 88.96C911.231 88.144 911.375 87.136 911.567 85.936C911.807 84.688 911.999 83.536 912.143 82.48L916.535 54.4H922.727L927.119 82.48C927.263 83.536 927.431 84.688 927.623 85.936C927.863 87.136 928.031 88.144 928.127 88.96C928.223 88.144 928.367 87.136 928.559 85.936C928.799 84.688 928.991 83.536 929.135 82.48L933.239 54.4H938.711L932.087 94H924.959L920.711 66.64C920.519 65.296 920.303 63.952 920.063 62.608C919.823 61.264 919.655 60.208 919.559 59.44C919.463 60.208 919.319 61.264 919.127 62.608C918.935 63.952 918.719 65.296 918.479 66.64L914.015 94H906.887ZM948.763 94V88.096H959.491V47.344H948.763V41.44H976.843V47.344H966.115V88.096H976.843V94H948.763ZM1010.3 94C1006.89 94 1004.22 93.088 1002.3 91.264C1000.43 89.44 999.495 86.872 999.495 83.56V60.304H988.335V54.4H999.495V43.24H1005.98V54.4H1021.82V60.304H1005.98V83.56C1005.98 86.584 1007.42 88.096 1010.3 88.096H1021.1V94H1010.3ZM1049.15 94.72C1046.03 94.72 1043.29 94.096 1040.94 92.848C1038.63 91.6 1036.83 89.848 1035.54 87.592C1034.29 85.288 1033.67 82.624 1033.67 79.6V68.8C1033.67 65.728 1034.29 63.064 1035.54 60.808C1036.83 58.552 1038.63 56.8 1040.94 55.552C1043.29 54.304 1046.03 53.68 1049.15 53.68C1052.27 53.68 1054.98 54.304 1057.28 55.552C1059.63 56.8 1061.43 58.552 1062.68 60.808C1063.98 63.064 1064.63 65.728 1064.63 68.8V75.784H1040V79.6C1040 82.72 1040.79 85.12 1042.38 86.8C1043.96 88.432 1046.22 89.248 1049.15 89.248C1051.64 89.248 1053.66 88.816 1055.19 87.952C1056.73 87.04 1057.67 85.696 1058 83.92H1064.48C1064.05 87.232 1062.42 89.872 1059.59 91.84C1056.8 93.76 1053.32 94.72 1049.15 94.72ZM1058.29 71.464V68.8C1058.29 65.68 1057.5 63.28 1055.91 61.6C1054.38 59.92 1052.12 59.08 1049.15 59.08C1046.22 59.08 1043.96 59.92 1042.38 61.6C1040.79 63.28 1040 65.68 1040 68.8V70.888H1058.79L1058.29 71.464ZM1075.47 94V54.4H1081.16V59.152H1082.45L1081.45 60.88C1081.45 58.672 1082.02 56.92 1083.17 55.624C1084.37 54.328 1085.98 53.68 1088 53.68C1090.21 53.68 1091.91 54.496 1093.11 56.128C1094.31 57.76 1094.91 60.064 1094.91 63.04L1092.97 59.152H1095.99L1094.62 60.88C1094.62 58.672 1095.22 56.92 1096.42 55.624C1097.67 54.328 1099.3 53.68 1101.32 53.68C1103.81 53.68 1105.73 54.616 1107.08 56.488C1108.47 58.36 1109.17 60.832 1109.17 63.904V94H1103.19V63.832C1103.19 62.2 1102.83 60.928 1102.11 60.016C1101.44 59.104 1100.43 58.648 1099.09 58.648C1097.79 58.648 1096.76 59.104 1095.99 60.016C1095.27 60.88 1094.91 62.128 1094.91 63.76V94H1089.73V63.832C1089.73 62.152 1089.34 60.88 1088.57 60.016C1087.85 59.104 1086.82 58.648 1085.48 58.648C1084.13 58.648 1083.13 59.104 1082.45 60.016C1081.78 60.88 1081.45 62.128 1081.45 63.76V94H1075.47Z" fill="black"/>
<path d="M3070.83 658H2079.17" stroke="#33699E" stroke-width="36" stroke-linecap="round" stroke-linejoin="round"/>
<path d="M2250.23 316.371L2079.17 658V955.5C2079.17 981.801 2089.61 1007.02 2108.21 1025.62C2126.81 1044.22 2152.03 1054.67 2178.33 1054.67H2971.67C2997.97 1054.67 3023.19 1044.22 3041.79 1025.62C3060.39 1007.02 3070.83 981.801 3070.83 955.5V658L2899.77 316.371C2891.56 299.849 2878.9 285.945 2863.23 276.222C2847.55 266.499 2829.47 261.343 2811.02 261.333H2338.98C2320.53 261.343 2302.45 266.499 2286.77 276.222C2271.1 285.945 2258.44 299.849 2250.23 316.371Z" stroke="#33699E" stroke-width="36" stroke-linecap="round" stroke-linejoin="round"/>
<path d="M2277.5 856.333H2278" stroke="#33699E" stroke-width="36" stroke-linecap="round" stroke-linejoin="round"/>
<path d="M2475.83 856.333H2476.33" stroke="#33699E" stroke-width="36" stroke-linecap="round" stroke-linejoin="round"/>
<rect x="2309" y="424" width="531" height="92" stroke="#444444" stroke-width="12"/>
<path d="M2339.62 503.96V451.4H2346.1V458.96H2347.4L2346.1 460.472C2346.1 457.448 2347.09 455.072 2349.06 453.344C2351.07 451.568 2353.71 450.68 2356.98 450.68C2360.96 450.68 2364.13 452 2366.48 454.64C2368.88 457.232 2370.08 460.808 2370.08 465.368V476.96C2370.08 479.984 2369.53 482.6 2368.42 484.808C2367.37 487.016 2365.86 488.72 2363.89 489.92C2361.97 491.12 2359.66 491.72 2356.98 491.72C2353.76 491.72 2351.14 490.832 2349.13 489.056C2347.11 487.28 2346.1 484.904 2346.1 481.928L2347.4 483.44H2345.96L2346.1 492.44V503.96H2339.62ZM2354.82 486.104C2357.55 486.104 2359.69 485.288 2361.22 483.656C2362.81 482.024 2363.6 479.672 2363.6 476.6V465.8C2363.6 462.728 2362.81 460.376 2361.22 458.744C2359.69 457.112 2357.55 456.296 2354.82 456.296C2352.18 456.296 2350.06 457.136 2348.48 458.816C2346.9 460.496 2346.1 462.824 2346.1 465.8V476.6C2346.1 479.576 2346.9 481.904 2348.48 483.584C2350.06 485.264 2352.18 486.104 2354.82 486.104ZM2397.77 491.576C2394.6 491.576 2391.87 490.976 2389.56 489.776C2387.26 488.576 2385.46 486.848 2384.16 484.592C2382.92 482.288 2382.29 479.576 2382.29 476.456V465.944C2382.29 462.776 2382.92 460.064 2384.16 457.808C2385.46 455.552 2387.26 453.824 2389.56 452.624C2391.87 451.424 2394.6 450.824 2397.77 450.824C2400.94 450.824 2403.68 451.424 2405.98 452.624C2408.28 453.824 2410.06 455.552 2411.31 457.808C2412.6 460.064 2413.25 462.752 2413.25 465.872V476.456C2413.25 479.576 2412.6 482.288 2411.31 484.592C2410.06 486.848 2408.28 488.576 2405.98 489.776C2403.68 490.976 2400.94 491.576 2397.77 491.576ZM2397.77 485.816C2400.6 485.816 2402.81 485.024 2404.4 483.44C2405.98 481.856 2406.77 479.528 2406.77 476.456V465.944C2406.77 462.872 2405.98 460.544 2404.4 458.96C2402.81 457.376 2400.6 456.584 2397.77 456.584C2394.99 456.584 2392.78 457.376 2391.15 458.96C2389.56 460.544 2388.77 462.872 2388.77 465.944V476.456C2388.77 479.528 2389.56 481.856 2391.15 483.44C2392.78 485.024 2394.99 485.816 2397.77 485.816ZM2439.72 491.576C2437.03 491.576 2434.68 491.168 2432.66 490.352C2430.7 489.488 2429.11 488.288 2427.91 486.752C2426.76 485.216 2426.06 483.392 2425.82 481.28H2432.3C2432.59 482.672 2433.36 483.776 2434.61 484.592C2435.9 485.408 2437.61 485.816 2439.72 485.816H2442.74C2445.29 485.816 2447.18 485.312 2448.43 484.304C2449.68 483.248 2450.3 481.856 2450.3 480.128C2450.3 478.448 2449.73 477.128 2448.58 476.168C2447.47 475.16 2445.82 474.488 2443.61 474.152L2438.28 473.288C2434.39 472.616 2431.49 471.416 2429.57 469.688C2427.7 467.912 2426.76 465.344 2426.76 461.984C2426.76 458.432 2427.89 455.696 2430.14 453.776C2432.4 451.808 2435.78 450.824 2440.3 450.824H2443.03C2446.82 450.824 2449.87 451.712 2452.18 453.488C2454.48 455.264 2455.87 457.664 2456.35 460.688H2449.87C2449.58 459.44 2448.86 458.456 2447.71 457.736C2446.56 456.968 2445 456.584 2443.03 456.584H2440.3C2437.85 456.584 2436.05 457.04 2434.9 457.952C2433.79 458.864 2433.24 460.232 2433.24 462.056C2433.24 463.688 2433.72 464.888 2434.68 465.656C2435.64 466.424 2437.15 466.976 2439.22 467.312L2444.54 468.176C2448.82 468.848 2451.91 470.096 2453.83 471.92C2455.8 473.744 2456.78 476.384 2456.78 479.84C2456.78 483.488 2455.61 486.368 2453.26 488.48C2450.95 490.544 2447.45 491.576 2442.74 491.576H2439.72ZM2488.44 491C2485.03 491 2482.36 490.088 2480.44 488.264C2478.57 486.44 2477.64 483.872 2477.64 480.56V457.304H2466.48V451.4H2477.64V440.24H2484.12V451.4H2499.96V457.304H2484.12V480.56C2484.12 483.584 2485.56 485.096 2488.44 485.096H2499.24V491H2488.44ZM2512.17 491V438.44H2520.81L2536.86 483.44C2536.77 482.24 2536.65 480.776 2536.5 479.048C2536.41 477.272 2536.31 475.424 2536.22 473.504C2536.17 471.536 2536.14 469.688 2536.14 467.96V438.44H2542.41V491H2533.77L2517.78 446C2517.88 447.152 2517.98 448.616 2518.07 450.392C2518.17 452.12 2518.24 453.968 2518.29 455.936C2518.38 457.856 2518.43 459.704 2518.43 461.48V491H2512.17ZM2570.46 491.72C2567.34 491.72 2564.6 491.096 2562.25 489.848C2559.95 488.6 2558.15 486.848 2556.85 484.592C2555.6 482.288 2554.98 479.624 2554.98 476.6V465.8C2554.98 462.728 2555.6 460.064 2556.85 457.808C2558.15 455.552 2559.95 453.8 2562.25 452.552C2564.6 451.304 2567.34 450.68 2570.46 450.68C2573.58 450.68 2576.29 451.304 2578.6 452.552C2580.95 453.8 2582.75 455.552 2584 457.808C2585.29 460.064 2585.94 462.728 2585.94 465.8V472.784H2561.32V476.6C2561.32 479.72 2562.11 482.12 2563.69 483.8C2565.28 485.432 2567.53 486.248 2570.46 486.248C2572.96 486.248 2574.97 485.816 2576.51 484.952C2578.04 484.04 2578.98 482.696 2579.32 480.92H2585.8C2585.36 484.232 2583.73 486.872 2580.9 488.84C2578.12 490.76 2574.64 491.72 2570.46 491.72ZM2579.6 468.464V465.8C2579.6 462.68 2578.81 460.28 2577.23 458.6C2575.69 456.92 2573.44 456.08 2570.46 456.08C2567.53 456.08 2565.28 456.92 2563.69 458.6C2562.11 460.28 2561.32 462.68 2561.32 465.8V467.888H2580.11L2579.6 468.464ZM2600.89 491L2594.55 451.4H2600.31L2604.27 479.48C2604.42 480.536 2604.56 481.688 2604.7 482.936C2604.9 484.136 2605.04 485.144 2605.14 485.96C2605.23 485.144 2605.38 484.136 2605.57 482.936C2605.81 481.688 2606 480.536 2606.14 479.48L2610.54 451.4H2616.73L2621.12 479.48C2621.26 480.536 2621.43 481.688 2621.62 482.936C2621.86 484.136 2622.03 485.144 2622.13 485.96C2622.22 485.144 2622.37 484.136 2622.56 482.936C2622.8 481.688 2622.99 480.536 2623.14 479.48L2627.24 451.4H2632.71L2626.09 491H2618.96L2614.71 463.64C2614.52 462.296 2614.3 460.952 2614.06 459.608C2613.82 458.264 2613.66 457.208 2613.56 456.44C2613.46 457.208 2613.32 458.264 2613.13 459.608C2612.94 460.952 2612.72 462.296 2612.48 463.64L2608.02 491H2600.89ZM2642.76 491V485.096H2653.49V444.344H2642.76V438.44H2670.84V444.344H2660.12V485.096H2670.84V491H2642.76ZM2704.3 491C2700.89 491 2698.22 490.088 2696.3 488.264C2694.43 486.44 2693.5 483.872 2693.5 480.56V457.304H2682.34V451.4H2693.5V440.24H2699.98V451.4H2715.82V457.304H2699.98V480.56C2699.98 483.584 2701.42 485.096 2704.3 485.096H2715.1V491H2704.3ZM2743.15 491.72C2740.03 491.72 2737.29 491.096 2734.94 489.848C2732.63 488.6 2730.83 486.848 2729.54 484.592C2728.29 482.288 2727.67 479.624 2727.67 476.6V465.8C2727.67 462.728 2728.29 460.064 2729.54 457.808C2730.83 455.552 2732.63 453.8 2734.94 452.552C2737.29 451.304 2740.03 450.68 2743.15 450.68C2746.27 450.68 2748.98 451.304 2751.28 452.552C2753.63 453.8 2755.43 455.552 2756.68 457.808C2757.98 460.064 2758.63 462.728 2758.63 465.8V472.784H2734V476.6C2734 479.72 2734.79 482.12 2736.38 483.8C2737.96 485.432 2740.22 486.248 2743.15 486.248C2745.64 486.248 2747.66 485.816 2749.19 484.952C2750.73 484.04 2751.67 482.696 2752 480.92H2758.48C2758.05 484.232 2756.42 486.872 2753.59 488.84C2750.8 490.76 2747.32 491.72 2743.15 491.72ZM2752.29 468.464V465.8C2752.29 462.68 2751.5 460.28 2749.91 458.6C2748.38 456.92 2746.12 456.08 2743.15 456.08C2740.22 456.08 2737.96 456.92 2736.38 458.6C2734.79 460.28 2734 462.68 2734 465.8V467.888H2752.79L2752.29 468.464ZM2769.47 491V451.4H2775.16V456.152H2776.45L2775.45 457.88C2775.45 455.672 2776.02 453.92 2777.17 452.624C2778.37 451.328 2779.98 450.68 2782 450.68C2784.21 450.68 2785.91 451.496 2787.11 453.128C2788.31 454.76 2788.91 457.064 2788.91 460.04L2786.97 456.152H2789.99L2788.62 457.88C2788.62 455.672 2789.22 453.92 2790.42 452.624C2791.67 451.328 2793.3 450.68 2795.32 450.68C2797.81 450.68 2799.73 451.616 2801.08 453.488C2802.47 455.36 2803.17 457.832 2803.17 460.904V491H2797.19V460.832C2797.19 459.2 2796.83 457.928 2796.11 457.016C2795.44 456.104 2794.43 455.648 2793.09 455.648C2791.79 455.648 2790.76 456.104 2789.99 457.016C2789.27 457.88 2788.91 459.128 2788.91 460.76V491H2783.73V460.832C2783.73 459.152 2783.34 457.88 2782.57 457.016C2781.85 456.104 2780.82 455.648 2779.48 455.648C2778.13 455.648 2777.13 456.104 2776.45 457.016C2775.78 457.88 2775.45 459.128 2775.45 460.76V491H2769.47Z" fill="black"/>
<path d="M1298.34 4.36299L1318.04 10.5768C1320.71 11.4188 1323.21 12.5292 1325.54 13.9082C1327.88 15.2337 1329.81 16.8405 1331.33 18.7285C1332.9 20.6334 1333.94 22.8125 1334.46 25.2659C1334.98 27.7193 1334.77 30.4414 1333.83 33.4322C1332.53 37.5447 1330.29 40.5389 1327.12 42.415C1324.01 44.2545 1320.31 44.9967 1316.02 44.6417L1323.23 74.5709L1311.06 70.7315L1305.49 42.5553L1298.12 40.2315L1290.55 64.2651L1280.45 61.0825L1298.34 4.36299ZM1308.98 34.5816C1310.42 35.0363 1311.9 35.3841 1313.4 35.6252C1314.91 35.8662 1316.32 35.8698 1317.63 35.6359C1318.99 35.4189 1320.21 34.8942 1321.3 34.0618C1322.4 33.176 1323.22 31.8785 1323.76 30.1695C1324.24 28.6206 1324.29 27.2561 1323.9 26.0758C1323.53 24.8421 1322.9 23.7632 1322.02 22.8389C1321.13 21.9146 1320.03 21.1267 1318.71 20.4753C1317.44 19.8406 1316.17 19.3213 1314.89 18.9171L1305.75 16.0376L1300.73 31.9799L1308.98 34.5816ZM1363.77 61.9859C1364.16 60.7575 1364.34 59.5236 1364.32 58.2842C1364.35 57.0616 1364.13 55.9051 1363.65 54.8148C1363.17 53.7246 1362.42 52.7538 1361.4 51.9027C1360.45 51.015 1359.19 50.327 1357.65 49.8386C1354.76 48.9293 1352.03 49.0359 1349.44 50.1585C1346.93 51.2445 1345.13 53.1157 1344.06 55.7721L1363.77 61.9859ZM1372.02 69.3431C1371.88 69.7704 1371.75 70.1976 1371.61 70.6249C1371.48 71.0522 1371.32 71.471 1371.13 71.8814L1341.89 62.6618C1341.56 64.0841 1341.5 65.4753 1341.72 66.8356C1342 68.1592 1342.52 69.4083 1343.27 70.5827C1344.03 71.7038 1344.97 72.7068 1346.11 73.5916C1347.24 74.4764 1348.49 75.1377 1349.88 75.5756C1352.29 76.3333 1354.45 76.546 1356.38 76.2135C1358.32 75.8276 1360.07 75.0286 1361.62 73.8165L1366.42 80.9645C1361.01 84.896 1354.7 85.7252 1347.49 83.4518C1344.5 82.5088 1341.89 81.1876 1339.67 79.4882C1337.46 77.7354 1335.69 75.7098 1334.36 73.4113C1333.08 71.1297 1332.3 68.5921 1332 65.7986C1331.78 62.9684 1332.17 59.9778 1333.16 56.8268C1334.14 53.7291 1335.53 51.0851 1337.33 48.8949C1339.21 46.6681 1341.33 44.9597 1343.71 43.7698C1346.09 42.5265 1348.67 41.8114 1351.43 41.6247C1354.26 41.4014 1357.12 41.7444 1360 42.6538C1362.67 43.4957 1364.98 44.7243 1366.94 46.3395C1368.97 47.9182 1370.53 49.8497 1371.63 52.1342C1372.75 54.3653 1373.35 56.9325 1373.43 59.8358C1373.58 62.7025 1373.11 65.8716 1372.02 69.3431ZM1433.8 65.9231C1436.31 66.7146 1438.3 67.8421 1439.78 69.3058C1441.33 70.7328 1442.43 72.3442 1443.1 74.1398C1443.82 75.9523 1444.15 77.8774 1444.1 79.9151C1444.04 81.9528 1443.7 83.9597 1443.08 85.9358L1435.5 109.969L1425.89 106.938L1432.61 85.6285C1432.96 84.5069 1433.25 83.3067 1433.48 82.0278C1433.71 80.7488 1433.7 79.5445 1433.47 78.4148C1433.26 77.2316 1432.77 76.1681 1432.01 75.224C1431.31 74.2969 1430.18 73.5891 1428.63 73.1008C1427.14 72.6293 1425.75 72.5456 1424.48 72.8497C1423.21 73.1538 1422.07 73.7038 1421.06 74.4996C1420.04 75.2954 1419.17 76.2837 1418.45 77.4645C1417.74 78.5918 1417.19 79.7697 1416.8 80.9981L1410.19 101.988L1400.57 98.9564L1407.9 75.7238C1408.66 73.3205 1408.69 71.1591 1408.01 69.2398C1407.39 67.284 1405.85 65.9187 1403.4 65.1441C1401.95 64.6894 1400.6 64.6141 1399.33 64.9183C1398.07 65.169 1396.95 65.6655 1395.95 66.408C1395.01 67.1672 1394.15 68.1288 1393.37 69.2927C1392.66 70.4201 1392.1 71.6247 1391.7 72.9065L1385.03 94.0561L1375.42 91.025L1387.54 52.5711L1396.68 55.4507L1394.73 61.6193L1394.89 61.6698C1395.62 60.8432 1396.47 60.1121 1397.43 59.4764C1398.45 58.8577 1399.55 58.3527 1400.73 57.9615C1401.96 57.5871 1403.28 57.4151 1404.68 57.4454C1406.09 57.4223 1407.58 57.6549 1409.13 58.1432C1412.12 59.0863 1414.39 60.5369 1415.94 62.4952C1417.5 64.4534 1418.47 66.6958 1418.84 69.2223C1420.87 67.2765 1423.14 66.0262 1425.66 65.4714C1428.2 64.8632 1430.92 65.0138 1433.8 65.9231ZM1450.56 93.4024C1451.52 90.3582 1452.92 87.776 1454.76 85.6561C1456.68 83.4995 1458.85 81.8347 1461.27 80.6616C1463.7 79.4885 1466.34 78.8255 1469.21 78.6724C1472.07 78.5194 1474.95 78.8975 1477.83 79.8068C1480.72 80.7162 1483.29 82.0557 1485.55 83.8253C1487.81 85.5949 1489.6 87.6557 1490.91 90.0075C1492.23 92.3594 1493.02 94.9588 1493.3 97.8058C1493.64 100.616 1493.34 103.544 1492.38 106.588C1491.42 109.632 1489.98 112.232 1488.07 114.389C1486.21 116.562 1484.06 118.262 1481.62 119.489C1479.19 120.662 1476.54 121.352 1473.65 121.558C1470.77 121.765 1467.89 121.413 1465 120.504C1462.12 119.595 1459.55 118.228 1457.31 116.405C1455.07 114.582 1453.29 112.495 1451.97 110.143C1450.68 107.738 1449.86 105.103 1449.53 102.239C1449.26 99.3923 1449.6 96.4467 1450.56 93.4024ZM1460.33 96.4841C1459.86 97.9795 1459.6 99.5423 1459.56 101.172C1459.57 102.819 1459.84 104.374 1460.38 105.835C1460.92 107.296 1461.76 108.619 1462.91 109.805C1464.07 110.991 1465.61 111.886 1467.53 112.493C1469.45 113.099 1471.22 113.247 1472.85 112.937C1474.47 112.627 1475.92 112.028 1477.2 111.139C1478.48 110.251 1479.57 109.126 1480.47 107.765C1481.42 106.421 1482.13 105.002 1482.6 103.506C1483.08 102.011 1483.3 100.466 1483.27 98.8726C1483.32 97.2425 1483.07 95.6968 1482.53 94.2356C1482 92.7743 1481.14 91.4776 1479.97 90.3455C1478.82 89.1599 1477.28 88.2641 1475.36 87.6578C1473.44 87.0516 1471.66 86.9034 1470.04 87.2133C1468.43 87.4698 1466.99 88.0424 1465.71 88.9311C1464.43 89.8198 1463.32 90.9361 1462.36 92.28C1461.48 93.5873 1460.8 94.9886 1460.33 96.4841ZM1499.76 96.4079L1502.18 88.7171L1508.91 90.8389L1512.42 79.7033L1521.88 82.6839L1518.37 93.8195L1527.98 96.8506L1525.55 104.541L1515.94 101.51L1510.31 119.375C1509.77 121.084 1509.62 122.592 1509.85 123.899C1510.14 125.223 1511.35 126.221 1513.49 126.895C1514.13 127.097 1514.84 127.263 1515.62 127.391C1516.42 127.467 1517.15 127.464 1517.82 127.382L1515.77 135.014C1514.81 135.065 1513.72 134.985 1512.5 134.775C1511.26 134.618 1510.1 134.371 1509.03 134.034C1506.47 133.226 1504.5 132.222 1503.11 131.023C1501.75 129.77 1500.78 128.378 1500.2 126.846C1499.7 125.278 1499.51 123.634 1499.64 121.914C1499.84 120.157 1500.24 118.344 1500.83 116.475L1506.49 98.5297L1499.76 96.4079ZM1557.16 122.963C1557.55 121.735 1557.74 120.501 1557.72 119.262C1557.75 118.039 1557.53 116.883 1557.05 115.792C1556.57 114.702 1555.82 113.731 1554.79 112.88C1553.84 111.992 1552.59 111.304 1551.04 110.816C1548.16 109.907 1545.42 110.013 1542.84 111.136C1540.32 112.222 1538.53 114.093 1537.46 116.75L1557.16 122.963ZM1565.41 130.321C1565.28 130.748 1565.14 131.175 1565.01 131.602C1564.88 132.03 1564.71 132.449 1564.53 132.859L1535.28 123.639C1534.95 125.062 1534.9 126.453 1535.11 127.813C1535.4 129.137 1535.92 130.386 1536.66 131.56C1537.42 132.681 1538.37 133.684 1539.5 134.569C1540.63 135.454 1541.89 136.115 1543.28 136.553C1545.68 137.311 1547.85 137.523 1549.77 137.191C1551.71 136.805 1553.46 136.006 1555.02 134.794L1559.81 141.942C1554.4 145.874 1548.09 146.703 1540.88 144.429C1537.89 143.486 1535.29 142.165 1533.06 140.466C1530.85 138.713 1529.09 136.687 1527.76 134.389C1526.48 132.107 1525.69 129.57 1525.4 126.776C1525.18 123.946 1525.56 120.955 1526.56 117.804C1527.53 114.707 1528.92 112.063 1530.73 109.872C1532.61 107.646 1534.73 105.937 1537.1 104.747C1539.49 103.504 1542.06 102.789 1544.82 102.602C1547.65 102.379 1550.51 102.722 1553.4 103.631C1556.07 104.473 1558.38 105.702 1560.34 107.317C1562.36 108.896 1563.93 110.827 1565.03 113.112C1566.14 115.343 1566.74 117.91 1566.83 120.813C1566.98 123.68 1566.51 126.849 1565.41 130.321ZM1610.18 122.768L1608.49 128.136L1608.73 128.212C1609.44 127.615 1610.29 127.061 1611.28 126.549C1612.33 126.001 1613.51 125.61 1614.82 125.376C1616.14 125.089 1617.56 124.977 1619.06 125.041C1620.64 125.068 1622.31 125.36 1624.07 125.915C1626.8 126.774 1629.14 128.1 1631.1 129.892C1633.07 131.631 1634.6 133.669 1635.69 136.007C1636.77 138.345 1637.38 140.886 1637.51 143.629C1637.64 146.372 1637.27 149.159 1636.37 151.989C1635.48 154.82 1634.18 157.347 1632.48 159.571C1630.86 161.758 1628.92 163.526 1626.67 164.873C1624.5 166.184 1622.06 167.029 1619.36 167.41C1616.72 167.754 1613.94 167.463 1611 166.537C1608.28 165.678 1605.94 164.326 1604 162.48C1602.11 160.651 1600.85 158.582 1600.23 156.272L1600.07 156.221L1592.39 180.575L1582.78 177.544L1600.97 119.863L1610.18 122.768ZM1626.6 148.908C1627.07 147.412 1627.29 145.868 1627.27 144.274C1627.31 142.644 1627.06 141.098 1626.53 139.637C1625.99 138.176 1625.14 136.879 1623.97 135.747C1622.81 134.561 1621.3 133.674 1619.43 133.084C1617.67 132.529 1615.98 132.406 1614.35 132.716C1612.73 133.026 1611.22 133.608 1609.84 134.463C1608.51 135.335 1607.34 136.434 1606.33 137.761C1605.38 139.105 1604.67 140.525 1604.2 142.02C1603.73 143.516 1603.49 145.087 1603.5 146.734C1603.58 148.344 1603.92 149.889 1604.51 151.367C1605.15 152.862 1606.05 154.202 1607.2 155.388C1608.37 156.52 1609.84 157.364 1611.6 157.919C1613.47 158.509 1615.22 158.648 1616.84 158.339C1618.47 158.029 1619.92 157.429 1621.2 156.541C1622.48 155.652 1623.56 154.527 1624.46 153.167C1625.42 151.823 1626.13 150.403 1626.6 148.908ZM1651.66 135.848L1660.88 138.753L1658.85 145.162L1659.01 145.212C1660.79 143.306 1662.86 141.961 1665.22 141.179C1667.58 140.397 1670.04 140.41 1672.6 141.218C1672.98 141.336 1673.37 141.489 1673.78 141.677C1674.21 141.812 1674.57 141.983 1674.85 142.191L1672.07 151.003C1671.48 150.641 1670.96 150.357 1670.49 150.152C1670.08 149.964 1669.66 149.803 1669.24 149.668C1667.05 148.978 1665.16 148.822 1663.57 149.203C1661.98 149.583 1660.64 150.216 1659.54 151.101C1658.43 151.987 1657.57 152.976 1656.93 154.066C1656.29 155.157 1655.86 156.05 1655.64 156.744L1649.15 177.333L1639.54 174.302L1651.66 135.848ZM1671.18 162.964C1672.14 159.92 1673.54 157.338 1675.38 155.218C1677.3 153.061 1679.47 151.396 1681.89 150.223C1684.32 149.05 1686.96 148.387 1689.83 148.234C1692.7 148.081 1695.57 148.459 1698.46 149.369C1701.34 150.278 1703.91 151.617 1706.17 153.387C1708.43 155.157 1710.22 157.217 1711.53 159.569C1712.85 161.921 1713.64 164.521 1713.92 167.367C1714.27 170.178 1713.96 173.105 1713 176.15C1712.04 179.194 1710.6 181.794 1708.69 183.951C1706.83 186.124 1704.68 187.824 1702.24 189.051C1699.81 190.224 1697.16 190.913 1694.28 191.12C1691.39 191.326 1688.51 190.975 1685.62 190.066C1682.74 189.156 1680.18 187.79 1677.93 185.967C1675.69 184.144 1673.91 182.056 1672.6 179.705C1671.3 177.299 1670.49 174.665 1670.16 171.801C1669.88 168.954 1670.22 166.008 1671.18 162.964ZM1680.95 166.046C1680.48 167.541 1680.23 169.104 1680.18 170.734C1680.19 172.381 1680.46 173.935 1681 175.396C1681.54 176.858 1682.38 178.181 1683.54 179.367C1684.69 180.552 1686.23 181.448 1688.15 182.054C1690.07 182.661 1691.85 182.809 1693.47 182.499C1695.09 182.189 1696.55 181.59 1697.82 180.701C1699.1 179.812 1700.19 178.688 1701.09 177.327C1702.04 175.983 1702.75 174.563 1703.23 173.068C1703.7 171.572 1703.92 170.028 1703.89 168.434C1703.94 166.804 1703.69 165.259 1703.15 163.797C1702.62 162.336 1701.76 161.039 1700.59 159.907C1699.44 158.722 1697.9 157.826 1695.98 157.22C1694.06 156.613 1692.28 156.465 1690.66 156.775C1689.05 157.032 1687.61 157.604 1686.33 158.493C1685.05 159.382 1683.94 160.498 1682.98 161.842C1682.1 163.149 1681.43 164.55 1680.95 166.046ZM1751.25 178.962C1750.84 177.658 1749.99 176.423 1748.72 175.257C1747.46 174.038 1746.05 173.184 1744.51 172.696C1742.74 172.14 1741.08 172.026 1739.51 172.352C1737.95 172.626 1736.54 173.207 1735.26 174.095C1734.03 175.001 1732.97 176.134 1732.07 177.495C1731.19 178.802 1730.51 180.203 1730.04 181.699C1729.57 183.194 1729.31 184.757 1729.27 186.387C1729.29 187.981 1729.58 189.508 1730.11 190.969C1730.65 192.431 1731.47 193.746 1732.57 194.914C1733.74 196.046 1735.23 196.899 1737.05 197.471C1738.54 197.943 1740.13 198.121 1741.81 198.005C1743.49 197.889 1744.96 197.413 1746.22 196.578L1750.31 204.561C1748.17 205.765 1745.69 206.451 1742.88 206.621C1740.14 206.755 1737.32 206.367 1734.44 205.457C1731.61 204.565 1729.06 203.26 1726.78 201.544C1724.55 199.845 1722.76 197.811 1721.39 195.442C1720.08 193.09 1719.26 190.482 1718.93 187.619C1718.65 184.772 1719.02 181.746 1720.03 178.541C1721 175.444 1722.42 172.808 1724.28 170.635C1726.19 168.478 1728.36 166.813 1730.79 165.64C1733.21 164.467 1735.81 163.787 1738.57 163.601C1741.38 163.431 1744.2 163.792 1747.03 164.685C1749.86 165.577 1752.42 166.97 1754.7 168.863C1757.03 170.773 1758.68 172.907 1759.64 175.265L1751.25 178.962ZM1789.68 196.275C1790.07 195.046 1790.25 193.812 1790.23 192.573C1790.26 191.35 1790.04 190.194 1789.56 189.103C1789.08 188.013 1788.33 187.042 1787.31 186.191C1786.35 185.304 1785.1 184.616 1783.56 184.127C1780.67 183.218 1777.94 183.325 1775.35 184.447C1772.84 185.533 1771.04 187.404 1769.97 190.061L1789.68 196.275ZM1797.93 203.632C1797.79 204.059 1797.66 204.486 1797.52 204.914C1797.39 205.341 1797.23 205.76 1797.04 206.17L1767.8 196.95C1767.47 198.373 1767.41 199.764 1767.63 201.124C1767.91 202.448 1768.43 203.697 1769.18 204.871C1769.94 205.992 1770.88 206.995 1772.01 207.88C1773.14 208.765 1774.4 209.426 1775.79 209.864C1778.2 210.622 1780.36 210.835 1782.29 210.502C1784.23 210.116 1785.98 209.317 1787.53 208.105L1792.33 215.253C1786.92 219.185 1780.61 220.014 1773.4 217.74C1770.41 216.797 1767.8 215.476 1765.58 213.777C1763.37 212.024 1761.6 209.998 1760.27 207.7C1758.99 205.418 1758.21 202.881 1757.91 200.087C1757.69 197.257 1758.07 194.266 1759.07 191.115C1760.05 188.018 1761.44 185.374 1763.24 183.184C1765.12 180.957 1767.24 179.248 1769.61 178.058C1772 176.815 1774.58 176.1 1777.34 175.913C1780.17 175.69 1783.02 176.033 1785.91 176.942C1788.58 177.784 1790.89 179.013 1792.85 180.628C1794.88 182.207 1796.44 184.138 1797.54 186.423C1798.66 188.654 1799.26 191.221 1799.34 194.124C1799.49 196.991 1799.02 200.16 1797.93 203.632ZM1840.42 237.64L1831.29 234.761L1833.11 228.993L1832.95 228.942C1830.9 230.764 1828.5 231.884 1825.72 232.301C1823 232.735 1820.28 232.523 1817.56 231.664C1814.62 230.738 1812.14 229.37 1810.13 227.561C1808.19 225.715 1806.67 223.623 1805.59 221.286C1804.58 218.911 1804.01 216.352 1803.87 213.609C1803.81 210.83 1804.22 208.025 1805.12 205.194C1806.01 202.363 1807.3 199.863 1808.98 197.692C1810.66 195.522 1812.62 193.79 1814.85 192.496C1817.07 191.202 1819.5 190.41 1822.11 190.119C1824.75 189.775 1827.42 190.032 1830.15 190.891C1831.91 191.447 1833.42 192.157 1834.67 193.022C1835.94 193.834 1836.99 194.694 1837.82 195.601C1838.71 196.525 1839.41 197.452 1839.94 198.382C1840.47 199.313 1840.87 200.174 1841.15 200.966L1841.39 201.042L1849.9 174.044L1859.52 177.075L1840.42 237.64ZM1814.89 208.276C1814.42 209.771 1814.16 211.334 1814.12 212.964C1814.13 214.611 1814.4 216.165 1814.94 217.626C1815.47 219.088 1816.32 220.411 1817.47 221.596C1818.62 222.782 1820.14 223.669 1822.01 224.259C1823.77 224.815 1825.45 224.964 1827.06 224.708C1828.68 224.398 1830.16 223.807 1831.49 222.935C1832.88 222.08 1834.04 221.007 1834.98 219.717C1835.98 218.39 1836.72 216.979 1837.19 215.483C1837.66 213.988 1837.87 212.408 1837.8 210.744C1837.8 209.097 1837.47 207.526 1836.82 206.031C1836.23 204.553 1835.36 203.221 1834.21 202.036C1833.06 200.85 1831.6 199.98 1829.84 199.424C1827.97 198.835 1826.22 198.695 1824.6 199.005C1822.99 199.261 1821.54 199.834 1820.27 200.723C1818.99 201.611 1817.87 202.728 1816.92 204.071C1816.04 205.379 1815.36 206.78 1814.89 208.276ZM1887.19 252.386L1878.06 249.507L1880 243.338L1879.84 243.288C1878.38 244.941 1876.35 246.178 1873.74 247C1871.2 247.785 1868.49 247.723 1865.61 246.814C1863.1 246.023 1861.07 244.913 1859.52 243.486C1858.05 242.023 1856.95 240.385 1856.23 238.572C1855.56 236.776 1855.25 234.86 1855.31 232.822C1855.37 230.784 1855.7 228.778 1856.33 226.801L1863.91 202.768L1873.52 205.799L1866.8 227.109C1866.45 228.23 1866.16 229.431 1865.93 230.709C1865.7 231.988 1865.7 233.219 1865.91 234.403C1866.14 235.532 1866.61 236.561 1867.31 237.488C1868.07 238.432 1869.23 239.148 1870.78 239.636C1872.27 240.108 1873.67 240.227 1874.98 239.993C1876.36 239.722 1877.54 239.216 1878.54 238.474C1879.59 237.748 1880.5 236.83 1881.26 235.719C1882.04 234.556 1882.63 233.333 1883.03 232.051L1889.7 210.901L1899.31 213.932L1887.19 252.386ZM1910.85 217.57L1920.07 220.475L1918.05 226.884L1918.21 226.935C1919.98 225.028 1922.05 223.684 1924.41 222.902C1926.77 222.119 1929.23 222.132 1931.8 222.941C1932.17 223.058 1932.56 223.211 1932.97 223.4C1933.4 223.534 1933.76 223.706 1934.04 223.913L1931.26 232.726C1930.67 232.363 1930.15 232.08 1929.68 231.875C1929.27 231.687 1928.85 231.525 1928.43 231.391C1926.24 230.7 1924.35 230.545 1922.76 230.925C1921.17 231.305 1919.83 231.938 1918.73 232.824C1917.63 233.71 1916.76 234.698 1916.12 235.789C1915.48 236.88 1915.05 237.772 1914.83 238.467L1908.34 259.055L1898.73 256.024L1910.85 217.57ZM1960.86 250.247C1961.24 249.018 1961.43 247.784 1961.41 246.545C1961.44 245.322 1961.22 244.166 1960.74 243.075C1960.26 241.985 1959.51 241.014 1958.49 240.163C1957.53 239.276 1956.28 238.588 1954.73 238.099C1951.85 237.19 1949.11 237.297 1946.53 238.419C1944.01 239.505 1942.22 241.376 1941.15 244.033L1960.86 250.247ZM1969.1 257.604C1968.97 258.031 1968.84 258.458 1968.7 258.886C1968.57 259.313 1968.4 259.732 1968.22 260.142L1938.98 250.922C1938.64 252.345 1938.59 253.736 1938.8 255.096C1939.09 256.42 1939.61 257.669 1940.35 258.843C1941.12 259.964 1942.06 260.967 1943.19 261.852C1944.32 262.737 1945.58 263.398 1946.97 263.836C1949.37 264.594 1951.54 264.807 1953.46 264.474C1955.4 264.088 1957.15 263.289 1958.71 262.077L1963.5 269.225C1958.09 273.157 1951.78 273.986 1944.57 271.712C1941.58 270.769 1938.98 269.448 1936.75 267.749C1934.55 265.996 1932.78 263.97 1931.45 261.672C1930.17 259.39 1929.38 256.853 1929.09 254.059C1928.87 251.229 1929.25 248.238 1930.25 245.087C1931.22 241.99 1932.61 239.346 1934.42 237.156C1936.3 234.929 1938.42 233.22 1940.79 232.03C1943.18 230.787 1945.75 230.072 1948.51 229.885C1951.34 229.662 1954.2 230.005 1957.09 230.914C1959.76 231.756 1962.07 232.985 1964.03 234.6C1966.05 236.179 1967.62 238.11 1968.72 240.395C1969.83 242.626 1970.43 245.193 1970.52 248.096C1970.67 250.963 1970.2 254.132 1969.1 257.604ZM2027.57 266.087C2027.16 264.783 2026.32 263.548 2025.04 262.382C2023.78 261.163 2022.38 260.309 2020.83 259.821C2019.07 259.265 2017.4 259.15 2015.83 259.477C2014.28 259.75 2012.86 260.331 2011.58 261.22C2010.36 262.126 2009.29 263.259 2008.4 264.62C2007.51 265.927 2006.84 267.328 2006.37 268.824C2005.89 270.319 2005.64 271.882 2005.59 273.512C2005.62 275.106 2005.9 276.633 2006.44 278.094C2006.97 279.555 2007.79 280.87 2008.89 282.039C2010.06 283.171 2011.55 284.024 2013.37 284.596C2014.87 285.068 2016.45 285.245 2018.13 285.129C2019.82 285.013 2021.29 284.538 2022.55 283.703L2026.64 291.686C2024.5 292.889 2022.02 293.576 2019.21 293.746C2016.46 293.879 2013.65 293.491 2010.76 292.582C2007.93 291.69 2005.38 290.385 2003.1 288.669C2000.88 286.97 1999.08 284.936 1997.72 282.567C1996.4 280.215 1995.58 277.607 1995.25 274.743C1994.97 271.896 1995.34 268.871 1996.35 265.666C1997.33 262.569 1998.75 259.933 2000.61 257.76C2002.52 255.603 2004.69 253.938 2007.11 252.765C2009.54 251.592 2012.13 250.912 2014.89 250.725C2017.7 250.556 2020.53 250.917 2023.36 251.809C2026.19 252.702 2028.74 254.095 2031.02 255.988C2033.36 257.898 2035 260.032 2035.96 262.39L2027.57 266.087ZM2057.06 300.574L2056.82 300.499C2055.32 301.905 2053.33 302.832 2050.84 303.28C2048.37 303.674 2045.77 303.442 2043.04 302.583C2041.49 302.095 2039.93 301.368 2038.36 300.402C2036.82 299.506 2035.47 298.376 2034.32 297.014C2033.23 295.615 2032.44 294.016 2031.95 292.217C2031.54 290.382 2031.68 288.343 2032.39 286.1C2033.3 283.216 2034.82 281.172 2036.96 279.968C2039.16 278.781 2041.68 278.138 2044.53 278.038C2047.38 277.938 2050.39 278.243 2053.58 278.953C2056.83 279.626 2059.95 280.434 2062.94 281.377L2063.24 280.416C2064 278.012 2063.68 275.972 2062.27 274.295C2060.93 272.581 2059.06 271.345 2056.65 270.587C2054.62 269.948 2052.54 269.76 2050.4 270.025C2048.26 270.29 2046.39 270.844 2044.77 271.685L2041.65 264.27C2044.48 262.931 2047.47 262.201 2050.62 262.078C2053.82 261.973 2056.89 262.383 2059.83 263.309C2063.25 264.387 2065.9 265.752 2067.79 267.404C2069.73 269.072 2071.09 270.883 2071.89 272.836C2072.68 274.789 2073.01 276.803 2072.89 278.877C2072.82 280.968 2072.48 282.975 2071.87 284.898L2064.5 308.29L2055.52 305.461L2057.06 300.574ZM2060.89 287.866L2058.73 287.184C2057.18 286.696 2055.53 286.262 2053.77 285.884C2052.03 285.452 2050.36 285.249 2048.76 285.275C2047.19 285.247 2045.78 285.509 2044.55 286.061C2043.34 286.559 2042.51 287.529 2042.05 288.971C2041.76 289.879 2041.71 290.712 2041.88 291.471C2042.12 292.193 2042.5 292.842 2043.03 293.418C2043.55 293.994 2044.19 294.488 2044.94 294.901C2045.69 295.314 2046.46 295.647 2047.26 295.899C2050.58 296.943 2053.36 296.854 2055.63 295.63C2057.89 294.406 2059.51 292.272 2060.47 289.228L2060.89 287.866ZM2094.95 251.307L2104.57 254.339L2085.47 314.903L2075.86 311.872L2094.95 251.307ZM2116.39 258.066L2126 261.097L2106.91 321.662L2097.29 318.631L2116.39 258.066Z" fill="#444444"/>
<path d="M2297 440L2250.35 388.781L2229.32 454.794L2297 440ZM1143.18 78.7169L2243.73 429.325L2247.37 417.892L1146.82 67.2831L1143.18 78.7169Z" fill="#444444"/>
</svg>
