<svg width="3170" height="1251" viewBox="0 0 3170 1251" fill="none" xmlns="http://www.w3.org/2000/svg">
<path d="M973.758 848.266V353.866C973.758 324.728 962.175 296.783 941.557 276.179C920.94 255.575 892.976 244 863.818 244H204.182C175.024 244 147.06 255.575 126.443 276.179C105.825 296.783 94.2421 324.728 94.2421 353.866V848.266M973.758 848.266H94.2421M973.758 848.266L1044.12 988.345C1048.36 996.749 1050.36 1006.1 1049.95 1015.5C1049.53 1024.9 1046.7 1034.04 1041.73 1042.04C1036.77 1050.03 1029.83 1056.62 1021.58 1061.17C1013.34 1065.71 1004.06 1068.06 994.646 1068H73.3536C63.9367 1068.06 54.6609 1065.71 46.4154 1061.17C38.17 1056.62 31.2315 1050.03 26.2652 1042.04C21.299 1034.04 18.4716 1024.9 18.0541 1015.5C17.6365 1006.1 19.6429 996.749 23.8809 988.345L94.2421 848.266" stroke="#DD973C" stroke-width="36" stroke-linecap="round" stroke-linejoin="round"/>
<path d="M823.778 478H244.222C224.217 478 208 498.147 208 523V748C208 772.853 224.217 793 244.222 793H823.778C843.783 793 860 772.853 860 748V523C860 498.147 843.783 478 823.778 478Z" stroke="#448FBB" stroke-width="18" stroke-linecap="round" stroke-linejoin="round"/>
<path d="M823.778 290H244.222C224.217 290 208 320.23 208 332.222V403.397C208 415.389 224.217 442 244.222 442H823.778C843.783 442 860 415.389 860 403.397V332.222C860 320.23 843.783 290 823.778 290Z" stroke="#448FBB" stroke-width="18" stroke-linecap="round" stroke-linejoin="round"/>
<rect x="256" y="326" width="459" height="80" rx="10" stroke="black" stroke-width="8"/>
<path d="M344.006 612.591C342.631 612.591 341.376 612.256 340.239 611.585C339.103 610.903 338.194 609.994 337.512 608.858C336.842 607.722 336.506 606.466 336.506 605.091C336.506 603.705 336.842 602.449 337.512 601.324C338.194 600.187 339.103 599.284 340.239 598.614C341.376 597.932 342.631 597.591 344.006 597.591C345.393 597.591 346.648 597.932 347.773 598.614C348.91 599.284 349.813 600.187 350.484 601.324C351.165 602.449 351.506 603.705 351.506 605.091C351.506 606.466 351.165 607.722 350.484 608.858C349.813 609.994 348.91 610.903 347.773 611.585C346.648 612.256 345.393 612.591 344.006 612.591ZM387.023 619L380.477 592.818H389.886L392.886 608.773H393.091L396.432 592.818H405.568L409.045 608.636H409.25L412.114 592.818H421.523L414.977 619H404.818L401.136 604.955H400.864L397.182 619H387.023ZM424.386 619V592.818H433.523V597.795H433.795C434.273 595.955 435.028 594.608 436.062 593.756C437.108 592.903 438.33 592.477 439.727 592.477C440.136 592.477 440.54 592.511 440.938 592.58C441.347 592.636 441.739 592.722 442.114 592.835V600.864C441.648 600.705 441.074 600.585 440.392 600.506C439.71 600.426 439.125 600.386 438.636 600.386C437.716 600.386 436.886 600.597 436.148 601.017C435.42 601.426 434.847 602.006 434.426 602.756C434.006 603.494 433.795 604.364 433.795 605.364V619H424.386ZM445.199 619V592.818H454.608V619H445.199ZM449.903 590.091C448.631 590.091 447.54 589.67 446.631 588.83C445.722 587.989 445.267 586.977 445.267 585.795C445.267 584.614 445.722 583.602 446.631 582.761C447.54 581.92 448.631 581.5 449.903 581.5C451.188 581.5 452.278 581.92 453.176 582.761C454.085 583.602 454.54 584.614 454.54 585.795C454.54 586.977 454.085 587.989 453.176 588.83C452.278 589.67 451.188 590.091 449.903 590.091ZM475.016 592.818V599.636H457.766V592.818H475.016ZM461.107 586.545H470.516V610.58C470.516 610.943 470.578 611.25 470.703 611.5C470.828 611.739 471.021 611.92 471.283 612.045C471.544 612.159 471.879 612.216 472.288 612.216C472.572 612.216 472.902 612.182 473.277 612.114C473.663 612.045 473.947 611.989 474.129 611.943L475.493 618.557C475.072 618.682 474.47 618.835 473.686 619.017C472.913 619.199 471.993 619.318 470.925 619.375C468.766 619.489 466.953 619.267 465.487 618.71C464.021 618.142 462.919 617.25 462.18 616.034C461.442 614.818 461.084 613.295 461.107 611.466V586.545ZM491.119 619.477C488.324 619.477 485.915 618.943 483.892 617.875C481.881 616.795 480.33 615.25 479.239 613.239C478.159 611.216 477.619 608.795 477.619 605.977C477.619 603.273 478.165 600.909 479.256 598.886C480.347 596.864 481.886 595.29 483.875 594.165C485.864 593.04 488.21 592.477 490.915 592.477C492.892 592.477 494.682 592.784 496.284 593.398C497.886 594.011 499.256 594.903 500.392 596.074C501.528 597.233 502.403 598.642 503.017 600.301C503.631 601.96 503.938 603.83 503.938 605.909V608.091H480.551V602.909H495.278C495.267 602.159 495.074 601.5 494.699 600.932C494.335 600.352 493.841 599.903 493.216 599.585C492.602 599.256 491.903 599.091 491.119 599.091C490.358 599.091 489.659 599.256 489.023 599.585C488.386 599.903 487.875 600.347 487.489 600.915C487.114 601.483 486.915 602.148 486.892 602.909V608.5C486.892 609.341 487.068 610.091 487.42 610.75C487.773 611.409 488.278 611.926 488.938 612.301C489.597 612.676 490.392 612.864 491.324 612.864C491.972 612.864 492.563 612.773 493.097 612.591C493.642 612.409 494.108 612.148 494.494 611.807C494.881 611.455 495.165 611.034 495.347 610.545H503.938C503.642 612.364 502.943 613.943 501.841 615.284C500.739 616.614 499.278 617.648 497.46 618.386C495.653 619.114 493.54 619.477 491.119 619.477ZM532.953 592.818V599.636H515.703V592.818H532.953ZM519.044 586.545H528.453V610.58C528.453 610.943 528.516 611.25 528.641 611.5C528.766 611.739 528.959 611.92 529.22 612.045C529.482 612.159 529.817 612.216 530.226 612.216C530.51 612.216 530.839 612.182 531.214 612.114C531.601 612.045 531.885 611.989 532.067 611.943L533.43 618.557C533.01 618.682 532.408 618.835 531.624 619.017C530.851 619.199 529.93 619.318 528.862 619.375C526.703 619.489 524.891 619.267 523.425 618.71C521.959 618.142 520.857 617.25 520.118 616.034C519.379 614.818 519.021 613.295 519.044 611.466V586.545ZM544.088 619.409C542.418 619.409 540.94 619.136 539.656 618.591C538.384 618.034 537.384 617.193 536.656 616.068C535.929 614.943 535.565 613.511 535.565 611.773C535.565 610.341 535.81 609.119 536.298 608.108C536.787 607.085 537.469 606.25 538.344 605.602C539.219 604.955 540.236 604.46 541.395 604.119C542.565 603.778 543.827 603.557 545.179 603.455C546.645 603.341 547.821 603.205 548.707 603.045C549.605 602.875 550.253 602.642 550.651 602.347C551.048 602.04 551.247 601.636 551.247 601.136V601.068C551.247 600.386 550.986 599.864 550.463 599.5C549.94 599.136 549.27 598.955 548.452 598.955C547.554 598.955 546.821 599.153 546.253 599.551C545.696 599.937 545.361 600.534 545.247 601.341H536.588C536.702 599.75 537.207 598.284 538.105 596.943C539.014 595.591 540.338 594.511 542.077 593.705C543.815 592.886 545.986 592.477 548.588 592.477C550.463 592.477 552.145 592.699 553.634 593.142C555.122 593.574 556.389 594.182 557.435 594.966C558.48 595.739 559.276 596.648 559.821 597.693C560.378 598.727 560.656 599.852 560.656 601.068V619H551.861V615.318H551.656C551.134 616.295 550.497 617.085 549.747 617.688C549.009 618.29 548.162 618.727 547.207 619C546.264 619.273 545.224 619.409 544.088 619.409ZM547.156 613.477C547.872 613.477 548.543 613.33 549.168 613.034C549.804 612.739 550.321 612.312 550.719 611.756C551.116 611.199 551.315 610.523 551.315 609.727V607.545C551.065 607.648 550.798 607.744 550.514 607.835C550.241 607.926 549.946 608.011 549.628 608.091C549.321 608.17 548.991 608.244 548.639 608.312C548.298 608.381 547.94 608.443 547.565 608.5C546.838 608.614 546.241 608.801 545.776 609.062C545.321 609.312 544.98 609.625 544.753 610C544.537 610.364 544.429 610.773 544.429 611.227C544.429 611.955 544.685 612.511 545.196 612.898C545.707 613.284 546.361 613.477 547.156 613.477ZM574.561 584.091V619H565.152V584.091H574.561ZM587.81 612.795L587.878 601.614H589.105L595.446 592.818H606.014L595.378 606.523H592.719L587.81 612.795ZM579.355 619V584.091H588.764V619H579.355ZM595.514 619L589.514 608.636L595.651 601.955L606.287 619H595.514Z" fill="black"/>
<path d="M275.619 520.909V511.364H313.545V520.909H300.42V555H288.744V520.909H275.619ZM329.195 555.597C325.644 555.597 322.604 554.893 320.076 553.487C317.548 552.067 315.609 550.092 314.259 547.564C312.91 545.021 312.235 542.074 312.235 538.722C312.235 535.369 312.91 532.429 314.259 529.901C315.609 527.358 317.548 525.384 320.076 523.977C322.604 522.557 325.644 521.847 329.195 521.847C332.746 521.847 335.786 522.557 338.315 523.977C340.843 525.384 342.782 527.358 344.131 529.901C345.481 532.429 346.156 535.369 346.156 538.722C346.156 542.074 345.481 545.021 344.131 547.564C342.782 550.092 340.843 552.067 338.315 553.487C335.786 554.893 332.746 555.597 329.195 555.597ZM329.281 546.903C330.275 546.903 331.134 546.57 331.859 545.902C332.583 545.234 333.144 544.283 333.542 543.047C333.94 541.811 334.138 540.341 334.138 538.636C334.138 536.918 333.94 535.447 333.542 534.226C333.144 532.99 332.583 532.038 331.859 531.371C331.134 530.703 330.275 530.369 329.281 530.369C328.229 530.369 327.327 530.703 326.575 531.371C325.822 532.038 325.246 532.99 324.849 534.226C324.451 535.447 324.252 536.918 324.252 538.636C324.252 540.341 324.451 541.811 324.849 543.047C325.246 544.283 325.822 545.234 326.575 545.902C327.327 546.57 328.229 546.903 329.281 546.903ZM374.728 555.426C372.398 555.426 370.254 554.815 368.293 553.594C366.347 552.372 364.785 550.518 363.606 548.033C362.441 545.547 361.859 542.415 361.859 538.636C361.859 534.687 362.469 531.477 363.691 529.006C364.927 526.534 366.518 524.723 368.464 523.572C370.424 522.422 372.484 521.847 374.643 521.847C376.262 521.847 377.683 522.131 378.904 522.699C380.126 523.253 381.148 523.999 381.972 524.936C382.796 525.859 383.421 526.875 383.847 527.983H384.018V511.364H395.779V555H384.103V549.631H383.847C383.393 550.739 382.739 551.733 381.887 552.614C381.049 553.48 380.026 554.169 378.819 554.68C377.626 555.178 376.262 555.426 374.728 555.426ZM379.075 546.392C380.154 546.392 381.077 546.08 381.844 545.455C382.626 544.815 383.222 543.92 383.634 542.77C384.06 541.605 384.273 540.227 384.273 538.636C384.273 537.017 384.06 535.632 383.634 534.482C383.222 533.317 382.626 532.429 381.844 531.818C381.077 531.193 380.154 530.881 379.075 530.881C377.995 530.881 377.072 531.193 376.305 531.818C375.552 532.429 374.969 533.317 374.558 534.482C374.16 535.632 373.961 537.017 373.961 538.636C373.961 540.256 374.16 541.648 374.558 542.812C374.969 543.963 375.552 544.851 376.305 545.476C377.072 546.087 377.995 546.392 379.075 546.392ZM417.32 555.597C413.769 555.597 410.729 554.893 408.201 553.487C405.673 552.067 403.734 550.092 402.384 547.564C401.035 545.021 400.36 542.074 400.36 538.722C400.36 535.369 401.035 532.429 402.384 529.901C403.734 527.358 405.673 525.384 408.201 523.977C410.729 522.557 413.769 521.847 417.32 521.847C420.871 521.847 423.911 522.557 426.44 523.977C428.968 525.384 430.907 527.358 432.256 529.901C433.606 532.429 434.281 535.369 434.281 538.722C434.281 542.074 433.606 545.021 432.256 547.564C430.907 550.092 428.968 552.067 426.44 553.487C423.911 554.893 420.871 555.597 417.32 555.597ZM417.406 546.903C418.4 546.903 419.259 546.57 419.984 545.902C420.708 545.234 421.269 544.283 421.667 543.047C422.065 541.811 422.263 540.341 422.263 538.636C422.263 536.918 422.065 535.447 421.667 534.226C421.269 532.99 420.708 532.038 419.984 531.371C419.259 530.703 418.4 530.369 417.406 530.369C416.354 530.369 415.452 530.703 414.7 531.371C413.947 532.038 413.371 532.99 412.974 534.226C412.576 535.447 412.377 536.918 412.377 538.636C412.377 540.341 412.576 541.811 412.974 543.047C413.371 544.283 413.947 545.234 414.7 545.902C415.452 546.57 416.354 546.903 417.406 546.903Z" fill="black"/>
<path d="M344.006 677.591C342.631 677.591 341.376 677.256 340.239 676.585C339.103 675.903 338.194 674.994 337.512 673.858C336.842 672.722 336.506 671.466 336.506 670.091C336.506 668.705 336.842 667.449 337.512 666.324C338.194 665.187 339.103 664.284 340.239 663.614C341.376 662.932 342.631 662.591 344.006 662.591C345.393 662.591 346.648 662.932 347.773 663.614C348.91 664.284 349.813 665.187 350.484 666.324C351.165 667.449 351.506 668.705 351.506 670.091C351.506 671.466 351.165 672.722 350.484 673.858C349.813 674.994 348.91 675.903 347.773 676.585C346.648 677.256 345.393 677.591 344.006 677.591ZM382.386 693.818V657.818H391.727V662.386H391.932C392.273 661.5 392.773 660.687 393.432 659.949C394.091 659.199 394.909 658.602 395.886 658.159C396.864 657.705 398 657.477 399.295 657.477C401.023 657.477 402.665 657.938 404.222 658.858C405.79 659.778 407.063 661.227 408.04 663.205C409.028 665.182 409.523 667.75 409.523 670.909C409.523 673.932 409.051 676.437 408.108 678.426C407.176 680.415 405.926 681.898 404.358 682.875C402.801 683.852 401.091 684.341 399.227 684.341C398 684.341 396.903 684.142 395.938 683.744C394.983 683.335 394.165 682.784 393.483 682.091C392.813 681.386 392.295 680.591 391.932 679.705H391.795V693.818H382.386ZM391.591 670.909C391.591 672.182 391.756 673.284 392.085 674.216C392.426 675.136 392.903 675.852 393.517 676.364C394.142 676.864 394.886 677.114 395.75 677.114C396.614 677.114 397.347 676.869 397.949 676.381C398.563 675.881 399.028 675.17 399.347 674.25C399.676 673.318 399.841 672.205 399.841 670.909C399.841 669.614 399.676 668.506 399.347 667.585C399.028 666.653 398.563 665.943 397.949 665.455C397.347 664.955 396.614 664.705 395.75 664.705C394.886 664.705 394.142 664.955 393.517 665.455C392.903 665.943 392.426 666.653 392.085 667.585C391.756 668.506 391.591 669.614 391.591 670.909ZM413.464 684V657.818H422.601V662.795H422.874C423.351 660.955 424.107 659.608 425.141 658.756C426.186 657.903 427.408 657.477 428.805 657.477C429.214 657.477 429.618 657.511 430.016 657.58C430.425 657.636 430.817 657.722 431.192 657.835V665.864C430.726 665.705 430.152 665.585 429.47 665.506C428.788 665.426 428.203 665.386 427.714 665.386C426.794 665.386 425.964 665.597 425.226 666.017C424.499 666.426 423.925 667.006 423.504 667.756C423.084 668.494 422.874 669.364 422.874 670.364V684H413.464ZM440.354 684.409C438.683 684.409 437.206 684.136 435.922 683.591C434.649 683.034 433.649 682.193 432.922 681.068C432.195 679.943 431.831 678.511 431.831 676.773C431.831 675.341 432.075 674.119 432.564 673.108C433.053 672.085 433.734 671.25 434.609 670.602C435.484 669.955 436.501 669.46 437.661 669.119C438.831 668.778 440.092 668.557 441.445 668.455C442.911 668.341 444.087 668.205 444.973 668.045C445.871 667.875 446.518 667.642 446.916 667.347C447.314 667.04 447.513 666.636 447.513 666.136V666.068C447.513 665.386 447.251 664.864 446.729 664.5C446.206 664.136 445.536 663.955 444.717 663.955C443.82 663.955 443.087 664.153 442.518 664.551C441.962 664.937 441.626 665.534 441.513 666.341H432.854C432.967 664.75 433.473 663.284 434.371 661.943C435.28 660.591 436.604 659.511 438.342 658.705C440.081 657.886 442.251 657.477 444.854 657.477C446.729 657.477 448.411 657.699 449.899 658.142C451.388 658.574 452.655 659.182 453.7 659.966C454.746 660.739 455.541 661.648 456.087 662.693C456.643 663.727 456.922 664.852 456.922 666.068V684H448.126V680.318H447.922C447.399 681.295 446.763 682.085 446.013 682.688C445.274 683.29 444.428 683.727 443.473 684C442.53 684.273 441.49 684.409 440.354 684.409ZM443.422 678.477C444.138 678.477 444.808 678.33 445.433 678.034C446.07 677.739 446.587 677.312 446.984 676.756C447.382 676.199 447.581 675.523 447.581 674.727V672.545C447.331 672.648 447.064 672.744 446.78 672.835C446.507 672.926 446.212 673.011 445.893 673.091C445.587 673.17 445.257 673.244 444.905 673.312C444.564 673.381 444.206 673.443 443.831 673.5C443.104 673.614 442.507 673.801 442.041 674.062C441.587 674.312 441.246 674.625 441.018 675C440.803 675.364 440.695 675.773 440.695 676.227C440.695 676.955 440.95 677.511 441.462 677.898C441.973 678.284 442.626 678.477 443.422 678.477ZM474.031 684.477C471.19 684.477 468.759 683.915 466.736 682.79C464.713 681.653 463.162 680.074 462.082 678.051C461.003 676.017 460.463 673.659 460.463 670.977C460.463 668.295 461.003 665.943 462.082 663.92C463.162 661.886 464.713 660.307 466.736 659.182C468.759 658.045 471.19 657.477 474.031 657.477C476.599 657.477 478.821 657.943 480.696 658.875C482.582 659.795 484.043 661.102 485.077 662.795C486.111 664.477 486.634 666.455 486.645 668.727H477.918C477.793 667.352 477.395 666.307 476.724 665.591C476.065 664.864 475.213 664.5 474.168 664.5C473.349 664.5 472.634 664.739 472.02 665.216C471.406 665.682 470.929 666.392 470.588 667.347C470.247 668.29 470.077 669.477 470.077 670.909C470.077 672.341 470.247 673.534 470.588 674.489C470.929 675.432 471.406 676.142 472.02 676.619C472.634 677.085 473.349 677.318 474.168 677.318C474.861 677.318 475.474 677.159 476.009 676.841C476.543 676.511 476.974 676.034 477.304 675.409C477.645 674.773 477.849 674 477.918 673.091H486.645C486.611 675.398 486.082 677.409 485.06 679.125C484.037 680.83 482.588 682.148 480.713 683.08C478.849 684.011 476.622 684.477 474.031 684.477ZM506.141 657.818V664.636H488.891V657.818H506.141ZM492.232 651.545H501.641V675.58C501.641 675.943 501.703 676.25 501.828 676.5C501.953 676.739 502.146 676.92 502.408 677.045C502.669 677.159 503.004 677.216 503.413 677.216C503.697 677.216 504.027 677.182 504.402 677.114C504.788 677.045 505.072 676.989 505.254 676.943L506.618 683.557C506.197 683.682 505.595 683.835 504.811 684.017C504.038 684.199 503.118 684.318 502.05 684.375C499.891 684.489 498.078 684.267 496.612 683.71C495.146 683.142 494.044 682.25 493.305 681.034C492.567 679.818 492.209 678.295 492.232 676.466V651.545ZM509.98 684V657.818H519.389V684H509.98ZM514.685 655.091C513.412 655.091 512.321 654.67 511.412 653.83C510.503 652.989 510.048 651.977 510.048 650.795C510.048 649.614 510.503 648.602 511.412 647.761C512.321 646.92 513.412 646.5 514.685 646.5C515.969 646.5 517.06 646.92 517.957 647.761C518.866 648.602 519.321 649.614 519.321 650.795C519.321 651.977 518.866 652.989 517.957 653.83C517.06 654.67 515.969 655.091 514.685 655.091ZM536.797 684.477C533.956 684.477 531.524 683.915 529.501 682.79C527.479 681.653 525.928 680.074 524.848 678.051C523.768 676.017 523.229 673.659 523.229 670.977C523.229 668.295 523.768 665.943 524.848 663.92C525.928 661.886 527.479 660.307 529.501 659.182C531.524 658.045 533.956 657.477 536.797 657.477C539.365 657.477 541.587 657.943 543.462 658.875C545.348 659.795 546.808 661.102 547.842 662.795C548.876 664.477 549.399 666.455 549.411 668.727H540.683C540.558 667.352 540.161 666.307 539.49 665.591C538.831 664.864 537.979 664.5 536.933 664.5C536.115 664.5 535.399 664.739 534.786 665.216C534.172 665.682 533.695 666.392 533.354 667.347C533.013 668.29 532.842 669.477 532.842 670.909C532.842 672.341 533.013 673.534 533.354 674.489C533.695 675.432 534.172 676.142 534.786 676.619C535.399 677.085 536.115 677.318 536.933 677.318C537.626 677.318 538.24 677.159 538.774 676.841C539.308 676.511 539.74 676.034 540.07 675.409C540.411 674.773 540.615 674 540.683 673.091H549.411C549.376 675.398 548.848 677.409 547.825 679.125C546.803 680.83 545.354 682.148 543.479 683.08C541.615 684.011 539.388 684.477 536.797 684.477ZM565.838 684.477C563.043 684.477 560.634 683.943 558.611 682.875C556.599 681.795 555.048 680.25 553.957 678.239C552.878 676.216 552.338 673.795 552.338 670.977C552.338 668.273 552.884 665.909 553.974 663.886C555.065 661.864 556.605 660.29 558.594 659.165C560.582 658.04 562.929 657.477 565.634 657.477C567.611 657.477 569.401 657.784 571.003 658.398C572.605 659.011 573.974 659.903 575.111 661.074C576.247 662.233 577.122 663.642 577.736 665.301C578.349 666.96 578.656 668.83 578.656 670.909V673.091H555.27V667.909H569.997C569.986 667.159 569.793 666.5 569.418 665.932C569.054 665.352 568.56 664.903 567.935 664.585C567.321 664.256 566.622 664.091 565.838 664.091C565.077 664.091 564.378 664.256 563.741 664.585C563.105 664.903 562.594 665.347 562.207 665.915C561.832 666.483 561.634 667.148 561.611 667.909V673.5C561.611 674.341 561.787 675.091 562.139 675.75C562.491 676.409 562.997 676.926 563.656 677.301C564.315 677.676 565.111 677.864 566.043 677.864C566.69 677.864 567.281 677.773 567.815 677.591C568.361 677.409 568.827 677.148 569.213 676.807C569.599 676.455 569.884 676.034 570.065 675.545H578.656C578.361 677.364 577.662 678.943 576.56 680.284C575.457 681.614 573.997 682.648 572.179 683.386C570.372 684.114 568.259 684.477 565.838 684.477ZM607.672 657.818V664.636H590.422V657.818H607.672ZM593.763 651.545H603.172V675.58C603.172 675.943 603.234 676.25 603.359 676.5C603.484 676.739 603.678 676.92 603.939 677.045C604.2 677.159 604.536 677.216 604.945 677.216C605.229 677.216 605.558 677.182 605.933 677.114C606.32 677.045 606.604 676.989 606.786 676.943L608.149 683.557C607.729 683.682 607.126 683.835 606.342 684.017C605.57 684.199 604.649 684.318 603.581 684.375C601.422 684.489 599.609 684.267 598.143 683.71C596.678 683.142 595.575 682.25 594.837 681.034C594.098 679.818 593.74 678.295 593.763 676.466V651.545ZM618.807 684.409C617.136 684.409 615.659 684.136 614.375 683.591C613.102 683.034 612.102 682.193 611.375 681.068C610.648 679.943 610.284 678.511 610.284 676.773C610.284 675.341 610.528 674.119 611.017 673.108C611.506 672.085 612.188 671.25 613.062 670.602C613.938 669.955 614.955 669.46 616.114 669.119C617.284 668.778 618.545 668.557 619.898 668.455C621.364 668.341 622.54 668.205 623.426 668.045C624.324 667.875 624.972 667.642 625.369 667.347C625.767 667.04 625.966 666.636 625.966 666.136V666.068C625.966 665.386 625.705 664.864 625.182 664.5C624.659 664.136 623.989 663.955 623.17 663.955C622.273 663.955 621.54 664.153 620.972 664.551C620.415 664.937 620.08 665.534 619.966 666.341H611.307C611.42 664.75 611.926 663.284 612.824 661.943C613.733 660.591 615.057 659.511 616.795 658.705C618.534 657.886 620.705 657.477 623.307 657.477C625.182 657.477 626.864 657.699 628.352 658.142C629.841 658.574 631.108 659.182 632.153 659.966C633.199 660.739 633.994 661.648 634.54 662.693C635.097 663.727 635.375 664.852 635.375 666.068V684H626.58V680.318H626.375C625.852 681.295 625.216 682.085 624.466 682.688C623.727 683.29 622.881 683.727 621.926 684C620.983 684.273 619.943 684.409 618.807 684.409ZM621.875 678.477C622.591 678.477 623.261 678.33 623.886 678.034C624.523 677.739 625.04 677.312 625.438 676.756C625.835 676.199 626.034 675.523 626.034 674.727V672.545C625.784 672.648 625.517 672.744 625.233 672.835C624.96 672.926 624.665 673.011 624.347 673.091C624.04 673.17 623.71 673.244 623.358 673.312C623.017 673.381 622.659 673.443 622.284 673.5C621.557 673.614 620.96 673.801 620.494 674.062C620.04 674.312 619.699 674.625 619.472 675C619.256 675.364 619.148 675.773 619.148 676.227C619.148 676.955 619.403 677.511 619.915 677.898C620.426 678.284 621.08 678.477 621.875 678.477ZM649.28 649.091V684H639.871V649.091H649.28ZM662.528 677.795L662.597 666.614H663.824L670.165 657.818H680.733L670.097 671.523H667.438L662.528 677.795ZM654.074 684V649.091H663.483V684H654.074ZM670.233 684L664.233 673.636L670.369 666.955L681.006 684H670.233Z" fill="black"/>
<path d="M786 402.667C806.25 402.667 822.667 386.25 822.667 366C822.667 345.75 806.25 329.333 786 329.333C765.75 329.333 749.333 345.75 749.333 366C749.333 386.25 765.75 402.667 786 402.667Z" stroke="black" stroke-width="8" stroke-linecap="round" stroke-linejoin="round"/>
<path d="M771.333 366H800.667" stroke="black" stroke-width="8" stroke-linecap="round" stroke-linejoin="round"/>
<path d="M786 351.333V380.667" stroke="black" stroke-width="8" stroke-linecap="round" stroke-linejoin="round"/>
<path d="M645.624 104.96V52.4H652.104V59.96H653.4L652.104 61.472C652.104 58.448 653.088 56.072 655.056 54.344C657.072 52.568 659.712 51.68 662.976 51.68C666.96 51.68 670.128 53 672.48 55.64C674.88 58.232 676.08 61.808 676.08 66.368V77.96C676.08 80.984 675.528 83.6 674.424 85.808C673.368 88.016 671.856 89.72 669.888 90.92C667.968 92.12 665.664 92.72 662.976 92.72C659.76 92.72 657.144 91.832 655.128 90.056C653.112 88.28 652.104 85.904 652.104 82.928L653.4 84.44H651.96L652.104 93.44V104.96H645.624ZM660.816 87.104C663.552 87.104 665.688 86.288 667.224 84.656C668.808 83.024 669.6 80.672 669.6 77.6V66.8C669.6 63.728 668.808 61.376 667.224 59.744C665.688 58.112 663.552 57.296 660.816 57.296C658.176 57.296 656.064 58.136 654.48 59.816C652.896 61.496 652.104 63.824 652.104 66.8V77.6C652.104 80.576 652.896 82.904 654.48 84.584C656.064 86.264 658.176 87.104 660.816 87.104ZM703.772 92.576C700.604 92.576 697.868 91.976 695.564 90.776C693.26 89.576 691.46 87.848 690.164 85.592C688.916 83.288 688.292 80.576 688.292 77.456V66.944C688.292 63.776 688.916 61.064 690.164 58.808C691.46 56.552 693.26 54.824 695.564 53.624C697.868 52.424 700.604 51.824 703.772 51.824C706.94 51.824 709.676 52.424 711.98 53.624C714.284 54.824 716.06 56.552 717.308 58.808C718.604 61.064 719.252 63.752 719.252 66.872V77.456C719.252 80.576 718.604 83.288 717.308 85.592C716.06 87.848 714.284 89.576 711.98 90.776C709.676 91.976 706.94 92.576 703.772 92.576ZM703.772 86.816C706.604 86.816 708.812 86.024 710.396 84.44C711.98 82.856 712.772 80.528 712.772 77.456V66.944C712.772 63.872 711.98 61.544 710.396 59.96C708.812 58.376 706.604 57.584 703.772 57.584C700.988 57.584 698.78 58.376 697.148 59.96C695.564 61.544 694.772 63.872 694.772 66.944V77.456C694.772 80.528 695.564 82.856 697.148 84.44C698.78 86.024 700.988 86.816 703.772 86.816ZM745.72 92.576C743.032 92.576 740.68 92.168 738.664 91.352C736.696 90.488 735.112 89.288 733.912 87.752C732.76 86.216 732.064 84.392 731.824 82.28H738.304C738.592 83.672 739.36 84.776 740.608 85.592C741.904 86.408 743.608 86.816 745.72 86.816H748.744C751.288 86.816 753.184 86.312 754.432 85.304C755.68 84.248 756.304 82.856 756.304 81.128C756.304 79.448 755.728 78.128 754.576 77.168C753.472 76.16 751.816 75.488 749.608 75.152L744.28 74.288C740.392 73.616 737.488 72.416 735.568 70.688C733.696 68.912 732.76 66.344 732.76 62.984C732.76 59.432 733.888 56.696 736.144 54.776C738.4 52.808 741.784 51.824 746.296 51.824H749.032C752.824 51.824 755.872 52.712 758.176 54.488C760.48 56.264 761.872 58.664 762.352 61.688H755.872C755.584 60.44 754.864 59.456 753.712 58.736C752.56 57.968 751 57.584 749.032 57.584H746.296C743.848 57.584 742.048 58.04 740.896 58.952C739.792 59.864 739.24 61.232 739.24 63.056C739.24 64.688 739.72 65.888 740.68 66.656C741.64 67.424 743.152 67.976 745.216 68.312L750.544 69.176C754.816 69.848 757.912 71.096 759.832 72.92C761.8 74.744 762.784 77.384 762.784 80.84C762.784 84.488 761.608 87.368 759.256 89.48C756.952 91.544 753.448 92.576 748.744 92.576H745.72ZM794.436 92C791.028 92 788.364 91.088 786.444 89.264C784.572 87.44 783.636 84.872 783.636 81.56V58.304H772.476V52.4H783.636V41.24H790.116V52.4H805.956V58.304H790.116V81.56C790.116 84.584 791.556 86.096 794.436 86.096H805.236V92H794.436ZM818.168 92V39.44H826.808L842.864 84.44C842.768 83.24 842.648 81.776 842.504 80.048C842.408 78.272 842.312 76.424 842.216 74.504C842.168 72.536 842.144 70.688 842.144 68.96V39.44H848.408V92H839.768L823.784 47C823.88 48.152 823.976 49.616 824.072 51.392C824.168 53.12 824.24 54.968 824.288 56.936C824.384 58.856 824.432 60.704 824.432 62.48V92H818.168ZM876.459 92.72C873.339 92.72 870.603 92.096 868.251 90.848C865.947 89.6 864.147 87.848 862.851 85.592C861.603 83.288 860.979 80.624 860.979 77.6V66.8C860.979 63.728 861.603 61.064 862.851 58.808C864.147 56.552 865.947 54.8 868.251 53.552C870.603 52.304 873.339 51.68 876.459 51.68C879.579 51.68 882.291 52.304 884.595 53.552C886.947 54.8 888.747 56.552 889.995 58.808C891.291 61.064 891.939 63.728 891.939 66.8V73.784H867.315V77.6C867.315 80.72 868.107 83.12 869.691 84.8C871.275 86.432 873.531 87.248 876.459 87.248C878.955 87.248 880.971 86.816 882.507 85.952C884.043 85.04 884.979 83.696 885.315 81.92H891.795C891.363 85.232 889.731 87.872 886.899 89.84C884.115 91.76 880.635 92.72 876.459 92.72ZM885.603 69.464V66.8C885.603 63.68 884.811 61.28 883.227 59.6C881.691 57.92 879.435 57.08 876.459 57.08C873.531 57.08 871.275 57.92 869.691 59.6C868.107 61.28 867.315 63.68 867.315 66.8V68.888H886.107L885.603 69.464ZM906.887 92L900.551 52.4H906.311L910.271 80.48C910.415 81.536 910.559 82.688 910.703 83.936C910.895 85.136 911.039 86.144 911.135 86.96C911.231 86.144 911.375 85.136 911.567 83.936C911.807 82.688 911.999 81.536 912.143 80.48L916.535 52.4H922.727L927.119 80.48C927.263 81.536 927.431 82.688 927.623 83.936C927.863 85.136 928.031 86.144 928.127 86.96C928.223 86.144 928.367 85.136 928.559 83.936C928.799 82.688 928.991 81.536 929.135 80.48L933.239 52.4H938.711L932.087 92H924.959L920.711 64.64C920.519 63.296 920.303 61.952 920.063 60.608C919.823 59.264 919.655 58.208 919.559 57.44C919.463 58.208 919.319 59.264 919.127 60.608C918.935 61.952 918.719 63.296 918.479 64.64L914.015 92H906.887ZM948.763 92V86.096H959.491V45.344H948.763V39.44H976.843V45.344H966.115V86.096H976.843V92H948.763ZM1010.3 92C1006.89 92 1004.22 91.088 1002.3 89.264C1000.43 87.44 999.495 84.872 999.495 81.56V58.304H988.335V52.4H999.495V41.24H1005.98V52.4H1021.82V58.304H1005.98V81.56C1005.98 84.584 1007.42 86.096 1010.3 86.096H1021.1V92H1010.3ZM1049.15 92.72C1046.03 92.72 1043.29 92.096 1040.94 90.848C1038.63 89.6 1036.83 87.848 1035.54 85.592C1034.29 83.288 1033.67 80.624 1033.67 77.6V66.8C1033.67 63.728 1034.29 61.064 1035.54 58.808C1036.83 56.552 1038.63 54.8 1040.94 53.552C1043.29 52.304 1046.03 51.68 1049.15 51.68C1052.27 51.68 1054.98 52.304 1057.28 53.552C1059.63 54.8 1061.43 56.552 1062.68 58.808C1063.98 61.064 1064.63 63.728 1064.63 66.8V73.784H1040V77.6C1040 80.72 1040.79 83.12 1042.38 84.8C1043.96 86.432 1046.22 87.248 1049.15 87.248C1051.64 87.248 1053.66 86.816 1055.19 85.952C1056.73 85.04 1057.67 83.696 1058 81.92H1064.48C1064.05 85.232 1062.42 87.872 1059.59 89.84C1056.8 91.76 1053.32 92.72 1049.15 92.72ZM1058.29 69.464V66.8C1058.29 63.68 1057.5 61.28 1055.91 59.6C1054.38 57.92 1052.12 57.08 1049.15 57.08C1046.22 57.08 1043.96 57.92 1042.38 59.6C1040.79 61.28 1040 63.68 1040 66.8V68.888H1058.79L1058.29 69.464ZM1075.47 92V52.4H1081.16V57.152H1082.45L1081.45 58.88C1081.45 56.672 1082.02 54.92 1083.17 53.624C1084.37 52.328 1085.98 51.68 1088 51.68C1090.21 51.68 1091.91 52.496 1093.11 54.128C1094.31 55.76 1094.91 58.064 1094.91 61.04L1092.97 57.152H1095.99L1094.62 58.88C1094.62 56.672 1095.22 54.92 1096.42 53.624C1097.67 52.328 1099.3 51.68 1101.32 51.68C1103.81 51.68 1105.73 52.616 1107.08 54.488C1108.47 56.36 1109.17 58.832 1109.17 61.904V92H1103.19V61.832C1103.19 60.2 1102.83 58.928 1102.11 58.016C1101.44 57.104 1100.43 56.648 1099.09 56.648C1097.79 56.648 1096.76 57.104 1095.99 58.016C1095.27 58.88 1094.91 60.128 1094.91 61.76V92H1089.73V61.832C1089.73 60.152 1089.34 58.88 1088.57 58.016C1087.85 57.104 1086.82 56.648 1085.48 56.648C1084.13 56.648 1083.13 57.104 1082.45 58.016C1081.78 58.88 1081.45 60.128 1081.45 61.76V92H1075.47Z" fill="black"/>
<path d="M786 366L910 116" stroke="#444444" stroke-width="12"/>
<rect x="615" y="25" width="531" height="92" stroke="#444444" stroke-width="12"/>
<rect x="615" y="25" width="531" height="92" stroke="#444444" stroke-width="12"/>
<path d="M645.624 104.96V52.4H652.104V59.96H653.4L652.104 61.472C652.104 58.448 653.088 56.072 655.056 54.344C657.072 52.568 659.712 51.68 662.976 51.68C666.96 51.68 670.128 53 672.48 55.64C674.88 58.232 676.08 61.808 676.08 66.368V77.96C676.08 80.984 675.528 83.6 674.424 85.808C673.368 88.016 671.856 89.72 669.888 90.92C667.968 92.12 665.664 92.72 662.976 92.72C659.76 92.72 657.144 91.832 655.128 90.056C653.112 88.28 652.104 85.904 652.104 82.928L653.4 84.44H651.96L652.104 93.44V104.96H645.624ZM660.816 87.104C663.552 87.104 665.688 86.288 667.224 84.656C668.808 83.024 669.6 80.672 669.6 77.6V66.8C669.6 63.728 668.808 61.376 667.224 59.744C665.688 58.112 663.552 57.296 660.816 57.296C658.176 57.296 656.064 58.136 654.48 59.816C652.896 61.496 652.104 63.824 652.104 66.8V77.6C652.104 80.576 652.896 82.904 654.48 84.584C656.064 86.264 658.176 87.104 660.816 87.104ZM703.772 92.576C700.604 92.576 697.868 91.976 695.564 90.776C693.26 89.576 691.46 87.848 690.164 85.592C688.916 83.288 688.292 80.576 688.292 77.456V66.944C688.292 63.776 688.916 61.064 690.164 58.808C691.46 56.552 693.26 54.824 695.564 53.624C697.868 52.424 700.604 51.824 703.772 51.824C706.94 51.824 709.676 52.424 711.98 53.624C714.284 54.824 716.06 56.552 717.308 58.808C718.604 61.064 719.252 63.752 719.252 66.872V77.456C719.252 80.576 718.604 83.288 717.308 85.592C716.06 87.848 714.284 89.576 711.98 90.776C709.676 91.976 706.94 92.576 703.772 92.576ZM703.772 86.816C706.604 86.816 708.812 86.024 710.396 84.44C711.98 82.856 712.772 80.528 712.772 77.456V66.944C712.772 63.872 711.98 61.544 710.396 59.96C708.812 58.376 706.604 57.584 703.772 57.584C700.988 57.584 698.78 58.376 697.148 59.96C695.564 61.544 694.772 63.872 694.772 66.944V77.456C694.772 80.528 695.564 82.856 697.148 84.44C698.78 86.024 700.988 86.816 703.772 86.816ZM745.72 92.576C743.032 92.576 740.68 92.168 738.664 91.352C736.696 90.488 735.112 89.288 733.912 87.752C732.76 86.216 732.064 84.392 731.824 82.28H738.304C738.592 83.672 739.36 84.776 740.608 85.592C741.904 86.408 743.608 86.816 745.72 86.816H748.744C751.288 86.816 753.184 86.312 754.432 85.304C755.68 84.248 756.304 82.856 756.304 81.128C756.304 79.448 755.728 78.128 754.576 77.168C753.472 76.16 751.816 75.488 749.608 75.152L744.28 74.288C740.392 73.616 737.488 72.416 735.568 70.688C733.696 68.912 732.76 66.344 732.76 62.984C732.76 59.432 733.888 56.696 736.144 54.776C738.4 52.808 741.784 51.824 746.296 51.824H749.032C752.824 51.824 755.872 52.712 758.176 54.488C760.48 56.264 761.872 58.664 762.352 61.688H755.872C755.584 60.44 754.864 59.456 753.712 58.736C752.56 57.968 751 57.584 749.032 57.584H746.296C743.848 57.584 742.048 58.04 740.896 58.952C739.792 59.864 739.24 61.232 739.24 63.056C739.24 64.688 739.72 65.888 740.68 66.656C741.64 67.424 743.152 67.976 745.216 68.312L750.544 69.176C754.816 69.848 757.912 71.096 759.832 72.92C761.8 74.744 762.784 77.384 762.784 80.84C762.784 84.488 761.608 87.368 759.256 89.48C756.952 91.544 753.448 92.576 748.744 92.576H745.72ZM794.436 92C791.028 92 788.364 91.088 786.444 89.264C784.572 87.44 783.636 84.872 783.636 81.56V58.304H772.476V52.4H783.636V41.24H790.116V52.4H805.956V58.304H790.116V81.56C790.116 84.584 791.556 86.096 794.436 86.096H805.236V92H794.436ZM818.168 92V39.44H826.808L842.864 84.44C842.768 83.24 842.648 81.776 842.504 80.048C842.408 78.272 842.312 76.424 842.216 74.504C842.168 72.536 842.144 70.688 842.144 68.96V39.44H848.408V92H839.768L823.784 47C823.88 48.152 823.976 49.616 824.072 51.392C824.168 53.12 824.24 54.968 824.288 56.936C824.384 58.856 824.432 60.704 824.432 62.48V92H818.168ZM876.459 92.72C873.339 92.72 870.603 92.096 868.251 90.848C865.947 89.6 864.147 87.848 862.851 85.592C861.603 83.288 860.979 80.624 860.979 77.6V66.8C860.979 63.728 861.603 61.064 862.851 58.808C864.147 56.552 865.947 54.8 868.251 53.552C870.603 52.304 873.339 51.68 876.459 51.68C879.579 51.68 882.291 52.304 884.595 53.552C886.947 54.8 888.747 56.552 889.995 58.808C891.291 61.064 891.939 63.728 891.939 66.8V73.784H867.315V77.6C867.315 80.72 868.107 83.12 869.691 84.8C871.275 86.432 873.531 87.248 876.459 87.248C878.955 87.248 880.971 86.816 882.507 85.952C884.043 85.04 884.979 83.696 885.315 81.92H891.795C891.363 85.232 889.731 87.872 886.899 89.84C884.115 91.76 880.635 92.72 876.459 92.72ZM885.603 69.464V66.8C885.603 63.68 884.811 61.28 883.227 59.6C881.691 57.92 879.435 57.08 876.459 57.08C873.531 57.08 871.275 57.92 869.691 59.6C868.107 61.28 867.315 63.68 867.315 66.8V68.888H886.107L885.603 69.464ZM906.887 92L900.551 52.4H906.311L910.271 80.48C910.415 81.536 910.559 82.688 910.703 83.936C910.895 85.136 911.039 86.144 911.135 86.96C911.231 86.144 911.375 85.136 911.567 83.936C911.807 82.688 911.999 81.536 912.143 80.48L916.535 52.4H922.727L927.119 80.48C927.263 81.536 927.431 82.688 927.623 83.936C927.863 85.136 928.031 86.144 928.127 86.96C928.223 86.144 928.367 85.136 928.559 83.936C928.799 82.688 928.991 81.536 929.135 80.48L933.239 52.4H938.711L932.087 92H924.959L920.711 64.64C920.519 63.296 920.303 61.952 920.063 60.608C919.823 59.264 919.655 58.208 919.559 57.44C919.463 58.208 919.319 59.264 919.127 60.608C918.935 61.952 918.719 63.296 918.479 64.64L914.015 92H906.887ZM948.763 92V86.096H959.491V45.344H948.763V39.44H976.843V45.344H966.115V86.096H976.843V92H948.763ZM1010.3 92C1006.89 92 1004.22 91.088 1002.3 89.264C1000.43 87.44 999.495 84.872 999.495 81.56V58.304H988.335V52.4H999.495V41.24H1005.98V52.4H1021.82V58.304H1005.98V81.56C1005.98 84.584 1007.42 86.096 1010.3 86.096H1021.1V92H1010.3ZM1049.15 92.72C1046.03 92.72 1043.29 92.096 1040.94 90.848C1038.63 89.6 1036.83 87.848 1035.54 85.592C1034.29 83.288 1033.67 80.624 1033.67 77.6V66.8C1033.67 63.728 1034.29 61.064 1035.54 58.808C1036.83 56.552 1038.63 54.8 1040.94 53.552C1043.29 52.304 1046.03 51.68 1049.15 51.68C1052.27 51.68 1054.98 52.304 1057.28 53.552C1059.63 54.8 1061.43 56.552 1062.68 58.808C1063.98 61.064 1064.63 63.728 1064.63 66.8V73.784H1040V77.6C1040 80.72 1040.79 83.12 1042.38 84.8C1043.96 86.432 1046.22 87.248 1049.15 87.248C1051.64 87.248 1053.66 86.816 1055.19 85.952C1056.73 85.04 1057.67 83.696 1058 81.92H1064.48C1064.05 85.232 1062.42 87.872 1059.59 89.84C1056.8 91.76 1053.32 92.72 1049.15 92.72ZM1058.29 69.464V66.8C1058.29 63.68 1057.5 61.28 1055.91 59.6C1054.38 57.92 1052.12 57.08 1049.15 57.08C1046.22 57.08 1043.96 57.92 1042.38 59.6C1040.79 61.28 1040 63.68 1040 66.8V68.888H1058.79L1058.29 69.464ZM1075.47 92V52.4H1081.16V57.152H1082.45L1081.45 58.88C1081.45 56.672 1082.02 54.92 1083.17 53.624C1084.37 52.328 1085.98 51.68 1088 51.68C1090.21 51.68 1091.91 52.496 1093.11 54.128C1094.31 55.76 1094.91 58.064 1094.91 61.04L1092.97 57.152H1095.99L1094.62 58.88C1094.62 56.672 1095.22 54.92 1096.42 53.624C1097.67 52.328 1099.3 51.68 1101.32 51.68C1103.81 51.68 1105.73 52.616 1107.08 54.488C1108.47 56.36 1109.17 58.832 1109.17 61.904V92H1103.19V61.832C1103.19 60.2 1102.83 58.928 1102.11 58.016C1101.44 57.104 1100.43 56.648 1099.09 56.648C1097.79 56.648 1096.76 57.104 1095.99 58.016C1095.27 58.88 1094.91 60.128 1094.91 61.76V92H1089.73V61.832C1089.73 60.152 1089.34 58.88 1088.57 58.016C1087.85 57.104 1086.82 56.648 1085.48 56.648C1084.13 56.648 1083.13 57.104 1082.45 58.016C1081.78 58.88 1081.45 60.128 1081.45 61.76V92H1075.47Z" fill="black"/>
<path d="M3070.83 656H2079.17" stroke="#33699E" stroke-width="36" stroke-linecap="round" stroke-linejoin="round"/>
<path d="M2250.23 314.371L2079.17 656V953.5C2079.17 979.801 2089.61 1005.02 2108.21 1023.62C2126.81 1042.22 2152.03 1052.67 2178.33 1052.67H2971.67C2997.97 1052.67 3023.19 1042.22 3041.79 1023.62C3060.39 1005.02 3070.83 979.801 3070.83 953.5V656L2899.77 314.371C2891.56 297.849 2878.9 283.945 2863.23 274.222C2847.55 264.499 2829.47 259.343 2811.02 259.333H2338.98C2320.53 259.343 2302.45 264.499 2286.77 274.222C2271.1 283.945 2258.44 297.849 2250.23 314.371Z" stroke="#33699E" stroke-width="36" stroke-linecap="round" stroke-linejoin="round"/>
<path d="M2277.5 854.333H2278" stroke="#33699E" stroke-width="36" stroke-linecap="round" stroke-linejoin="round"/>
<path d="M2475.83 854.333H2476.33" stroke="#33699E" stroke-width="36" stroke-linecap="round" stroke-linejoin="round"/>
<rect x="2309" y="300" width="531" height="292" stroke="#444444" stroke-width="12"/>
<path d="M2339.62 400.96V348.4H2346.1V355.96H2347.4L2346.1 357.472C2346.1 354.448 2347.09 352.072 2349.06 350.344C2351.07 348.568 2353.71 347.68 2356.98 347.68C2360.96 347.68 2364.13 349 2366.48 351.64C2368.88 354.232 2370.08 357.808 2370.08 362.368V373.96C2370.08 376.984 2369.53 379.6 2368.42 381.808C2367.37 384.016 2365.86 385.72 2363.89 386.92C2361.97 388.12 2359.66 388.72 2356.98 388.72C2353.76 388.72 2351.14 387.832 2349.13 386.056C2347.11 384.28 2346.1 381.904 2346.1 378.928L2347.4 380.44H2345.96L2346.1 389.44V400.96H2339.62ZM2354.82 383.104C2357.55 383.104 2359.69 382.288 2361.22 380.656C2362.81 379.024 2363.6 376.672 2363.6 373.6V362.8C2363.6 359.728 2362.81 357.376 2361.22 355.744C2359.69 354.112 2357.55 353.296 2354.82 353.296C2352.18 353.296 2350.06 354.136 2348.48 355.816C2346.9 357.496 2346.1 359.824 2346.1 362.8V373.6C2346.1 376.576 2346.9 378.904 2348.48 380.584C2350.06 382.264 2352.18 383.104 2354.82 383.104ZM2397.77 388.576C2394.6 388.576 2391.87 387.976 2389.56 386.776C2387.26 385.576 2385.46 383.848 2384.16 381.592C2382.92 379.288 2382.29 376.576 2382.29 373.456V362.944C2382.29 359.776 2382.92 357.064 2384.16 354.808C2385.46 352.552 2387.26 350.824 2389.56 349.624C2391.87 348.424 2394.6 347.824 2397.77 347.824C2400.94 347.824 2403.68 348.424 2405.98 349.624C2408.28 350.824 2410.06 352.552 2411.31 354.808C2412.6 357.064 2413.25 359.752 2413.25 362.872V373.456C2413.25 376.576 2412.6 379.288 2411.31 381.592C2410.06 383.848 2408.28 385.576 2405.98 386.776C2403.68 387.976 2400.94 388.576 2397.77 388.576ZM2397.77 382.816C2400.6 382.816 2402.81 382.024 2404.4 380.44C2405.98 378.856 2406.77 376.528 2406.77 373.456V362.944C2406.77 359.872 2405.98 357.544 2404.4 355.96C2402.81 354.376 2400.6 353.584 2397.77 353.584C2394.99 353.584 2392.78 354.376 2391.15 355.96C2389.56 357.544 2388.77 359.872 2388.77 362.944V373.456C2388.77 376.528 2389.56 378.856 2391.15 380.44C2392.78 382.024 2394.99 382.816 2397.77 382.816ZM2439.72 388.576C2437.03 388.576 2434.68 388.168 2432.66 387.352C2430.7 386.488 2429.11 385.288 2427.91 383.752C2426.76 382.216 2426.06 380.392 2425.82 378.28H2432.3C2432.59 379.672 2433.36 380.776 2434.61 381.592C2435.9 382.408 2437.61 382.816 2439.72 382.816H2442.74C2445.29 382.816 2447.18 382.312 2448.43 381.304C2449.68 380.248 2450.3 378.856 2450.3 377.128C2450.3 375.448 2449.73 374.128 2448.58 373.168C2447.47 372.16 2445.82 371.488 2443.61 371.152L2438.28 370.288C2434.39 369.616 2431.49 368.416 2429.57 366.688C2427.7 364.912 2426.76 362.344 2426.76 358.984C2426.76 355.432 2427.89 352.696 2430.14 350.776C2432.4 348.808 2435.78 347.824 2440.3 347.824H2443.03C2446.82 347.824 2449.87 348.712 2452.18 350.488C2454.48 352.264 2455.87 354.664 2456.35 357.688H2449.87C2449.58 356.44 2448.86 355.456 2447.71 354.736C2446.56 353.968 2445 353.584 2443.03 353.584H2440.3C2437.85 353.584 2436.05 354.04 2434.9 354.952C2433.79 355.864 2433.24 357.232 2433.24 359.056C2433.24 360.688 2433.72 361.888 2434.68 362.656C2435.64 363.424 2437.15 363.976 2439.22 364.312L2444.54 365.176C2448.82 365.848 2451.91 367.096 2453.83 368.92C2455.8 370.744 2456.78 373.384 2456.78 376.84C2456.78 380.488 2455.61 383.368 2453.26 385.48C2450.95 387.544 2447.45 388.576 2442.74 388.576H2439.72ZM2488.44 388C2485.03 388 2482.36 387.088 2480.44 385.264C2478.57 383.44 2477.64 380.872 2477.64 377.56V354.304H2466.48V348.4H2477.64V337.24H2484.12V348.4H2499.96V354.304H2484.12V377.56C2484.12 380.584 2485.56 382.096 2488.44 382.096H2499.24V388H2488.44ZM2512.17 388V335.44H2520.81L2536.86 380.44C2536.77 379.24 2536.65 377.776 2536.5 376.048C2536.41 374.272 2536.31 372.424 2536.22 370.504C2536.17 368.536 2536.14 366.688 2536.14 364.96V335.44H2542.41V388H2533.77L2517.78 343C2517.88 344.152 2517.98 345.616 2518.07 347.392C2518.17 349.12 2518.24 350.968 2518.29 352.936C2518.38 354.856 2518.43 356.704 2518.43 358.48V388H2512.17ZM2570.46 388.72C2567.34 388.72 2564.6 388.096 2562.25 386.848C2559.95 385.6 2558.15 383.848 2556.85 381.592C2555.6 379.288 2554.98 376.624 2554.98 373.6V362.8C2554.98 359.728 2555.6 357.064 2556.85 354.808C2558.15 352.552 2559.95 350.8 2562.25 349.552C2564.6 348.304 2567.34 347.68 2570.46 347.68C2573.58 347.68 2576.29 348.304 2578.6 349.552C2580.95 350.8 2582.75 352.552 2584 354.808C2585.29 357.064 2585.94 359.728 2585.94 362.8V369.784H2561.32V373.6C2561.32 376.72 2562.11 379.12 2563.69 380.8C2565.28 382.432 2567.53 383.248 2570.46 383.248C2572.96 383.248 2574.97 382.816 2576.51 381.952C2578.04 381.04 2578.98 379.696 2579.32 377.92H2585.8C2585.36 381.232 2583.73 383.872 2580.9 385.84C2578.12 387.76 2574.64 388.72 2570.46 388.72ZM2579.6 365.464V362.8C2579.6 359.68 2578.81 357.28 2577.23 355.6C2575.69 353.92 2573.44 353.08 2570.46 353.08C2567.53 353.08 2565.28 353.92 2563.69 355.6C2562.11 357.28 2561.32 359.68 2561.32 362.8V364.888H2580.11L2579.6 365.464ZM2600.89 388L2594.55 348.4H2600.31L2604.27 376.48C2604.42 377.536 2604.56 378.688 2604.7 379.936C2604.9 381.136 2605.04 382.144 2605.14 382.96C2605.23 382.144 2605.38 381.136 2605.57 379.936C2605.81 378.688 2606 377.536 2606.14 376.48L2610.54 348.4H2616.73L2621.12 376.48C2621.26 377.536 2621.43 378.688 2621.62 379.936C2621.86 381.136 2622.03 382.144 2622.13 382.96C2622.22 382.144 2622.37 381.136 2622.56 379.936C2622.8 378.688 2622.99 377.536 2623.14 376.48L2627.24 348.4H2632.71L2626.09 388H2618.96L2614.71 360.64C2614.52 359.296 2614.3 357.952 2614.06 356.608C2613.82 355.264 2613.66 354.208 2613.56 353.44C2613.46 354.208 2613.32 355.264 2613.13 356.608C2612.94 357.952 2612.72 359.296 2612.48 360.64L2608.02 388H2600.89ZM2642.76 388V382.096H2653.49V341.344H2642.76V335.44H2670.84V341.344H2660.12V382.096H2670.84V388H2642.76ZM2704.3 388C2700.89 388 2698.22 387.088 2696.3 385.264C2694.43 383.44 2693.5 380.872 2693.5 377.56V354.304H2682.34V348.4H2693.5V337.24H2699.98V348.4H2715.82V354.304H2699.98V377.56C2699.98 380.584 2701.42 382.096 2704.3 382.096H2715.1V388H2704.3ZM2743.15 388.72C2740.03 388.72 2737.29 388.096 2734.94 386.848C2732.63 385.6 2730.83 383.848 2729.54 381.592C2728.29 379.288 2727.67 376.624 2727.67 373.6V362.8C2727.67 359.728 2728.29 357.064 2729.54 354.808C2730.83 352.552 2732.63 350.8 2734.94 349.552C2737.29 348.304 2740.03 347.68 2743.15 347.68C2746.27 347.68 2748.98 348.304 2751.28 349.552C2753.63 350.8 2755.43 352.552 2756.68 354.808C2757.98 357.064 2758.63 359.728 2758.63 362.8V369.784H2734V373.6C2734 376.72 2734.79 379.12 2736.38 380.8C2737.96 382.432 2740.22 383.248 2743.15 383.248C2745.64 383.248 2747.66 382.816 2749.19 381.952C2750.73 381.04 2751.67 379.696 2752 377.92H2758.48C2758.05 381.232 2756.42 383.872 2753.59 385.84C2750.8 387.76 2747.32 388.72 2743.15 388.72ZM2752.29 365.464V362.8C2752.29 359.68 2751.5 357.28 2749.91 355.6C2748.38 353.92 2746.12 353.08 2743.15 353.08C2740.22 353.08 2737.96 353.92 2736.38 355.6C2734.79 357.28 2734 359.68 2734 362.8V364.888H2752.79L2752.29 365.464ZM2769.47 388V348.4H2775.16V353.152H2776.45L2775.45 354.88C2775.45 352.672 2776.02 350.92 2777.17 349.624C2778.37 348.328 2779.98 347.68 2782 347.68C2784.21 347.68 2785.91 348.496 2787.11 350.128C2788.31 351.76 2788.91 354.064 2788.91 357.04L2786.97 353.152H2789.99L2788.62 354.88C2788.62 352.672 2789.22 350.92 2790.42 349.624C2791.67 348.328 2793.3 347.68 2795.32 347.68C2797.81 347.68 2799.73 348.616 2801.08 350.488C2802.47 352.36 2803.17 354.832 2803.17 357.904V388H2797.19V357.832C2797.19 356.2 2796.83 354.928 2796.11 354.016C2795.44 353.104 2794.43 352.648 2793.09 352.648C2791.79 352.648 2790.76 353.104 2789.99 354.016C2789.27 354.88 2788.91 356.128 2788.91 357.76V388H2783.73V357.832C2783.73 356.152 2783.34 354.88 2782.57 354.016C2781.85 353.104 2780.82 352.648 2779.48 352.648C2778.13 352.648 2777.13 353.104 2776.45 354.016C2775.78 354.88 2775.45 356.128 2775.45 357.76V388H2769.47Z" fill="black"/>
<path d="M1300.86 4.11219L1320.82 9.46043C1323.53 10.1851 1326.07 11.1856 1328.45 12.4618C1330.85 13.6839 1332.85 15.205 1334.45 17.025C1336.1 18.8594 1337.24 20.9909 1337.87 23.4194C1338.49 25.8478 1338.4 28.5766 1337.58 31.6058C1336.47 35.7708 1334.37 38.8597 1331.28 40.8725C1328.25 42.8457 1324.59 43.7485 1320.29 43.5811L1328.8 73.1673L1316.46 69.8627L1309.68 41.9559L1302.21 39.9557L1295.69 64.2971L1285.47 61.5577L1300.86 4.11219ZM1312.81 33.8379C1314.27 34.2292 1315.76 34.5123 1317.28 34.6873C1318.8 34.8623 1320.2 34.8044 1321.5 34.5138C1322.85 34.2377 1324.05 33.6601 1325.1 32.7812C1326.16 31.8482 1326.92 30.5162 1327.38 28.7853C1327.8 27.2166 1327.79 25.8512 1327.35 24.6892C1326.92 23.473 1326.25 22.4225 1325.32 21.5376C1324.4 20.6527 1323.27 19.9136 1321.92 19.3204C1320.62 18.7417 1319.33 18.2784 1318.03 17.9306L1308.78 15.4521L1304.45 31.5986L1312.81 33.8379ZM1368.75 58.8262C1369.08 57.582 1369.21 56.3413 1369.13 55.1039C1369.11 53.881 1368.84 52.7354 1368.32 51.667C1367.79 50.5986 1367 49.6616 1365.94 48.8559C1364.95 48.0106 1363.67 47.3778 1362.1 46.9575C1359.18 46.1748 1356.45 46.4006 1353.92 47.6349C1351.45 48.8295 1349.74 50.7772 1348.79 53.4779L1368.75 58.8262ZM1377.31 65.8165C1377.19 66.2492 1377.08 66.682 1376.96 67.1147C1376.84 67.5474 1376.7 67.9729 1376.53 68.3912L1346.92 60.4558C1346.65 61.8911 1346.65 63.2836 1346.93 64.633C1347.27 65.9429 1347.84 67.1682 1348.64 68.3091C1349.45 69.3958 1350.44 70.3566 1351.6 71.1912C1352.77 72.0259 1354.06 72.6317 1355.47 73.0085C1357.9 73.6607 1360.07 73.7788 1361.98 73.3626C1363.9 72.8924 1365.62 72.0178 1367.12 70.7391L1372.22 77.6711C1366.99 81.8349 1360.72 82.9384 1353.42 80.9818C1350.39 80.1701 1347.72 78.9639 1345.43 77.3631C1343.15 75.7082 1341.29 73.7617 1339.86 71.5235C1338.49 69.2997 1337.59 66.7988 1337.18 64.0207C1336.83 61.203 1337.08 58.1985 1337.94 55.007C1338.78 51.8697 1340.06 49.1676 1341.76 46.9007C1343.54 44.5941 1345.59 42.7947 1347.91 41.5025C1350.24 40.1562 1352.78 39.3295 1355.53 39.0226C1358.35 38.6761 1361.22 38.8941 1364.14 39.6768C1366.84 40.4015 1369.21 41.528 1371.23 43.0563C1373.33 44.545 1374.97 46.4065 1376.17 48.6409C1377.38 50.8211 1378.09 53.3597 1378.3 56.2566C1378.58 59.1139 1378.25 62.3005 1377.31 65.8165ZM1438.88 59.7048C1441.42 60.3861 1443.46 61.4256 1445 62.8234C1446.61 64.1817 1447.79 65.7433 1448.53 67.5081C1449.33 69.2875 1449.75 71.1962 1449.78 73.2344C1449.81 75.2725 1449.56 77.2923 1449.03 79.2937L1442.5 103.635L1432.77 101.026L1438.55 79.4435C1438.85 78.3075 1439.09 77.0958 1439.26 75.8082C1439.43 74.5206 1439.38 73.3175 1439.1 72.1989C1438.83 71.0262 1438.3 69.9849 1437.5 69.0749C1436.76 68.1794 1435.6 67.5215 1434.03 67.1012C1432.52 66.6953 1431.13 66.672 1429.87 67.0313C1428.62 67.3905 1427.5 67.9898 1426.52 68.8291C1425.54 69.6684 1424.72 70.6937 1424.05 71.9049C1423.39 73.0621 1422.89 74.2627 1422.56 75.5068L1416.86 96.7649L1407.13 94.156L1413.43 70.6261C1414.08 68.1919 1414.03 66.0311 1413.26 64.1436C1412.55 62.2165 1410.96 60.9195 1408.47 60.2528C1407.01 59.8615 1405.65 59.8454 1404.4 60.2047C1403.16 60.5098 1402.05 61.055 1401.09 61.8402C1400.18 62.6399 1399.36 63.6382 1398.63 64.8349C1397.98 65.9921 1397.47 67.2197 1397.13 68.5179L1391.39 89.9383L1381.65 87.3294L1392.09 48.3833L1401.34 50.8617L1399.66 57.1093L1399.82 57.1528C1400.52 56.2951 1401.33 55.5278 1402.27 54.8507C1403.26 54.1881 1404.33 53.6357 1405.49 53.1934C1406.71 52.7656 1408.02 52.5363 1409.42 52.5055C1410.83 52.4206 1412.32 52.5884 1413.89 53.0087C1416.92 53.8203 1419.25 55.1704 1420.89 57.059C1422.53 58.9476 1423.6 61.1457 1424.08 63.6533C1426.02 61.6211 1428.24 60.2729 1430.73 59.6085C1433.24 58.8901 1435.96 58.9222 1438.88 59.7048ZM1456.82 86.427C1457.65 83.3438 1458.94 80.703 1460.69 78.5046C1462.5 76.2667 1464.6 74.5088 1466.97 73.2311C1469.34 71.9533 1471.95 71.1755 1474.81 70.8976C1477.67 70.6196 1480.56 70.872 1483.48 71.6546C1486.4 72.4373 1489.03 73.6633 1491.36 75.3327C1493.7 77.002 1495.57 78.9829 1496.99 81.2752C1498.4 83.5675 1499.31 86.1298 1499.71 88.962C1500.18 91.7546 1500 94.6925 1499.18 97.7757C1498.35 100.859 1497.03 103.52 1495.21 105.757C1493.45 108.01 1491.38 109.802 1488.99 111.134C1486.62 112.412 1484 113.217 1481.12 113.549C1478.25 113.881 1475.36 113.655 1472.43 112.873C1469.51 112.09 1466.89 110.837 1464.57 109.113C1462.25 107.39 1460.38 105.382 1458.97 103.09C1457.57 100.743 1456.64 98.1468 1456.19 95.3002C1455.78 92.468 1456 89.5102 1456.82 86.427ZM1466.72 89.0794C1466.32 90.594 1466.13 92.1665 1466.15 93.797C1466.24 95.442 1466.58 96.9828 1467.18 98.4192C1467.78 99.8556 1468.68 101.141 1469.88 102.275C1471.09 103.409 1472.66 104.237 1474.61 104.759C1476.56 105.281 1478.33 105.351 1479.94 104.971C1481.55 104.59 1482.98 103.928 1484.22 102.985C1485.45 102.041 1486.49 100.87 1487.33 99.4714C1488.22 98.0872 1488.87 96.6379 1489.28 95.1233C1489.68 93.6088 1489.84 92.056 1489.74 90.4651C1489.72 88.8346 1489.4 87.3011 1488.8 85.8647C1488.2 84.4283 1487.29 83.17 1486.07 82.09C1484.87 80.9559 1483.3 80.1279 1481.35 79.6061C1479.4 79.0844 1477.62 79.0137 1476.01 79.3941C1474.42 79.7205 1473 80.3555 1471.76 81.2991C1470.53 82.2427 1469.46 83.4066 1468.57 84.7907C1467.74 86.1353 1467.13 87.5648 1466.72 89.0794ZM1506.11 87.2836L1508.19 79.4944L1515.01 81.3206L1518.03 70.0425L1527.61 72.6079L1524.58 83.886L1534.32 86.4949L1532.23 94.2841L1522.5 91.6752L1517.65 109.769C1517.18 111.5 1517.1 113.013 1517.39 114.308C1517.73 115.618 1518.99 116.563 1521.15 117.143C1521.8 117.317 1522.52 117.451 1523.3 117.546C1524.11 117.586 1524.84 117.551 1525.51 117.44L1523.79 125.154C1522.84 125.247 1521.74 125.215 1520.51 125.058C1519.26 124.956 1518.1 124.76 1517.01 124.47C1514.42 123.774 1512.4 122.857 1510.97 121.719C1509.55 120.527 1508.52 119.178 1507.88 117.673C1507.31 116.129 1507.05 114.494 1507.1 112.77C1507.23 111.006 1507.55 109.178 1508.05 107.285L1512.92 89.1098L1506.11 87.2836ZM1564.62 111.31C1564.95 110.066 1565.08 108.825 1565.01 107.588C1564.99 106.365 1564.71 105.219 1564.19 104.151C1563.66 103.082 1562.87 102.145 1561.81 101.34C1560.82 100.494 1559.54 99.8614 1557.97 99.4411C1555.05 98.6585 1552.32 98.8842 1549.79 100.119C1547.32 101.313 1545.61 103.261 1544.66 105.962L1564.62 111.31ZM1573.18 118.3C1573.06 118.733 1572.95 119.166 1572.83 119.598C1572.72 120.031 1572.57 120.457 1572.4 120.875L1542.79 112.939C1542.52 114.375 1542.52 115.767 1542.8 117.117C1543.14 118.427 1543.71 119.652 1544.51 120.793C1545.32 121.879 1546.31 122.84 1547.48 123.675C1548.64 124.51 1549.93 125.115 1551.34 125.492C1553.77 126.144 1555.94 126.262 1557.85 125.846C1559.78 125.376 1561.49 124.501 1562.99 123.223L1568.09 130.155C1562.86 134.319 1556.59 135.422 1549.29 133.465C1546.26 132.654 1543.6 131.448 1541.3 129.847C1539.02 128.192 1537.16 126.245 1535.73 124.007C1534.36 121.783 1533.46 119.282 1533.05 116.504C1532.7 113.687 1532.96 110.682 1533.81 107.491C1534.65 104.353 1535.93 101.651 1537.64 99.3843C1539.41 97.0778 1541.46 95.2784 1543.78 93.9862C1546.11 92.6398 1548.65 91.8132 1551.4 91.5063C1554.22 91.1597 1557.09 91.3778 1560.01 92.1605C1562.71 92.8852 1565.08 94.0117 1567.1 95.54C1569.2 97.0287 1570.84 98.8902 1572.04 101.125C1573.26 103.305 1573.97 105.843 1574.18 108.74C1574.45 111.598 1574.12 114.784 1573.18 118.3ZM1617.57 108.802L1616.12 114.239L1616.36 114.304C1617.05 113.677 1617.87 113.086 1618.83 112.532C1619.86 111.938 1621.03 111.496 1622.32 111.205C1623.63 110.86 1625.04 110.687 1626.55 110.685C1628.12 110.644 1629.8 110.862 1631.59 111.341C1634.35 112.08 1636.75 113.302 1638.78 115.007C1640.83 116.658 1642.45 118.628 1643.63 120.916C1644.82 123.205 1645.54 125.716 1645.79 128.451C1646.04 131.185 1645.78 133.986 1645.02 136.853C1644.25 139.72 1643.06 142.301 1641.46 144.597C1639.93 146.853 1638.07 148.704 1635.89 150.147C1633.77 151.552 1631.37 152.503 1628.69 153.001C1626.07 153.46 1623.28 153.291 1620.3 152.493C1617.54 151.754 1615.15 150.505 1613.13 148.746C1611.16 147.001 1609.82 144.989 1609.1 142.708L1608.93 142.664L1602.32 167.33L1592.59 164.721L1608.24 106.302L1617.57 108.802ZM1635.12 134.201C1635.52 132.686 1635.68 131.133 1635.58 129.542C1635.56 127.912 1635.24 126.378 1634.64 124.942C1634.04 123.505 1633.13 122.247 1631.91 121.167C1630.71 120.033 1629.16 119.212 1627.27 118.705C1625.48 118.227 1623.79 118.178 1622.18 118.558C1620.57 118.939 1619.09 119.586 1617.74 120.501C1616.45 121.43 1615.33 122.579 1614.38 123.949C1613.49 125.333 1612.84 126.783 1612.44 128.297C1612.03 129.812 1611.87 131.392 1611.95 133.037C1612.1 134.642 1612.5 136.17 1613.16 137.621C1613.86 139.086 1614.82 140.386 1616.02 141.52C1617.24 142.6 1618.74 143.38 1620.53 143.858C1622.42 144.365 1624.17 144.429 1625.78 144.048C1627.39 143.668 1628.82 143.006 1630.05 142.062C1631.29 141.118 1632.33 139.947 1633.17 138.549C1634.06 137.164 1634.71 135.715 1635.12 134.201ZM1659.59 120.06L1668.92 122.56L1667.18 129.051L1667.34 129.095C1669.03 127.113 1671.04 125.679 1673.36 124.795C1675.69 123.91 1678.15 123.816 1680.74 124.511C1681.12 124.613 1681.52 124.749 1681.94 124.919C1682.37 125.035 1682.74 125.19 1683.03 125.385L1680.64 134.311C1680.03 133.974 1679.5 133.714 1679.02 133.529C1678.6 133.359 1678.18 133.216 1677.75 133.1C1675.53 132.506 1673.64 132.434 1672.07 132.883C1670.5 133.332 1669.18 134.023 1668.12 134.956C1667.06 135.889 1666.23 136.914 1665.64 138.031C1665.05 139.149 1664.66 140.059 1664.48 140.763L1658.89 161.615L1649.15 159.006L1659.59 120.06ZM1680.27 146.299C1681.1 143.216 1682.38 140.575 1684.13 138.377C1685.95 136.139 1688.04 134.381 1690.41 133.103C1692.79 131.825 1695.4 131.048 1698.26 130.77C1701.12 130.492 1704 130.744 1706.93 131.527C1709.85 132.309 1712.47 133.535 1714.81 135.205C1717.15 136.874 1719.02 138.855 1720.44 141.147C1721.85 143.44 1722.76 146.002 1723.16 148.834C1723.63 151.627 1723.45 154.565 1722.62 157.648C1721.8 160.731 1720.48 163.392 1718.66 165.63C1716.9 167.882 1714.82 169.674 1712.43 171.006C1710.06 172.284 1707.44 173.089 1704.57 173.421C1701.7 173.753 1698.8 173.527 1695.88 172.745C1692.96 171.962 1690.34 170.709 1688.02 168.986C1685.7 167.262 1683.83 165.254 1682.41 162.962C1681.01 160.616 1680.09 158.019 1679.63 155.172C1679.23 152.34 1679.44 149.382 1680.27 146.299ZM1690.17 148.952C1689.76 150.466 1689.57 152.039 1689.6 153.669C1689.68 155.314 1690.02 156.855 1690.62 158.291C1691.22 159.728 1692.13 161.013 1693.33 162.147C1694.53 163.281 1696.11 164.109 1698.05 164.631C1700 165.153 1701.78 165.223 1703.39 164.843C1705 164.463 1706.42 163.801 1707.66 162.857C1708.9 161.913 1709.94 160.742 1710.78 159.344C1711.67 157.959 1712.32 156.51 1712.72 154.995C1713.13 153.481 1713.29 151.928 1713.19 150.337C1713.16 148.707 1712.85 147.173 1712.25 145.737C1711.65 144.3 1710.74 143.042 1709.52 141.962C1708.32 140.828 1706.74 140 1704.79 139.478C1702.85 138.956 1701.07 138.886 1699.46 139.266C1697.86 139.593 1696.45 140.228 1695.21 141.171C1693.97 142.115 1692.91 143.279 1692.01 144.663C1691.19 146.007 1690.57 147.437 1690.17 148.952ZM1760.96 158.789C1760.49 157.504 1759.6 156.307 1758.27 155.198C1756.96 154.035 1755.52 153.243 1753.95 152.823C1752.16 152.345 1750.49 152.303 1748.94 152.698C1747.4 153.039 1746.01 153.681 1744.77 154.625C1743.59 155.583 1742.57 156.761 1741.74 158.16C1740.91 159.504 1740.3 160.934 1739.89 162.449C1739.48 163.963 1739.3 165.536 1739.32 167.166C1739.42 168.757 1739.77 170.271 1740.37 171.707C1740.97 173.144 1741.84 174.422 1742.99 175.541C1744.21 176.621 1745.74 177.408 1747.58 177.901C1749.09 178.306 1750.69 178.415 1752.36 178.225C1754.03 178.036 1755.48 177.497 1756.71 176.607L1761.14 184.404C1759.05 185.701 1756.61 186.495 1753.81 186.787C1751.07 187.04 1748.24 186.775 1745.32 185.993C1742.46 185.224 1739.85 184.033 1737.5 182.417C1735.2 180.817 1733.32 178.863 1731.85 176.556C1730.43 174.264 1729.5 171.694 1729.05 168.848C1728.64 166.015 1728.88 162.976 1729.75 159.731C1730.59 156.594 1731.89 153.899 1733.65 151.646C1735.47 149.408 1737.57 147.651 1739.94 146.373C1742.31 145.095 1744.87 144.303 1747.62 143.996C1750.42 143.703 1753.26 143.941 1756.12 144.709C1758.99 145.478 1761.6 146.758 1763.96 148.55C1766.38 150.356 1768.12 152.416 1769.18 154.73L1760.96 158.789ZM1800.11 174.409C1800.44 173.165 1800.57 171.924 1800.5 170.687C1800.48 169.464 1800.2 168.318 1799.68 167.25C1799.15 166.182 1798.36 165.245 1797.3 164.439C1796.31 163.594 1795.03 162.961 1793.46 162.54C1790.54 161.758 1787.81 161.984 1785.28 163.218C1782.81 164.412 1781.1 166.36 1780.15 169.061L1800.11 174.409ZM1808.67 181.399C1808.55 181.832 1808.44 182.265 1808.32 182.698C1808.21 183.13 1808.06 183.556 1807.89 183.974L1778.28 176.039C1778.01 177.474 1778.01 178.866 1778.29 180.216C1778.63 181.526 1779.2 182.751 1780 183.892C1780.81 184.979 1781.8 185.939 1782.97 186.774C1784.13 187.609 1785.42 188.215 1786.83 188.591C1789.26 189.244 1791.43 189.362 1793.34 188.946C1795.27 188.475 1796.98 187.601 1798.48 186.322L1803.58 193.254C1798.35 197.418 1792.08 198.521 1784.78 196.565C1781.75 195.753 1779.09 194.547 1776.79 192.946C1774.51 191.291 1772.65 189.345 1771.22 187.106C1769.85 184.883 1768.95 182.382 1768.54 179.604C1768.19 176.786 1768.45 173.781 1769.3 170.59C1770.14 167.453 1771.42 164.751 1773.13 162.484C1774.9 160.177 1776.95 158.378 1779.27 157.085C1781.6 155.739 1784.14 154.912 1786.89 154.606C1789.71 154.259 1792.58 154.477 1795.5 155.26C1798.2 155.984 1800.57 157.111 1802.59 158.639C1804.69 160.128 1806.33 161.989 1807.53 164.224C1808.74 166.404 1809.46 168.943 1809.67 171.84C1809.94 174.697 1809.61 177.883 1808.67 181.399ZM1852.61 213.522L1843.36 211.043L1844.92 205.201L1844.76 205.158C1842.8 207.068 1840.44 208.291 1837.69 208.829C1834.99 209.381 1832.26 209.288 1829.5 208.549C1826.53 207.751 1824 206.493 1821.9 204.774C1819.88 203.014 1818.28 200.991 1817.1 198.702C1815.98 196.374 1815.3 193.843 1815.04 191.108C1814.86 188.334 1815.15 185.513 1815.92 182.647C1816.69 179.78 1817.87 177.225 1819.45 174.983C1821.04 172.742 1822.92 170.926 1825.09 169.536C1827.25 168.146 1829.64 167.249 1832.24 166.845C1834.86 166.386 1837.54 166.526 1840.3 167.265C1842.09 167.744 1843.63 168.388 1844.92 169.197C1846.22 169.953 1847.31 170.766 1848.18 171.636C1849.1 172.521 1849.84 173.416 1850.41 174.323C1850.98 175.229 1851.42 176.071 1851.74 176.851L1851.98 176.916L1859.31 149.573L1869.04 152.182L1852.61 213.522ZM1825.82 185.299C1825.41 186.813 1825.22 188.386 1825.25 190.017C1825.33 191.662 1825.67 193.202 1826.27 194.639C1826.87 196.075 1827.78 197.36 1828.98 198.495C1830.18 199.629 1831.73 200.449 1833.62 200.957C1835.41 201.435 1837.1 201.511 1838.69 201.185C1840.3 200.804 1841.75 200.149 1843.05 199.22C1844.39 198.306 1845.51 197.183 1846.38 195.853C1847.33 194.484 1848.01 193.041 1848.41 191.527C1848.82 190.012 1848.95 188.425 1848.82 186.766C1848.74 185.121 1848.34 183.566 1847.63 182.1C1846.98 180.649 1846.05 179.357 1844.85 178.223C1843.64 177.088 1842.15 176.282 1840.36 175.804C1838.47 175.297 1836.72 175.233 1835.11 175.614C1833.52 175.94 1832.1 176.575 1830.86 177.519C1829.62 178.462 1828.56 179.626 1827.66 181.01C1826.84 182.355 1826.22 183.784 1825.82 185.299ZM1899.97 226.214L1890.72 223.735L1892.4 217.488L1892.24 217.444C1890.85 219.16 1888.87 220.485 1886.3 221.42C1883.8 222.315 1881.09 222.371 1878.17 221.589C1875.63 220.907 1873.55 219.888 1871.94 218.529C1870.41 217.131 1869.24 215.543 1868.44 213.764C1867.69 211.999 1867.3 210.097 1867.27 208.059C1867.24 206.021 1867.49 204.001 1868.02 202L1874.55 177.658L1884.28 180.267L1878.5 201.85C1878.2 202.986 1877.96 204.198 1877.79 205.485C1877.62 206.773 1877.66 208.003 1877.93 209.176C1878.21 210.294 1878.72 211.301 1879.47 212.197C1880.27 213.107 1881.45 213.772 1883.02 214.192C1884.53 214.598 1885.94 214.656 1887.23 214.365C1888.6 214.035 1889.76 213.477 1890.73 212.692C1891.74 211.921 1892.61 210.964 1893.32 209.822C1894.05 208.625 1894.59 207.377 1894.93 206.079L1900.67 184.659L1910.41 187.268L1899.97 226.214ZM1922.1 190.399L1931.43 192.899L1929.69 199.39L1929.85 199.434C1931.54 197.452 1933.55 196.019 1935.87 195.134C1938.2 194.249 1940.66 194.155 1943.25 194.851C1943.63 194.952 1944.03 195.088 1944.45 195.258C1944.88 195.374 1945.25 195.529 1945.54 195.724L1943.15 204.65C1942.54 204.313 1942 204.053 1941.53 203.869C1941.11 203.698 1940.69 203.555 1940.26 203.44C1938.04 202.845 1936.14 202.773 1934.57 203.222C1933 203.671 1931.69 204.362 1930.63 205.295C1929.57 206.228 1928.74 207.253 1928.15 208.371C1927.56 209.488 1927.17 210.399 1926.98 211.102L1921.4 231.954L1911.66 229.345L1922.1 190.399ZM1973.48 220.863C1973.81 219.619 1973.94 218.378 1973.86 217.141C1973.84 215.918 1973.57 214.772 1973.05 213.704C1972.52 212.636 1971.73 211.698 1970.67 210.893C1969.68 210.048 1968.4 209.415 1966.83 208.994C1963.91 208.212 1961.18 208.438 1958.65 209.672C1956.18 210.866 1954.47 212.814 1953.52 215.515L1973.48 220.863ZM1982.04 227.853C1981.92 228.286 1981.81 228.719 1981.69 229.152C1981.57 229.584 1981.43 230.01 1981.26 230.428L1951.65 222.493C1951.38 223.928 1951.38 225.32 1951.66 226.67C1952 227.98 1952.57 229.205 1953.37 230.346C1954.18 231.433 1955.17 232.393 1956.33 233.228C1957.5 234.063 1958.79 234.669 1960.2 235.045C1962.63 235.698 1964.8 235.816 1966.71 235.4C1968.63 234.929 1970.35 234.055 1971.85 232.776L1976.95 239.708C1971.72 243.872 1965.45 244.975 1958.15 243.019C1955.12 242.207 1952.45 241.001 1950.16 239.4C1947.88 237.745 1946.02 235.799 1944.59 233.56C1943.22 231.337 1942.32 228.836 1941.91 226.058C1941.56 223.24 1941.81 220.235 1942.67 217.044C1943.51 213.907 1944.79 211.205 1946.49 208.938C1948.27 206.631 1950.32 204.832 1952.64 203.539C1954.97 202.193 1957.51 201.366 1960.26 201.06C1963.08 200.713 1965.95 200.931 1968.87 201.714C1971.57 202.438 1973.94 203.565 1975.96 205.093C1978.06 206.582 1979.7 208.443 1980.9 210.678C1982.11 212.858 1982.82 215.397 1983.03 218.294C1983.31 221.151 1982.98 224.337 1982.04 227.853ZM2040.82 233.778C2040.35 232.493 2039.46 231.296 2038.13 230.187C2036.82 229.024 2035.38 228.232 2033.81 227.812C2032.03 227.334 2030.36 227.292 2028.8 227.687C2027.26 228.028 2025.87 228.67 2024.63 229.614C2023.45 230.572 2022.44 231.75 2021.6 233.149C2020.77 234.493 2020.16 235.923 2019.75 237.437C2019.35 238.952 2019.16 240.524 2019.18 242.155C2019.28 243.746 2019.63 245.26 2020.23 246.696C2020.83 248.132 2021.7 249.41 2022.85 250.53C2024.07 251.61 2025.6 252.397 2027.44 252.889C2028.95 253.295 2030.55 253.403 2032.22 253.214C2033.9 253.025 2035.35 252.486 2036.57 251.596L2041 259.393C2038.92 260.689 2036.47 261.484 2033.67 261.776C2030.93 262.029 2028.11 261.764 2025.18 260.981C2022.32 260.213 2019.71 259.021 2017.36 257.406C2015.06 255.805 2013.18 253.852 2011.71 251.545C2010.3 249.252 2009.36 246.683 2008.91 243.836C2008.51 241.004 2008.74 237.965 2009.61 234.72C2010.45 231.582 2011.75 228.888 2013.52 226.635C2015.33 224.397 2017.43 222.639 2019.8 221.362C2022.17 220.084 2024.73 219.291 2027.48 218.985C2030.28 218.692 2033.12 218.93 2035.99 219.698C2038.85 220.466 2041.47 221.746 2043.83 223.538C2046.24 225.345 2047.98 227.405 2049.04 229.719L2040.82 233.778ZM2071.79 266.947L2071.54 266.881C2070.11 268.351 2068.15 269.364 2065.69 269.921C2063.23 270.423 2060.63 270.304 2057.87 269.565C2056.3 269.145 2054.71 268.486 2053.09 267.59C2051.52 266.762 2050.12 265.692 2048.91 264.381C2047.76 263.031 2046.91 261.468 2046.34 259.692C2045.84 257.877 2045.89 255.834 2046.5 253.562C2047.29 250.641 2048.72 248.533 2050.81 247.236C2052.95 245.955 2055.44 245.202 2058.28 244.978C2061.12 244.754 2064.15 244.928 2067.36 245.498C2070.64 246.028 2073.79 246.699 2076.82 247.511L2077.08 246.537C2077.73 244.103 2077.32 242.079 2075.84 240.465C2074.43 238.811 2072.5 237.658 2070.07 237.006C2068.02 236.455 2065.92 236.359 2063.8 236.717C2061.67 237.075 2059.82 237.71 2058.25 238.62L2054.8 231.349C2057.57 229.888 2060.53 229.028 2063.67 228.768C2066.86 228.523 2069.95 228.799 2072.93 229.596C2076.39 230.524 2079.1 231.772 2081.05 233.34C2083.06 234.922 2084.51 236.671 2085.39 238.588C2086.26 240.504 2086.69 242.502 2086.65 244.579C2086.67 246.672 2086.42 248.691 2085.9 250.639L2079.55 274.331L2070.46 271.896L2071.79 266.947ZM2075.06 254.083L2072.87 253.496C2071.3 253.076 2069.63 252.715 2067.86 252.413C2066.1 252.058 2064.42 251.928 2062.83 252.023C2061.25 252.065 2059.86 252.388 2058.66 252.992C2057.46 253.543 2056.67 254.548 2056.28 256.009C2056.04 256.928 2056.02 257.763 2056.22 258.514C2056.49 259.225 2056.9 259.857 2057.45 260.409C2058 260.962 2058.66 261.428 2059.42 261.808C2060.19 262.187 2060.98 262.486 2061.79 262.703C2065.15 263.602 2067.93 263.391 2070.14 262.069C2072.35 260.748 2073.86 258.546 2074.69 255.463L2075.06 254.083ZM2107.49 216.074L2117.23 218.683L2100.79 280.023L2091.05 277.414L2107.49 216.074ZM2129.2 221.891L2138.94 224.5L2122.5 285.84L2112.77 283.231L2129.2 221.891Z" fill="#444444"/>
<path d="M344.006 740.591C342.631 740.591 341.376 740.256 340.239 739.585C339.103 738.903 338.194 737.994 337.512 736.858C336.842 735.722 336.506 734.466 336.506 733.091C336.506 731.705 336.842 730.449 337.512 729.324C338.194 728.187 339.103 727.284 340.239 726.614C341.376 725.932 342.631 725.591 344.006 725.591C345.393 725.591 346.648 725.932 347.773 726.614C348.91 727.284 349.813 728.187 350.484 729.324C351.165 730.449 351.506 731.705 351.506 733.091C351.506 734.466 351.165 735.722 350.484 736.858C349.813 737.994 348.91 738.903 347.773 739.585C346.648 740.256 345.393 740.591 344.006 740.591ZM387.023 747L380.477 720.818H389.886L392.886 736.773H393.091L396.432 720.818H405.568L409.045 736.636H409.25L412.114 720.818H421.523L414.977 747H404.818L401.136 732.955H400.864L397.182 747H387.023ZM431.682 747.409C430.011 747.409 428.534 747.136 427.25 746.591C425.977 746.034 424.977 745.193 424.25 744.068C423.523 742.943 423.159 741.511 423.159 739.773C423.159 738.341 423.403 737.119 423.892 736.108C424.381 735.085 425.062 734.25 425.938 733.602C426.812 732.955 427.83 732.46 428.989 732.119C430.159 731.778 431.42 731.557 432.773 731.455C434.239 731.341 435.415 731.205 436.301 731.045C437.199 730.875 437.847 730.642 438.244 730.347C438.642 730.04 438.841 729.636 438.841 729.136V729.068C438.841 728.386 438.58 727.864 438.057 727.5C437.534 727.136 436.864 726.955 436.045 726.955C435.148 726.955 434.415 727.153 433.847 727.551C433.29 727.937 432.955 728.534 432.841 729.341H424.182C424.295 727.75 424.801 726.284 425.699 724.943C426.608 723.591 427.932 722.511 429.67 721.705C431.409 720.886 433.58 720.477 436.182 720.477C438.057 720.477 439.739 720.699 441.227 721.142C442.716 721.574 443.983 722.182 445.028 722.966C446.074 723.739 446.869 724.648 447.415 725.693C447.972 726.727 448.25 727.852 448.25 729.068V747H439.455V743.318H439.25C438.727 744.295 438.091 745.085 437.341 745.688C436.602 746.29 435.756 746.727 434.801 747C433.858 747.273 432.818 747.409 431.682 747.409ZM434.75 741.477C435.466 741.477 436.136 741.33 436.761 741.034C437.398 740.739 437.915 740.312 438.312 739.756C438.71 739.199 438.909 738.523 438.909 737.727V735.545C438.659 735.648 438.392 735.744 438.108 735.835C437.835 735.926 437.54 736.011 437.222 736.091C436.915 736.17 436.585 736.244 436.233 736.312C435.892 736.381 435.534 736.443 435.159 736.5C434.432 736.614 433.835 736.801 433.369 737.062C432.915 737.312 432.574 737.625 432.347 738C432.131 738.364 432.023 738.773 432.023 739.227C432.023 739.955 432.278 740.511 432.79 740.898C433.301 741.284 433.955 741.477 434.75 741.477ZM468.359 720.818V727.636H451.109V720.818H468.359ZM454.45 714.545H463.859V738.58C463.859 738.943 463.922 739.25 464.047 739.5C464.172 739.739 464.365 739.92 464.626 740.045C464.888 740.159 465.223 740.216 465.632 740.216C465.916 740.216 466.246 740.182 466.621 740.114C467.007 740.045 467.291 739.989 467.473 739.943L468.837 746.557C468.416 746.682 467.814 746.835 467.03 747.017C466.257 747.199 465.337 747.318 464.268 747.375C462.109 747.489 460.297 747.267 458.831 746.71C457.365 746.142 456.263 745.25 455.524 744.034C454.786 742.818 454.428 741.295 454.45 739.466V714.545ZM484.463 747.477C481.668 747.477 479.259 746.943 477.236 745.875C475.224 744.795 473.673 743.25 472.582 741.239C471.503 739.216 470.963 736.795 470.963 733.977C470.963 731.273 471.509 728.909 472.599 726.886C473.69 724.864 475.23 723.29 477.219 722.165C479.207 721.04 481.554 720.477 484.259 720.477C486.236 720.477 488.026 720.784 489.628 721.398C491.23 722.011 492.599 722.903 493.736 724.074C494.872 725.233 495.747 726.642 496.361 728.301C496.974 729.96 497.281 731.83 497.281 733.909V736.091H473.895V730.909H488.622C488.611 730.159 488.418 729.5 488.043 728.932C487.679 728.352 487.185 727.903 486.56 727.585C485.946 727.256 485.247 727.091 484.463 727.091C483.702 727.091 483.003 727.256 482.366 727.585C481.73 727.903 481.219 728.347 480.832 728.915C480.457 729.483 480.259 730.148 480.236 730.909V736.5C480.236 737.341 480.412 738.091 480.764 738.75C481.116 739.409 481.622 739.926 482.281 740.301C482.94 740.676 483.736 740.864 484.668 740.864C485.315 740.864 485.906 740.773 486.44 740.591C486.986 740.409 487.452 740.148 487.838 739.807C488.224 739.455 488.509 739.034 488.69 738.545H497.281C496.986 740.364 496.287 741.943 495.185 743.284C494.082 744.614 492.622 745.648 490.804 746.386C488.997 747.114 486.884 747.477 484.463 747.477ZM501.121 747V720.818H510.257V725.795H510.53C511.007 723.955 511.763 722.608 512.797 721.756C513.842 720.903 515.064 720.477 516.462 720.477C516.871 720.477 517.274 720.511 517.672 720.58C518.081 720.636 518.473 720.722 518.848 720.835V728.864C518.382 728.705 517.808 728.585 517.126 728.506C516.445 728.426 515.859 728.386 515.371 728.386C514.45 728.386 513.621 728.597 512.882 729.017C512.155 729.426 511.581 730.006 511.161 730.756C510.74 731.494 510.53 732.364 510.53 733.364V747H501.121ZM545.865 729.341H537.206C537.161 728.807 536.973 728.347 536.643 727.96C536.314 727.574 535.888 727.278 535.365 727.074C534.854 726.858 534.286 726.75 533.661 726.75C532.854 726.75 532.161 726.898 531.581 727.193C531.001 727.489 530.717 727.909 530.729 728.455C530.717 728.841 530.882 729.199 531.223 729.528C531.575 729.858 532.251 730.114 533.251 730.295L538.57 731.25C541.251 731.739 543.246 732.562 544.553 733.722C545.871 734.869 546.536 736.409 546.547 738.341C546.536 740.205 545.979 741.824 544.876 743.199C543.786 744.562 542.291 745.619 540.393 746.369C538.507 747.108 536.354 747.477 533.933 747.477C529.933 747.477 526.803 746.659 524.541 745.023C522.291 743.386 521.036 741.227 520.774 738.545H530.115C530.24 739.375 530.649 740.017 531.342 740.472C532.047 740.915 532.933 741.136 534.001 741.136C534.865 741.136 535.575 740.989 536.132 740.693C536.7 740.398 536.99 739.977 537.001 739.432C536.99 738.932 536.74 738.534 536.251 738.239C535.774 737.943 535.024 737.705 534.001 737.523L529.365 736.705C526.695 736.239 524.695 735.352 523.365 734.045C522.036 732.739 521.376 731.057 521.388 729C521.376 727.182 521.854 725.642 522.82 724.381C523.797 723.108 525.189 722.142 526.996 721.483C528.814 720.812 530.967 720.477 533.456 720.477C537.24 720.477 540.223 721.261 542.405 722.83C544.598 724.398 545.751 726.568 545.865 729.341ZM559.561 712.091V747H550.152V712.091H559.561ZM564.355 747V720.818H573.764V747H564.355ZM569.06 718.091C567.787 718.091 566.696 717.67 565.787 716.83C564.878 715.989 564.423 714.977 564.423 713.795C564.423 712.614 564.878 711.602 565.787 710.761C566.696 709.92 567.787 709.5 569.06 709.5C570.344 709.5 571.435 709.92 572.332 710.761C573.241 711.602 573.696 712.614 573.696 713.795C573.696 714.977 573.241 715.989 572.332 716.83C571.435 717.67 570.344 718.091 569.06 718.091ZM588.036 747.341C586.172 747.341 584.456 746.852 582.888 745.875C581.331 744.898 580.081 743.415 579.138 741.426C578.206 739.437 577.74 736.932 577.74 733.909C577.74 730.75 578.229 728.182 579.206 726.205C580.195 724.227 581.467 722.778 583.024 721.858C584.592 720.938 586.24 720.477 587.967 720.477C589.263 720.477 590.399 720.705 591.376 721.159C592.354 721.602 593.172 722.199 593.831 722.949C594.49 723.687 594.99 724.5 595.331 725.386H595.467V712.091H604.876V747H595.536V742.705H595.331C594.967 743.591 594.445 744.386 593.763 745.091C593.092 745.784 592.274 746.335 591.308 746.744C590.354 747.142 589.263 747.341 588.036 747.341ZM591.513 740.114C592.376 740.114 593.115 739.864 593.729 739.364C594.354 738.852 594.831 738.136 595.161 737.216C595.501 736.284 595.672 735.182 595.672 733.909C595.672 732.614 595.501 731.506 595.161 730.585C594.831 729.653 594.354 728.943 593.729 728.455C593.115 727.955 592.376 727.705 591.513 727.705C590.649 727.705 589.911 727.955 589.297 728.455C588.695 728.943 588.229 729.653 587.899 730.585C587.581 731.506 587.422 732.614 587.422 733.909C587.422 735.205 587.581 736.318 587.899 737.25C588.229 738.17 588.695 738.881 589.297 739.381C589.911 739.869 590.649 740.114 591.513 740.114ZM622.041 747.477C619.246 747.477 616.837 746.943 614.814 745.875C612.803 744.795 611.251 743.25 610.161 741.239C609.081 739.216 608.541 736.795 608.541 733.977C608.541 731.273 609.087 728.909 610.178 726.886C611.268 724.864 612.808 723.29 614.797 722.165C616.786 721.04 619.132 720.477 621.837 720.477C623.814 720.477 625.604 720.784 627.206 721.398C628.808 722.011 630.178 722.903 631.314 724.074C632.45 725.233 633.325 726.642 633.939 728.301C634.553 729.96 634.859 731.83 634.859 733.909V736.091H611.473V730.909H626.2C626.189 730.159 625.996 729.5 625.621 728.932C625.257 728.352 624.763 727.903 624.138 727.585C623.524 727.256 622.825 727.091 622.041 727.091C621.28 727.091 620.581 727.256 619.945 727.585C619.308 727.903 618.797 728.347 618.411 728.915C618.036 729.483 617.837 730.148 617.814 730.909V736.5C617.814 737.341 617.99 738.091 618.342 738.75C618.695 739.409 619.2 739.926 619.859 740.301C620.518 740.676 621.314 740.864 622.246 740.864C622.893 740.864 623.484 740.773 624.018 740.591C624.564 740.409 625.03 740.148 625.416 739.807C625.803 739.455 626.087 739.034 626.268 738.545H634.859C634.564 740.364 633.865 741.943 632.763 743.284C631.661 744.614 630.2 745.648 628.382 746.386C626.575 747.114 624.462 747.477 622.041 747.477ZM662.631 729.341H653.972C653.926 728.807 653.739 728.347 653.409 727.96C653.08 727.574 652.653 727.278 652.131 727.074C651.619 726.858 651.051 726.75 650.426 726.75C649.619 726.75 648.926 726.898 648.347 727.193C647.767 727.489 647.483 727.909 647.494 728.455C647.483 728.841 647.648 729.199 647.989 729.528C648.341 729.858 649.017 730.114 650.017 730.295L655.335 731.25C658.017 731.739 660.011 732.562 661.318 733.722C662.636 734.869 663.301 736.409 663.312 738.341C663.301 740.205 662.744 741.824 661.642 743.199C660.551 744.562 659.057 745.619 657.159 746.369C655.273 747.108 653.119 747.477 650.699 747.477C646.699 747.477 643.568 746.659 641.307 745.023C639.057 743.386 637.801 741.227 637.54 738.545H646.881C647.006 739.375 647.415 740.017 648.108 740.472C648.813 740.915 649.699 741.136 650.767 741.136C651.631 741.136 652.341 740.989 652.898 740.693C653.466 740.398 653.756 739.977 653.767 739.432C653.756 738.932 653.506 738.534 653.017 738.239C652.54 737.943 651.79 737.705 650.767 737.523L646.131 736.705C643.46 736.239 641.46 735.352 640.131 734.045C638.801 732.739 638.142 731.057 638.153 729C638.142 727.182 638.619 725.642 639.585 724.381C640.563 723.108 641.955 722.142 643.761 721.483C645.58 720.812 647.733 720.477 650.222 720.477C654.006 720.477 656.989 721.261 659.17 722.83C661.364 724.398 662.517 726.568 662.631 729.341Z" fill="black"/>
<path d="M2380.18 481.72L2398.64 432.84H2403.58L2385.12 481.72H2380.18ZM2356.78 481.72L2375.24 432.84H2380.18L2361.72 481.72H2356.78ZM2458.09 476.52C2454.79 476.52 2452.16 475.549 2450.18 473.608C2448.21 471.632 2447.22 468.963 2447.22 465.6V447.4H2451.9V465.6C2451.9 467.749 2452.45 469.431 2453.56 470.644C2454.67 471.823 2456.18 472.412 2458.09 472.412C2460.03 472.412 2461.55 471.823 2462.66 470.644C2463.81 469.431 2464.38 467.749 2464.38 465.6V447.4H2469.06V465.6C2469.06 468.963 2468.05 471.632 2466.04 473.608C2464.03 475.549 2461.38 476.52 2458.09 476.52ZM2478.5 485.36V447.4H2483.18V452.86H2484.12L2483.18 453.952C2483.18 451.768 2483.89 450.052 2485.31 448.804C2486.77 447.521 2488.68 446.88 2491.03 446.88C2493.91 446.88 2496.2 447.833 2497.9 449.74C2499.63 451.612 2500.5 454.195 2500.5 457.488V465.86C2500.5 468.044 2500.1 469.933 2499.3 471.528C2498.54 473.123 2497.45 474.353 2496.03 475.22C2494.64 476.087 2492.98 476.52 2491.03 476.52C2488.71 476.52 2486.82 475.879 2485.37 474.596C2483.91 473.313 2483.18 471.597 2483.18 469.448L2484.12 470.54H2483.08L2483.18 477.04V485.36H2478.5ZM2489.47 472.464C2491.45 472.464 2492.99 471.875 2494.1 470.696C2495.25 469.517 2495.82 467.819 2495.82 465.6V457.8C2495.82 455.581 2495.25 453.883 2494.1 452.704C2492.99 451.525 2491.45 450.936 2489.47 450.936C2487.57 450.936 2486.04 451.543 2484.9 452.756C2483.75 453.969 2483.18 455.651 2483.18 457.8V465.6C2483.18 467.749 2483.75 469.431 2484.9 470.644C2486.04 471.857 2487.57 472.464 2489.47 472.464ZM2518.83 476.52C2515.99 476.52 2513.69 475.567 2511.92 473.66C2510.19 471.753 2509.32 469.171 2509.32 465.912V457.54C2509.32 454.247 2510.19 451.647 2511.92 449.74C2513.65 447.833 2515.96 446.88 2518.83 446.88C2521.19 446.88 2523.08 447.521 2524.5 448.804C2525.92 450.087 2526.63 451.803 2526.63 453.952L2525.7 452.86H2526.74L2526.63 446.36V438.04H2531.31V476H2526.63V470.54H2525.7L2526.63 469.448C2526.63 471.632 2525.92 473.365 2524.5 474.648C2523.08 475.896 2521.19 476.52 2518.83 476.52ZM2520.39 472.464C2522.34 472.464 2523.86 471.857 2524.97 470.644C2526.08 469.431 2526.63 467.749 2526.63 465.6V457.8C2526.63 455.651 2526.08 453.969 2524.97 452.756C2523.86 451.543 2522.34 450.936 2520.39 450.936C2518.42 450.936 2516.86 451.525 2515.71 452.704C2514.57 453.883 2514 455.581 2514 457.8V465.6C2514 467.819 2514.57 469.517 2515.71 470.696C2516.86 471.875 2518.42 472.464 2520.39 472.464ZM2549.18 476.52C2546.17 476.52 2543.79 475.757 2542.06 474.232C2540.32 472.672 2539.46 470.575 2539.46 467.94C2539.46 465.271 2540.32 463.173 2542.06 461.648C2543.79 460.123 2546.13 459.36 2549.08 459.36H2557.92V456.5C2557.92 454.732 2557.38 453.38 2556.31 452.444C2555.27 451.473 2553.78 450.988 2551.83 450.988C2550.14 450.988 2548.71 451.352 2547.57 452.08C2546.43 452.773 2545.77 453.727 2545.59 454.94H2540.91C2541.23 452.479 2542.39 450.52 2544.4 449.064C2546.41 447.608 2548.92 446.88 2551.94 446.88C2555.23 446.88 2557.83 447.729 2559.74 449.428C2561.64 451.127 2562.6 453.432 2562.6 456.344V476H2558.02V470.54H2557.24L2558.02 469.76C2558.02 471.84 2557.21 473.487 2555.58 474.7C2553.98 475.913 2551.85 476.52 2549.18 476.52ZM2550.33 472.828C2552.54 472.828 2554.36 472.273 2555.79 471.164C2557.21 470.055 2557.92 468.633 2557.92 466.9V462.844H2549.18C2547.62 462.844 2546.39 463.277 2545.49 464.144C2544.59 465.011 2544.14 466.189 2544.14 467.68C2544.14 469.275 2544.68 470.54 2545.75 471.476C2546.86 472.377 2548.38 472.828 2550.33 472.828ZM2585.98 476C2583.52 476 2581.59 475.341 2580.21 474.024C2578.85 472.707 2578.18 470.852 2578.18 468.46V451.664H2570.12V447.4H2578.18V439.34H2582.86V447.4H2594.3V451.664H2582.86V468.46C2582.86 470.644 2583.9 471.736 2585.98 471.736H2593.78V476H2585.98ZM2614.04 476.52C2611.78 476.52 2609.81 476.069 2608.11 475.168C2606.45 474.267 2605.15 473.001 2604.21 471.372C2603.31 469.708 2602.86 467.784 2602.86 465.6V457.8C2602.86 455.581 2603.31 453.657 2604.21 452.028C2605.15 450.399 2606.45 449.133 2608.11 448.232C2609.81 447.331 2611.78 446.88 2614.04 446.88C2616.29 446.88 2618.25 447.331 2619.91 448.232C2621.61 449.133 2622.91 450.399 2623.81 452.028C2624.75 453.657 2625.22 455.581 2625.22 457.8V462.844H2607.43V465.6C2607.43 467.853 2608.01 469.587 2609.15 470.8C2610.29 471.979 2611.92 472.568 2614.04 472.568C2615.84 472.568 2617.3 472.256 2618.41 471.632C2619.51 470.973 2620.19 470.003 2620.43 468.72H2625.11C2624.8 471.112 2623.62 473.019 2621.58 474.44C2619.57 475.827 2617.05 476.52 2614.04 476.52ZM2620.64 459.724V457.8C2620.64 455.547 2620.07 453.813 2618.93 452.6C2617.82 451.387 2616.19 450.78 2614.04 450.78C2611.92 450.78 2610.29 451.387 2609.15 452.6C2608.01 453.813 2607.43 455.547 2607.43 457.8V459.308H2621.01L2620.64 459.724ZM2674.73 476.52C2671.89 476.52 2669.58 475.567 2667.82 473.66C2666.08 471.753 2665.22 469.171 2665.22 465.912V457.54C2665.22 454.247 2666.08 451.647 2667.82 449.74C2669.55 447.833 2671.86 446.88 2674.73 446.88C2677.09 446.88 2678.98 447.521 2680.4 448.804C2681.82 450.087 2682.53 451.803 2682.53 453.952L2681.6 452.86H2682.64L2682.53 446.36V438.04H2687.21V476H2682.53V470.54H2681.6L2682.53 469.448C2682.53 471.632 2681.82 473.365 2680.4 474.648C2678.98 475.896 2677.09 476.52 2674.73 476.52ZM2676.29 472.464C2678.23 472.464 2679.76 471.857 2680.87 470.644C2681.98 469.431 2682.53 467.749 2682.53 465.6V457.8C2682.53 455.651 2681.98 453.969 2680.87 452.756C2679.76 451.543 2678.23 450.936 2676.29 450.936C2674.32 450.936 2672.76 451.525 2671.61 452.704C2670.47 453.883 2669.9 455.581 2669.9 457.8V465.6C2669.9 467.819 2670.47 469.517 2671.61 470.696C2672.76 471.875 2674.32 472.464 2676.29 472.464ZM2709.24 476.52C2706.88 476.52 2704.99 475.896 2703.57 474.648C2702.15 473.365 2701.44 471.632 2701.44 469.448L2702.38 470.54H2701.44V476H2696.76V438.04H2701.44V446.36L2701.34 452.86H2702.38L2701.44 453.952C2701.44 451.803 2702.15 450.087 2703.57 448.804C2705.03 447.521 2706.92 446.88 2709.24 446.88C2712.12 446.88 2714.42 447.833 2716.16 449.74C2717.89 451.647 2718.76 454.247 2718.76 457.54V465.912C2718.76 469.171 2717.89 471.753 2716.16 473.66C2714.42 475.567 2712.12 476.52 2709.24 476.52ZM2707.68 472.464C2709.66 472.464 2711.22 471.875 2712.36 470.696C2713.5 469.517 2714.08 467.819 2714.08 465.6V457.8C2714.08 455.581 2713.5 453.883 2712.36 452.704C2711.22 451.525 2709.66 450.936 2707.68 450.936C2705.77 450.936 2704.25 451.543 2703.1 452.756C2702 453.969 2701.44 455.651 2701.44 457.8V465.6C2701.44 467.749 2702 469.431 2703.1 470.644C2704.25 471.857 2705.77 472.464 2707.68 472.464ZM2354.77 545V516.4H2359.35V521.86H2360.44L2358.93 525.24C2358.93 522.155 2359.59 519.832 2360.91 518.272C2362.26 516.677 2364.25 515.88 2366.89 515.88C2369.9 515.88 2372.3 516.833 2374.06 518.74C2375.87 520.612 2376.77 523.16 2376.77 526.384V528.1H2372.09V526.8C2372.09 524.547 2371.53 522.831 2370.42 521.652C2369.35 520.439 2367.81 519.832 2365.8 519.832C2363.82 519.832 2362.26 520.439 2361.12 521.652C2360.01 522.865 2359.45 524.581 2359.45 526.8V545H2354.77ZM2395.78 545.52C2393.53 545.52 2391.55 545.069 2389.85 544.168C2388.19 543.267 2386.89 542.001 2385.95 540.372C2385.05 538.708 2384.6 536.784 2384.6 534.6V526.8C2384.6 524.581 2385.05 522.657 2385.95 521.028C2386.89 519.399 2388.19 518.133 2389.85 517.232C2391.55 516.331 2393.53 515.88 2395.78 515.88C2398.03 515.88 2399.99 516.331 2401.66 517.232C2403.35 518.133 2404.65 519.399 2405.56 521.028C2406.49 522.657 2406.96 524.581 2406.96 526.8V531.844H2389.18V534.6C2389.18 536.853 2389.75 538.587 2390.89 539.8C2392.04 540.979 2393.67 541.568 2395.78 541.568C2397.58 541.568 2399.04 541.256 2400.15 540.632C2401.26 539.973 2401.93 539.003 2402.18 537.72H2406.86C2406.54 540.112 2405.37 542.019 2403.32 543.44C2401.31 544.827 2398.8 545.52 2395.78 545.52ZM2402.38 528.724V526.8C2402.38 524.547 2401.81 522.813 2400.67 521.6C2399.56 520.387 2397.93 519.78 2395.78 519.78C2393.67 519.78 2392.04 520.387 2390.89 521.6C2389.75 522.813 2389.18 524.547 2389.18 526.8V528.308H2402.75L2402.38 528.724ZM2423.79 545L2414.22 516.4H2419L2425.35 535.64C2425.73 536.784 2426.08 537.893 2426.39 538.968C2426.7 540.008 2426.92 540.823 2427.06 541.412C2427.24 540.823 2427.48 540.008 2427.79 538.968C2428.1 537.893 2428.43 536.784 2428.78 535.64L2434.97 516.4H2439.7L2430.13 545H2423.79ZM2455.64 545.52C2452.63 545.52 2450.25 544.757 2448.52 543.232C2446.79 541.672 2445.92 539.575 2445.92 536.94C2445.92 534.271 2446.79 532.173 2448.52 530.648C2450.25 529.123 2452.59 528.36 2455.54 528.36H2464.38V525.5C2464.38 523.732 2463.84 522.38 2462.77 521.444C2461.73 520.473 2460.24 519.988 2458.3 519.988C2456.6 519.988 2455.18 520.352 2454.03 521.08C2452.89 521.773 2452.23 522.727 2452.06 523.94H2447.38C2447.69 521.479 2448.85 519.52 2450.86 518.064C2452.87 516.608 2455.38 515.88 2458.4 515.88C2461.69 515.88 2464.29 516.729 2466.2 518.428C2468.11 520.127 2469.06 522.432 2469.06 525.344V545H2464.48V539.54H2463.7L2464.48 538.76C2464.48 540.84 2463.67 542.487 2462.04 543.7C2460.44 544.913 2458.31 545.52 2455.64 545.52ZM2456.79 541.828C2459.01 541.828 2460.83 541.273 2462.25 540.164C2463.67 539.055 2464.38 537.633 2464.38 535.9V531.844H2455.64C2454.08 531.844 2452.85 532.277 2451.95 533.144C2451.05 534.011 2450.6 535.189 2450.6 536.68C2450.6 538.275 2451.14 539.54 2452.21 540.476C2453.32 541.377 2454.85 541.828 2456.79 541.828ZM2493.22 545C2491.55 545 2490.1 544.671 2488.85 544.012C2487.6 543.353 2486.63 542.417 2485.94 541.204C2485.25 539.991 2484.9 538.569 2484.9 536.94V511.304H2475.28V507.04H2489.58V536.94C2489.58 538.119 2489.91 539.055 2490.57 539.748C2491.23 540.407 2492.11 540.736 2493.22 540.736H2502.32V545H2493.22ZM2509.32 545V540.736H2519.46V520.664H2510.62V516.4H2524.14V540.736H2533.76V545H2509.32ZM2521.28 511.252C2520.13 511.252 2519.23 510.957 2518.57 510.368C2517.92 509.779 2517.59 508.981 2517.59 507.976C2517.59 506.936 2517.92 506.121 2518.57 505.532C2519.23 504.908 2520.13 504.596 2521.28 504.596C2522.42 504.596 2523.32 504.908 2523.98 505.532C2524.64 506.121 2524.97 506.936 2524.97 507.976C2524.97 508.981 2524.64 509.779 2523.98 510.368C2523.32 510.957 2522.42 511.252 2521.28 511.252ZM2550.01 545.52C2547.17 545.52 2544.87 544.567 2543.1 542.66C2541.36 540.753 2540.5 538.171 2540.5 534.912V526.54C2540.5 523.247 2541.36 520.647 2543.1 518.74C2544.83 516.833 2547.14 515.88 2550.01 515.88C2552.37 515.88 2554.26 516.521 2555.68 517.804C2557.1 519.087 2557.81 520.803 2557.81 522.952L2556.88 521.86H2557.92L2557.81 515.36V507.04H2562.49V545H2557.81V539.54H2556.88L2557.81 538.448C2557.81 540.632 2557.1 542.365 2555.68 543.648C2554.26 544.896 2552.37 545.52 2550.01 545.52ZM2551.57 541.464C2553.52 541.464 2555.04 540.857 2556.15 539.644C2557.26 538.431 2557.81 536.749 2557.81 534.6V526.8C2557.81 524.651 2557.26 522.969 2556.15 521.756C2555.04 520.543 2553.52 519.936 2551.57 519.936C2549.6 519.936 2548.04 520.525 2546.89 521.704C2545.75 522.883 2545.18 524.581 2545.18 526.8V534.6C2545.18 536.819 2545.75 538.517 2546.89 539.696C2548.04 540.875 2549.6 541.464 2551.57 541.464ZM2580.36 545.52C2577.35 545.52 2574.97 544.757 2573.24 543.232C2571.5 541.672 2570.64 539.575 2570.64 536.94C2570.64 534.271 2571.5 532.173 2573.24 530.648C2574.97 529.123 2577.31 528.36 2580.26 528.36H2589.1V525.5C2589.1 523.732 2588.56 522.38 2587.49 521.444C2586.45 520.473 2584.96 519.988 2583.01 519.988C2581.32 519.988 2579.89 520.352 2578.75 521.08C2577.61 521.773 2576.95 522.727 2576.77 523.94H2572.09C2572.41 521.479 2573.57 519.52 2575.58 518.064C2577.59 516.608 2580.1 515.88 2583.12 515.88C2586.41 515.88 2589.01 516.729 2590.92 518.428C2592.82 520.127 2593.78 522.432 2593.78 525.344V545H2589.2V539.54H2588.42L2589.2 538.76C2589.2 540.84 2588.39 542.487 2586.76 543.7C2585.16 544.913 2583.03 545.52 2580.36 545.52ZM2581.51 541.828C2583.72 541.828 2585.54 541.273 2586.97 540.164C2588.39 539.055 2589.1 537.633 2589.1 535.9V531.844H2580.36C2578.8 531.844 2577.57 532.277 2576.67 533.144C2575.77 534.011 2575.32 535.189 2575.32 536.68C2575.32 538.275 2575.86 539.54 2576.93 540.476C2578.04 541.377 2579.56 541.828 2581.51 541.828ZM2617.16 545C2614.7 545 2612.77 544.341 2611.39 543.024C2610.03 541.707 2609.36 539.852 2609.36 537.46V520.664H2601.3V516.4H2609.36V508.34H2614.04V516.4H2625.48V520.664H2614.04V537.46C2614.04 539.644 2615.08 540.736 2617.16 540.736H2624.96V545H2617.16ZM2645.22 545.52C2642.96 545.52 2640.99 545.069 2639.29 544.168C2637.63 543.267 2636.33 542.001 2635.39 540.372C2634.49 538.708 2634.04 536.784 2634.04 534.6V526.8C2634.04 524.581 2634.49 522.657 2635.39 521.028C2636.33 519.399 2637.63 518.133 2639.29 517.232C2640.99 516.331 2642.96 515.88 2645.22 515.88C2647.47 515.88 2649.43 516.331 2651.09 517.232C2652.79 518.133 2654.09 519.399 2654.99 521.028C2655.93 522.657 2656.4 524.581 2656.4 526.8V531.844H2638.61V534.6C2638.61 536.853 2639.19 538.587 2640.33 539.8C2641.47 540.979 2643.1 541.568 2645.22 541.568C2647.02 541.568 2648.48 541.256 2649.59 540.632C2650.69 539.973 2651.37 539.003 2651.61 537.72H2656.29C2655.98 540.112 2654.8 542.019 2652.76 543.44C2650.75 544.827 2648.23 545.52 2645.22 545.52ZM2651.82 528.724V526.8C2651.82 524.547 2651.25 522.813 2650.11 521.6C2649 520.387 2647.37 519.78 2645.22 519.78C2643.1 519.78 2641.47 520.387 2640.33 521.6C2639.19 522.813 2638.61 524.547 2638.61 526.8V528.308H2652.19L2651.82 528.724ZM2665.58 545V507.04H2677.8C2680.16 507.04 2682.2 507.508 2683.94 508.444C2685.67 509.345 2687 510.628 2687.94 512.292C2688.91 513.956 2689.4 515.932 2689.4 518.22C2689.4 520.473 2688.91 522.449 2687.94 524.148C2687 525.812 2685.67 527.112 2683.94 528.048C2682.2 528.949 2680.16 529.4 2677.8 529.4H2670.26V545H2665.58ZM2670.26 525.188H2677.8C2679.85 525.188 2681.48 524.564 2682.69 523.316C2683.94 522.033 2684.56 520.335 2684.56 518.22C2684.56 516.071 2683.94 514.372 2682.69 513.124C2681.48 511.876 2679.85 511.252 2677.8 511.252H2670.26V525.188ZM2705.08 545.52C2702.06 545.52 2699.69 544.757 2697.96 543.232C2696.22 541.672 2695.36 539.575 2695.36 536.94C2695.36 534.271 2696.22 532.173 2697.96 530.648C2699.69 529.123 2702.03 528.36 2704.98 528.36H2713.82V525.5C2713.82 523.732 2713.28 522.38 2712.2 521.444C2711.16 520.473 2709.67 519.988 2707.73 519.988C2706.03 519.988 2704.61 520.352 2703.47 521.08C2702.32 521.773 2701.67 522.727 2701.49 523.94H2696.81C2697.12 521.479 2698.29 519.52 2700.3 518.064C2702.31 516.608 2704.82 515.88 2707.84 515.88C2711.13 515.88 2713.73 516.729 2715.64 518.428C2717.54 520.127 2718.5 522.432 2718.5 525.344V545H2713.92V539.54H2713.14L2713.92 538.76C2713.92 540.84 2713.11 542.487 2711.48 543.7C2709.88 544.913 2707.75 545.52 2705.08 545.52ZM2706.22 541.828C2708.44 541.828 2710.26 541.273 2711.68 540.164C2713.11 539.055 2713.82 537.633 2713.82 535.9V531.844H2705.08C2703.52 531.844 2702.29 532.277 2701.39 533.144C2700.49 534.011 2700.04 535.189 2700.04 536.68C2700.04 538.275 2700.57 539.54 2701.65 540.476C2702.76 541.377 2704.28 541.828 2706.22 541.828ZM2741.88 545C2739.41 545 2737.49 544.341 2736.1 543.024C2734.75 541.707 2734.08 539.852 2734.08 537.46V520.664H2726.02V516.4H2734.08V508.34H2738.76V516.4H2750.2V520.664H2738.76V537.46C2738.76 539.644 2739.8 540.736 2741.88 540.736H2749.68V545H2741.88ZM2759.12 545V507.04H2763.8V516.4V521.86H2764.79L2763.8 522.952C2763.8 520.699 2764.48 518.965 2765.83 517.752C2767.18 516.504 2769.05 515.88 2771.44 515.88C2774.32 515.88 2776.61 516.764 2778.31 518.532C2780.01 520.3 2780.86 522.709 2780.86 525.76V545H2776.18V526.28C2776.18 524.235 2775.62 522.657 2774.51 521.548C2773.44 520.404 2771.96 519.832 2770.09 519.832C2768.15 519.832 2766.61 520.439 2765.46 521.652C2764.35 522.865 2763.8 524.581 2763.8 526.8V545H2759.12Z" fill="black"/>
<path d="M742 719L805.717 746.206L797.42 677.423L742 719ZM2283.28 527.043L794.893 706.576L796.33 718.49L2284.72 538.957L2283.28 527.043Z" fill="#444444"/>
<path d="M2260 366L2210.86 317.165L2193.14 384.142L2260 366ZM1143.47 76.8004L2206.26 357.989L2209.33 346.388L1146.53 65.1996L1143.47 76.8004Z" fill="#444444"/>
</svg>
